<svg width="75" height="75" viewBox="0 0 75 75" fill="none" xmlns="http://www.w3.org/2000/svg">
<circle cx="37" cy="38" r="36" fill="#F1F3F7"/>
<path d="M26.6797 20.7326C26.8977 21.3162 26.6023 21.9631 26.0187 22.181L22.9813 23.32C22.5383 23.4818 22.25 23.9036 22.25 24.3747V33.5009C22.25 38.4718 26.2789 42.5005 31.25 42.5005C36.2211 42.5005 40.25 38.4718 40.25 33.5009V24.3747C40.25 23.9036 39.9617 23.4888 39.5188 23.32L36.4812 22.181C35.8977 21.9631 35.6023 21.3162 35.8203 20.7326C36.0383 20.1491 36.6852 19.8538 37.2688 20.0717L40.3062 21.2108C41.6211 21.7029 42.493 22.9615 42.493 24.3677L42.5 33.5009C42.5 39.3366 38.0633 44.1317 32.375 44.6942V44.7504C32.375 49.7213 36.4039 53.7501 41.375 53.7501C46.3461 53.7501 50.375 49.7213 50.375 44.7504V37.8601C48.4344 37.3609 47 35.5961 47 33.5009C47 31.019 49.018 29.0011 51.5 29.0011C53.982 29.0011 56 31.019 56 33.5009C56 35.5961 54.5656 37.3609 52.625 37.8601V44.7504C52.625 50.9658 47.5906 56 41.375 56C35.1594 56 30.125 50.9658 30.125 44.7504V44.6942C24.4367 44.1317 20 39.3366 20 33.5009V24.3747C20 22.9685 20.8719 21.71 22.1867 21.2178L25.2313 20.0717C25.8148 19.8538 26.4617 20.1491 26.6797 20.7326ZM51.5 35.7508C52.0967 35.7508 52.669 35.5138 53.091 35.0918C53.5129 34.6699 53.75 34.0976 53.75 33.5009C53.75 32.9042 53.5129 32.3319 53.091 31.91C52.669 31.488 52.0967 31.251 51.5 31.251C50.9033 31.251 50.331 31.488 49.909 31.91C49.4871 32.3319 49.25 32.9042 49.25 33.5009C49.25 34.0976 49.4871 34.6699 49.909 35.0918C50.331 35.5138 50.9033 35.7508 51.5 35.7508Z" fill="#5B5D60"/>
</svg>
