<svg width="75" height="75" viewBox="0 0 75 75" fill="none" xmlns="http://www.w3.org/2000/svg">
<circle cx="37" cy="38" r="36" fill="#F1F3F7"/>
<path d="M23.7095 20.0152C24.3309 20.1207 24.7523 20.6971 24.6523 21.3087L23.0023 31.0658C22.9738 31.2486 22.9523 31.4314 22.9523 31.6212V32.3734C22.9523 34.2362 24.4881 35.7476 26.3809 35.7476H28.6666H30.9523C32.8452 35.7476 34.3809 34.2362 34.3809 32.3734V31.6212C34.3809 31.4384 34.3666 31.2486 34.3309 31.0658L32.6809 21.3087C32.5738 20.6971 32.9952 20.1137 33.6238 20.0152C34.2523 19.9168 34.8381 20.3245 34.9381 20.9432L36.5881 30.7003C36.6381 31.0026 36.6666 31.3119 36.6666 31.6282V32.3804C36.6666 35.4875 34.1095 38.0041 30.9523 38.0041H29.8095V54.8753C29.8095 55.4939 29.2952 56 28.6666 56C28.0381 56 27.5238 55.4939 27.5238 54.8753V38.0041H26.3809C23.2238 38.0041 20.6666 35.4875 20.6666 32.3804V31.6282C20.6666 31.3189 20.6952 31.0096 20.7452 30.7003L22.3952 20.9432C22.5023 20.3316 23.0881 19.9168 23.7095 20.0152ZM27.0095 20.0012C27.6381 20.0293 28.1238 20.5636 28.0952 21.1822L27.5238 32.4296C27.4952 33.0482 26.9523 33.5262 26.3238 33.4981C25.6952 33.47 25.2095 32.9357 25.2381 32.3171L25.8095 21.0697C25.8452 20.4511 26.3809 19.9731 27.0095 20.0012ZM30.3238 20.0012C30.9523 19.9731 31.4881 20.4511 31.5238 21.0697L32.0952 32.3171C32.1238 32.9357 31.6381 33.463 31.0095 33.4981C30.3809 33.5332 29.8452 33.0482 29.8095 32.4296L29.2381 21.1822C29.2095 20.5636 29.6952 20.0363 30.3238 20.0012ZM43.5238 32.3734V40.2466C43.5238 41.4908 44.5452 42.496 45.8095 42.496H50.3809V22.2647L50.3666 22.2718C50.2452 22.2999 49.8881 22.3772 49.3452 22.5951C48.6238 22.8833 47.7381 23.3614 46.8809 24.0924C45.2238 25.5054 43.5238 27.9798 43.5238 32.3734ZM50.3809 20.0012C51.6452 20.0012 52.6666 21.0064 52.6666 22.2507V42.496V43.6208V44.7455V54.8682C52.6666 55.4868 52.1523 55.993 51.5238 55.993C50.8952 55.993 50.3809 55.4868 50.3809 54.8682V44.7455H45.8095C43.2881 44.7455 41.2381 42.728 41.2381 40.2466V32.3734C41.2381 22.2507 49.2381 20.0012 50.3809 20.0012Z" fill="#5B5D60"/>
</svg>
