<svg width="75" height="75" viewBox="0 0 75 75" fill="none" xmlns="http://www.w3.org/2000/svg">
<path d="M37 74C56.8823 74 73 57.8823 73 38C73 18.1177 56.8823 2 37 2C17.1177 2 1 18.1177 1 38C1 57.8823 17.1177 74 37 74Z" fill="#F1F3F7"/>
<g clip-path="url(#clip0_174_2993)">
<path d="M21 34.4352C21 34.1102 21.08 33.7902 21.235 33.5059L25.12 26.2695C25.54 25.4875 26.345 25 27.225 25H46.775C47.655 25 48.46 25.4875 48.88 26.2695L52.765 33.5008C52.92 33.7852 53 34.105 53 34.43C53 35.5016 52.145 36.3699 51.09 36.3699L49.8 36.375V50.1875C49.8 50.6344 49.44 51 49 51C48.56 51 48.2 50.6344 48.2 50.1875V36.375H25.8V42.875H38.6V38.8125V38H40.2V38.8125V48.5625C40.2 49.9082 39.125 51 37.8 51H26.6C25.275 51 24.2 49.9082 24.2 48.5625V36.375H22.91C21.855 36.375 21 35.5067 21 34.4352ZM25 34.75H49H51.09C51.26 34.75 51.4 34.6078 51.4 34.4352C51.4 34.3844 51.385 34.3286 51.36 34.2828L47.48 27.0465C47.34 26.7875 47.07 26.625 46.78 26.625H27.23C26.935 26.625 26.67 26.7875 26.53 27.0465L22.64 34.2828C22.615 34.3286 22.6 34.3793 22.6 34.4352C22.6 34.6078 22.74 34.75 22.91 34.75H25ZM25.8 48.5625C25.8 49.0094 26.16 49.375 26.6 49.375H37.8C38.24 49.375 38.6 49.0094 38.6 48.5625V44.5H25.8V48.5625Z" fill="#5B5D60"/>
</g>
<defs>
<clipPath id="clip0_174_2993">
<rect width="32" height="26" fill="white" transform="translate(21 25)"/>
</clipPath>
</defs>
</svg>
