<svg width="24" height="24" viewBox="0 0 24 24" fill="none" xmlns="http://www.w3.org/2000/svg">
<rect width="24" height="24" rx="2" fill="#F1F3F7"/>
<path d="M3.46875 5.48248C3.825 4.36123 4.86375 3.59998 6.04125 3.59998H17.9662C19.1437 3.59998 20.1825 4.36123 20.5425 5.48248L21.2475 7.70248C21.6112 8.84248 21.2175 9.99748 20.4037 10.7062V17.7C20.4037 19.1925 19.1962 20.4 17.7037 20.4H6.30375C4.81125 20.4 3.60375 19.1925 3.60375 17.7V10.7062C2.79 10.0012 2.39625 8.84623 2.76 7.70248L3.46875 5.48248ZM16.5637 4.79998L16.89 8.40373V8.40748L16.9162 8.71123C16.9912 9.55498 17.7 10.2 18.5437 10.2C19.65 10.2 20.4375 9.12373 20.1037 8.06623L19.3987 5.84623C19.2 5.22373 18.6225 4.79998 17.97 4.79998H16.5637ZM15.6975 8.51623V8.51248L15.36 4.79998H12.6075V8.65123C12.6075 9.50623 13.3012 10.2 14.1562 10.2C15.0637 10.2 15.78 9.41998 15.6975 8.51623ZM12.0075 10.3687C11.505 10.9987 10.7287 11.4037 9.85875 11.4037C8.97 11.4037 8.1825 10.9837 7.68375 10.335C7.1625 10.9875 6.36 11.4037 5.46375 11.4037C5.235 11.4037 5.0175 11.3775 4.8075 11.3287V14.4037H19.2075V11.3287C18.9975 11.3775 18.7762 11.4037 18.5512 11.4037C17.6587 11.4037 16.8562 10.9875 16.3312 10.335C15.8325 10.9837 15.045 11.4037 14.1562 11.4037C13.2862 11.4037 12.51 10.9987 12.0075 10.3687ZM11.4037 4.79998H8.65125L8.31375 8.51248C8.23125 9.41998 8.94375 10.2 9.855 10.2C10.71 10.2 11.4037 9.50623 11.4037 8.65123V4.79998ZM6.04125 4.79998C5.38875 4.79998 4.8075 5.22373 4.6125 5.84623L3.90375 8.06623C3.56625 9.11998 4.35375 10.2 5.46375 10.2C6.31125 10.2 7.01625 9.55498 7.09125 8.71123L7.1175 8.40373L7.44375 4.79998H6.0375H6.04125ZM4.80375 15.6V17.7C4.80375 18.5287 5.475 19.2 6.30375 19.2H17.7037C18.5325 19.2 19.2037 18.5287 19.2037 17.7V15.6H4.80375Z" fill="#5B5D60"/>
</svg>
