<svg width="75" height="75" viewBox="0 0 75 75" fill="none" xmlns="http://www.w3.org/2000/svg">
<circle cx="37.3333" cy="38" r="36" fill="#F1F3F7"/>
<path d="M36.3333 23.0625C38.5083 23.0625 40.3646 24.4934 41.0521 26.4979C41.2333 27.0328 41.8083 27.3164 42.3271 27.1295C42.8458 26.9426 43.1208 26.3496 42.9396 25.8146C41.9771 23.0109 39.3833 21 36.3333 21C32.8646 21 29.9833 23.6039 29.4271 27.0199C29.3333 27.5807 29.7021 28.1156 30.2458 28.2059C30.7896 28.2961 31.3083 27.9223 31.3958 27.3615C31.8021 24.9187 33.8583 23.0625 36.3333 23.0625ZM22.7833 33.2654C23.2771 33.0076 23.4771 32.3889 23.2333 31.8797C22.9896 31.3705 22.3833 31.1643 21.8896 31.4156L21.5958 31.5703C20.2083 32.2857 19.3333 33.7488 19.3333 35.3473C19.3333 37.6482 21.1146 39.5174 23.3333 39.5625C23.3333 42.9398 24.9083 45.9305 27.3333 47.8125V50.9062C27.3333 52.6143 28.6771 54 30.3333 54H32.3333C33.9896 54 35.3333 52.6143 35.3333 50.9062V49.875H39.3333V50.9062C39.3333 52.6143 40.6771 54 42.3333 54H44.3333C45.9896 54 47.3333 52.6143 47.3333 50.9062V49.0178C48.9271 48.3023 50.3021 47.168 51.3333 45.75H53.3333C54.4396 45.75 55.3333 44.8283 55.3333 43.6875V37.5C55.3333 36.3592 54.4396 35.4375 53.3333 35.4375H52.5021C51.8333 33.852 50.7896 32.4791 49.4833 31.4285L49.9333 29.8172C50.2958 28.4959 49.3333 27.1875 48.0083 27.1875H47.8333C45.9271 27.1875 44.1958 27.9738 42.9333 29.25H33.3333C28.4958 29.25 24.4583 32.7949 23.5333 37.5H23.4208C22.2708 37.5 21.3333 36.5332 21.3333 35.3473C21.3333 34.5287 21.7833 33.7875 22.4896 33.4201L22.7833 33.2719V33.2654ZM45.8333 39.5625C46.2311 39.5625 46.6127 39.3995 46.894 39.1094C47.1753 38.8193 47.3333 38.4259 47.3333 38.0156C47.3333 37.6054 47.1753 37.2119 46.894 36.9218C46.6127 36.6317 46.2311 36.4688 45.8333 36.4688C45.4355 36.4688 45.054 36.6317 44.7727 36.9218C44.4913 37.2119 44.3333 37.6054 44.3333 38.0156C44.3333 38.4259 44.4913 38.8193 44.7727 39.1094C45.054 39.3995 45.4355 39.5625 45.8333 39.5625ZM44.1083 30.9709C45.0208 29.9139 46.3521 29.25 47.8333 29.25H48.0083L47.3708 31.5574C47.2521 31.9893 47.4146 32.4469 47.7771 32.6982C49.2021 33.6779 50.3021 35.1217 50.8833 36.8104C51.0271 37.2229 51.4021 37.5 51.8271 37.5H53.3396V43.6875H50.8271C50.4958 43.6875 50.1833 43.8615 49.9958 44.1451C49.0458 45.6146 47.6458 46.749 46.0083 47.342C45.6021 47.4902 45.3333 47.877 45.3333 48.3152V50.9062C45.3333 51.4734 44.8833 51.9375 44.3333 51.9375H42.3333C41.7833 51.9375 41.3333 51.4734 41.3333 50.9062V48.8438C41.3333 48.2766 40.8833 47.8125 40.3333 47.8125H34.3333C33.7833 47.8125 33.3333 48.2766 33.3333 48.8438V50.9062C33.3333 51.4734 32.8833 51.9375 32.3333 51.9375H30.3333C29.7833 51.9375 29.3333 51.4734 29.3333 50.9062V47.284C29.3333 46.9424 29.1646 46.6201 28.8896 46.4268C26.7458 44.9443 25.3333 42.4242 25.3333 39.5625C25.3333 35.0057 28.9146 31.3125 33.3333 31.3125H43.3333H43.3583C43.6458 31.3125 43.9146 31.19 44.1021 30.9709H44.1083Z" fill="#5B5D60"/>
</svg>
