<svg width="50" height="50" viewBox="0 0 50 50" fill="none" xmlns="http://www.w3.org/2000/svg">
<path d="M25 5C13.9544 5 5 13.9544 5 25C5 36.0456 13.9544 45 25 45C36.0456 45 45 36.0456 45 25C45 13.9544 36.0456 5 25 5ZM25 43.4C14.8378 43.4 6.6 35.1622 6.6 25C6.6 14.8378 14.8378 6.6 25 6.6C35.1622 6.6 43.4 14.8378 43.4 25C43.4 35.1622 35.1622 43.4 25 43.4Z" fill="white"/>
<path d="M25.7 27.2001H29.3V34.4001H30.9V27.2001H34.5V25.6001H25.7V27.2001Z" fill="white"/>
<path d="M23.5683 25.4001L20.1 28.869L16.6317 25.4001L15.5 26.5318L18.9689 30.0001L15.5 33.4684L16.6317 34.6001L20.1 31.1312L23.5683 34.6001L24.7 33.4684L21.2311 30.0001L24.7 26.5318L23.5683 25.4001Z" fill="white"/>
<path d="M30 24.4001C32.485 24.4001 34.5 22.3851 34.5 19.9001H32.9C32.9 21.5018 31.6017 22.8001 30 22.8001C29.5428 22.8001 29.1106 22.694 28.7261 22.5056L33.7767 17.4551C32.9744 16.219 31.5833 15.4007 30 15.4007C27.5144 15.4007 25.5 17.4156 25.5 19.9006C25.5 22.3856 27.5144 24.4001 30 24.4001ZM30 17.0001C30.5622 17.0001 31.0867 17.1606 31.5311 17.4379L27.5378 21.4312C27.2606 20.9868 27.1006 20.4623 27.1006 19.9001C27.1 18.2984 28.3983 17.0001 30 17.0001Z" fill="white"/>
<path d="M20.1 19.4212L16.7256 15.4001L15.5 16.4284L19.3 20.9573V24.4001H20.9V20.9573L24.7 16.4284L23.4744 15.4001L20.1 19.4212Z" fill="white"/>
</svg>
