<svg width="50" height="50" viewBox="0 0 50 50" fill="none" xmlns="http://www.w3.org/2000/svg">
<path d="M25 5C13.9544 5 5 13.9544 5 25C5 36.0456 13.9544 45 25 45C36.0456 45 45 36.0456 45 25C45 13.9544 36.0456 5 25 5ZM25 43.4C14.8378 43.4 6.6 35.1622 6.6 25C6.6 14.8378 14.8378 6.6 25 6.6C35.1622 6.6 43.4 14.8378 43.4 25C43.4 35.1622 35.1622 43.4 25 43.4Z" fill="white"/>
<path d="M24.6 24.9789L27.9744 29L29.2 27.9717L25.4 23.4428L25.4 20L23.8 20L23.8 23.4428L20 27.9717L21.2256 29L24.6 24.9789Z" fill="white"/>
</svg>
