<svg width="30" height="24" viewBox="0 0 30 24" fill="none" xmlns="http://www.w3.org/2000/svg">
<path d="M6 0.75C6 1.1625 6.3375 1.5 6.75 1.5H10.3641L10.1063 3.03281C9.05156 3.22031 8.25 4.13906 8.25 5.25C8.25 6.49219 9.25781 7.5 10.5 7.5C11.3719 7.5 12.1312 7.00313 12.5062 6.27188L21 7.40625V9.75C21 10.1625 21.3375 10.5 21.75 10.5C22.1625 10.5 22.5 10.1625 22.5 9.75V6.75C22.5 6.375 22.2234 6.05625 21.8484 6.00469L12.7031 4.78594C12.5672 4.13906 12.1547 3.59063 11.5875 3.28125L11.8828 1.5H15.75C16.1625 1.5 16.5 1.1625 16.5 0.75C16.5 0.3375 16.1625 0 15.75 0H6.75C6.3375 0 6 0.3375 6 0.75ZM9.375 5.25C9.375 4.95163 9.49353 4.66548 9.7045 4.4545C9.91548 4.24353 10.2016 4.125 10.5 4.125C10.7984 4.125 11.0845 4.24353 11.2955 4.4545C11.5065 4.66548 11.625 4.95163 11.625 5.25C11.625 5.54837 11.5065 5.83452 11.2955 6.0455C11.0845 6.25647 10.7984 6.375 10.5 6.375C10.2016 6.375 9.91548 6.25647 9.7045 6.0455C9.49353 5.83452 9.375 5.54837 9.375 5.25ZM21 13.5H22.5V15H21V13.5ZM19.5 13.125V15H16.5V13.125C16.5 12.5016 15.9984 12 15.375 12H13.125C12.5016 12 12 12.5016 12 13.125V15H9V13.125C9 12.5016 8.49844 12 7.875 12H5.625C5.00156 12 4.5 12.5016 4.5 13.125V15C2.01562 15 0 17.0156 0 19.5C0 21.9844 2.01562 24 4.5 24H25.5C27.9844 24 30 21.9844 30 19.5C30 17.0156 27.9844 15 25.5 15H24V13.125C24 12.5016 23.4984 12 22.875 12H20.625C20.0016 12 19.5 12.5016 19.5 13.125ZM4.5 16.5H5.625H7.875H13.125H15.375H20.625H22.875H25.5C27.1547 16.5 28.5 17.8453 28.5 19.5C28.5 21.1547 27.1547 22.5 25.5 22.5H4.5C2.84531 22.5 1.5 21.1547 1.5 19.5C1.5 17.8453 2.84531 16.5 4.5 16.5ZM7.5 13.5V15H6V13.5H7.5ZM13.5 15V13.5H15V15H13.5ZM6 20.625C6.29837 20.625 6.58452 20.5065 6.7955 20.2955C7.00647 20.0845 7.125 19.7984 7.125 19.5C7.125 19.2016 7.00647 18.9155 6.7955 18.7045C6.58452 18.4935 6.29837 18.375 6 18.375C5.70163 18.375 5.41548 18.4935 5.2045 18.7045C4.99353 18.9155 4.875 19.2016 4.875 19.5C4.875 19.7984 4.99353 20.0845 5.2045 20.2955C5.41548 20.5065 5.70163 20.625 6 20.625ZM16.125 19.5C16.125 19.2016 16.0065 18.9155 15.7955 18.7045C15.5845 18.4935 15.2984 18.375 15 18.375C14.7016 18.375 14.4155 18.4935 14.2045 18.7045C13.9935 18.9155 13.875 19.2016 13.875 19.5C13.875 19.7984 13.9935 20.0845 14.2045 20.2955C14.4155 20.5065 14.7016 20.625 15 20.625C15.2984 20.625 15.5845 20.5065 15.7955 20.2955C16.0065 20.0845 16.125 19.7984 16.125 19.5ZM24 20.625C24.2984 20.625 24.5845 20.5065 24.7955 20.2955C25.0065 20.0845 25.125 19.7984 25.125 19.5C25.125 19.2016 25.0065 18.9155 24.7955 18.7045C24.5845 18.4935 24.2984 18.375 24 18.375C23.7016 18.375 23.4155 18.4935 23.2045 18.7045C22.9935 18.9155 22.875 19.2016 22.875 19.5C22.875 19.7984 22.9935 20.0845 23.2045 20.2955C23.4155 20.5065 23.7016 20.625 24 20.625Z" fill="black"/>
</svg>
