<svg width="40" height="32" viewBox="0 0 40 32" fill="none" xmlns="http://www.w3.org/2000/svg">
<path d="M0 11.6125C0 11.2125 0.1 10.8187 0.29375 10.4688L5.15 1.5625C5.675 0.6 6.68125 0 7.78125 0H32.2188C33.3188 0 34.325 0.6 34.85 1.5625L39.7062 10.4625C39.9 10.8125 40 11.2062 40 11.6062C40 12.925 38.9312 13.9937 37.6125 13.9937L36 14V31C36 31.55 35.55 32 35 32C34.45 32 34 31.55 34 31V14H6V22H22V17V16H24V17V29C24 30.6562 22.6562 32 21 32H7C5.34375 32 4 30.6562 4 29V14H2.3875C1.06875 14 0 12.9313 0 11.6125ZM5 12H35H37.6125C37.825 12 38 11.825 38 11.6125C38 11.55 37.9813 11.4813 37.95 11.425L33.1 2.51875C32.925 2.2 32.5875 2 32.225 2H7.7875C7.41875 2 7.0875 2.2 6.9125 2.51875L2.05 11.425C2.01875 11.4813 2 11.5438 2 11.6125C2 11.825 2.175 12 2.3875 12H5ZM6 29C6 29.55 6.45 30 7 30H21C21.55 30 22 29.55 22 29V24H6V29Z" fill="#1C1D20"/>
</svg>
