<svg width="19" height="17" viewBox="0 0 19 17" fill="none" xmlns="http://www.w3.org/2000/svg">
<path d="M0.844846 1.8825C1.2011 0.76125 2.23985 0 3.41735 0H15.3423C16.5198 0 17.5586 0.76125 17.9186 1.8825L18.6236 4.1025C18.9873 5.2425 18.5936 6.3975 17.7798 7.10622V14.1C17.7798 15.5925 16.5723 16.8 15.0798 16.8H3.67985C2.18735 16.8 0.979846 15.5925 0.979846 14.1V7.10622C0.166096 6.40122 -0.227654 5.24625 0.136096 4.1025L0.844846 1.8825ZM13.9398 1.2L14.2661 4.80375V4.8075L14.2923 5.11125C14.3673 5.955 15.0761 6.60002 15.9198 6.60002C17.0261 6.60002 17.8136 5.52375 17.4798 4.46625L16.7748 2.24625C16.5761 1.62375 15.9986 1.2 15.3461 1.2H13.9398ZM13.0736 4.91625V4.9125L12.7361 1.2H9.9836V5.05125C9.9836 5.90625 10.6773 6.60002 11.5323 6.60002C12.4398 6.60002 13.1561 5.82 13.0736 4.91625ZM9.3836 6.76872C8.8811 7.39872 8.1048 7.80372 7.23485 7.80372C6.3461 7.80372 5.5586 7.38372 5.05985 6.73502C4.5386 7.38752 3.7361 7.80372 2.83985 7.80372C2.6111 7.80372 2.3936 7.77752 2.1836 7.72872V10.8037H16.5836V7.72872C16.3736 7.77752 16.1523 7.80372 15.9273 7.80372C15.0348 7.80372 14.2323 7.38752 13.7073 6.73502C13.2086 7.38372 12.4211 7.80372 11.5323 7.80372C10.6623 7.80372 9.8861 7.39872 9.3836 6.76872ZM8.7798 1.2H6.02735L5.68985 4.9125C5.60735 5.82 6.31985 6.60002 7.2311 6.60002C8.0861 6.60002 8.7798 5.90625 8.7798 5.05125V1.2ZM3.41735 1.2C2.76485 1.2 2.1836 1.62375 1.9886 2.24625L1.27985 4.46625C0.942346 5.52 1.72985 6.60002 2.83985 6.60002C3.68735 6.60002 4.39235 5.955 4.46735 5.11125L4.4936 4.80375L4.81985 1.2H3.4136H3.41735ZM2.17985 12V14.1C2.17985 14.9287 2.8511 15.6 3.67985 15.6H15.0798C15.9086 15.6 16.5798 14.9287 16.5798 14.1V12H2.17985Z" fill="black"/>
</svg>
