<svg width="24" height="24" viewBox="0 0 24 24" fill="none" xmlns="http://www.w3.org/2000/svg">
<path d="M22.5 12.1078C22.4953 12.7687 21.8531 13.5 20.7141 13.5H16.125C14.0531 13.5 12.375 15.1781 12.375 17.25C12.375 17.5125 12.4031 17.775 12.4547 18.0281C12.5906 18.675 12.8719 19.3078 13.0734 19.7625C13.1109 19.8422 13.1438 19.9172 13.1719 19.9875C13.4062 20.5312 13.4953 20.8406 13.4953 21.0891C13.4953 21.9891 12.9188 22.4766 12.4313 22.4953C12.2859 22.5 12.1406 22.5047 11.9953 22.5047C6.20156 22.5 1.5 17.7984 1.5 12C1.5 6.20156 6.20156 1.5 12 1.5C17.7984 1.5 22.5 6.20156 22.5 12C22.5 12.0375 22.5 12.075 22.5 12.1078ZM24 12.1219C24 12.0797 24 12.0375 24 11.9953C24 5.37187 18.6281 0 12 0C5.37188 0 0 5.37188 0 12C0 18.6281 5.37188 24 12 24C12.1641 24 12.3328 23.9953 12.4969 23.9906C13.9875 23.9297 15 22.5797 15 21.0844C15 20.4047 14.7141 19.7578 14.4328 19.1156C14.2312 18.6562 14.025 18.1922 13.9266 17.7141C13.8938 17.5641 13.8797 17.4094 13.8797 17.25C13.8797 16.0078 14.8875 15 16.1297 15H20.7188C22.4297 15 23.9859 13.8375 24.0047 12.1266L24 12.1219ZM7.125 12C7.125 11.7016 7.00647 11.4155 6.7955 11.2045C6.58452 10.9935 6.29837 10.875 6 10.875C5.70163 10.875 5.41548 10.9935 5.2045 11.2045C4.99353 11.4155 4.875 11.7016 4.875 12C4.875 12.2984 4.99353 12.5845 5.2045 12.7955C5.41548 13.0065 5.70163 13.125 6 13.125C6.29837 13.125 6.58452 13.0065 6.7955 12.7955C7.00647 12.5845 7.125 12.2984 7.125 12ZM7.5 8.625C7.79837 8.625 8.08452 8.50647 8.2955 8.2955C8.50647 8.08452 8.625 7.79837 8.625 7.5C8.625 7.20163 8.50647 6.91548 8.2955 6.7045C8.08452 6.49353 7.79837 6.375 7.5 6.375C7.20163 6.375 6.91548 6.49353 6.7045 6.7045C6.49353 6.91548 6.375 7.20163 6.375 7.5C6.375 7.79837 6.49353 8.08452 6.7045 8.2955C6.91548 8.50647 7.20163 8.625 7.5 8.625ZM13.125 6C13.125 5.70163 13.0065 5.41548 12.7955 5.2045C12.5845 4.99353 12.2984 4.875 12 4.875C11.7016 4.875 11.4155 4.99353 11.2045 5.2045C10.9935 5.41548 10.875 5.70163 10.875 6C10.875 6.29837 10.9935 6.58452 11.2045 6.7955C11.4155 7.00647 11.7016 7.125 12 7.125C12.2984 7.125 12.5845 7.00647 12.7955 6.7955C13.0065 6.58452 13.125 6.29837 13.125 6ZM16.5 8.625C16.7984 8.625 17.0845 8.50647 17.2955 8.2955C17.5065 8.08452 17.625 7.79837 17.625 7.5C17.625 7.20163 17.5065 6.91548 17.2955 6.7045C17.0845 6.49353 16.7984 6.375 16.5 6.375C16.2016 6.375 15.9155 6.49353 15.7045 6.7045C15.4935 6.91548 15.375 7.20163 15.375 7.5C15.375 7.79837 15.4935 8.08452 15.7045 8.2955C15.9155 8.50647 16.2016 8.625 16.5 8.625Z" fill="black"/>
</svg>
