<svg width="30" height="21" viewBox="0 0 30 21" fill="none" xmlns="http://www.w3.org/2000/svg">
<path d="M8.02969 1.5H10.5V2.25V6.75V7.5H4.10625L5.93906 2.91562C6.28594 2.05781 7.11094 1.5 8.02969 1.5ZM12 7.5V6.75V2.25V1.5H16.5563C17.2406 1.5 17.8875 1.80938 18.3141 2.34375L22.4391 7.5H12ZM24.3703 7.50937L19.4859 1.40625C18.7734 0.515625 17.6953 0 16.5563 0H8.02969C6.49688 0 5.11875 0.932813 4.54688 2.35781L2.475 7.54688C1.06875 7.79531 0 9.02344 0 10.5V15.75C0 16.5797 0.670312 17.25 1.5 17.25H3.06094C3.41719 19.3781 5.26875 21 7.5 21C9.73125 21 11.5828 19.3781 11.9391 17.25H18.0656C18.4219 19.3781 20.2734 21 22.5047 21C24.7359 21 26.5875 19.3781 26.9437 17.25H28.5047C29.3344 17.25 30.0047 16.5797 30.0047 15.75V13.5C30.0047 10.3125 27.5156 7.70156 24.375 7.50937H24.3703ZM25.4062 17.25C25.0734 18.5438 23.8969 19.5 22.5 19.5C21.1031 19.5 19.9266 18.5438 19.5938 17.25C19.5328 17.0109 19.5 16.7578 19.5 16.5C19.5 16.2422 19.5328 15.9891 19.5938 15.75C19.9266 14.4563 21.1031 13.5 22.5 13.5C23.8969 13.5 25.0734 14.4563 25.4062 15.75C25.4672 15.9891 25.5 16.2422 25.5 16.5C25.5 16.7578 25.4672 17.0109 25.4062 17.25ZM18.0609 15.75H11.9344C11.5781 13.6219 9.72656 12 7.49531 12C5.26406 12 3.4125 13.6219 3.05625 15.75H1.5V10.5C1.5 9.67031 2.17031 9 3 9H24C26.4844 9 28.5 11.0156 28.5 13.5V15.75H26.9391C26.5828 13.6219 24.7313 12 22.5 12C20.2687 12 18.4172 13.6219 18.0609 15.75ZM7.5 19.5C6.10313 19.5 4.92656 18.5438 4.59375 17.25C4.53281 17.0109 4.5 16.7578 4.5 16.5C4.5 16.2422 4.53281 15.9891 4.59375 15.75C4.92656 14.4563 6.10313 13.5 7.5 13.5C8.89688 13.5 10.0734 14.4563 10.4062 15.75C10.4672 15.9891 10.5 16.2422 10.5 16.5C10.5 16.7578 10.4672 17.0109 10.4062 17.25C10.0734 18.5438 8.89688 19.5 7.5 19.5Z" fill="black"/>
</svg>
