<svg width="27" height="21" viewBox="0 0 27 21" fill="none" xmlns="http://www.w3.org/2000/svg">
<path d="M17.4047 8.78437C17.8266 8.47969 18.2719 8.19375 18.7266 7.93594C17.4562 3.57187 14.9859 1.00781 14.1562 0.24375C13.9781 0.0796875 13.7438 0 13.5047 0C13.2656 0 13.0313 0.0796875 12.8531 0.24375C12.0234 1.0125 9.55312 3.57656 8.28281 7.93594C8.7375 8.19375 9.17812 8.47969 9.60469 8.78437C10.5797 5.05781 12.525 2.69531 13.5 1.69688C14.475 2.69531 16.4203 5.05781 17.4047 8.78437ZM9 20.4844C10.1297 20.8172 11.3203 20.9953 12.5578 20.9953H14.4422C15.6797 20.9953 16.8703 20.8172 18 20.4844C23.2031 18.9516 27 14.1375 27 8.4375C27 7.91719 26.5734 7.49531 26.0531 7.49531C23.0297 7.49531 20.2359 8.50781 18 10.2094C15.9563 11.7656 14.3719 13.8984 13.5 16.3594C12.6281 13.8938 11.0437 11.7609 9 10.2094C6.75938 8.50781 3.96563 7.49531 0.946875 7.49531C0.426563 7.49531 0 7.91719 0 8.4375C0 14.1375 3.79688 18.9516 9 20.4844ZM9 18.8719C4.86094 17.4234 1.74844 13.6172 1.51406 9.00938C4.39687 9.14531 7.01719 10.3219 9 12.1688C11.0156 14.0484 12.375 16.6172 12.6844 19.4953C11.4047 19.4953 10.1625 19.275 9 18.8719ZM18 18.8719C16.8375 19.275 15.6 19.4953 14.3156 19.4953C14.625 16.6172 15.9844 14.0438 18 12.1688C19.9828 10.3219 22.6031 9.15 25.4859 9.00938C25.2516 13.6172 22.1391 17.4234 18 18.8719Z" fill="black"/>
</svg>
