<svg width="24" height="23" viewBox="0 0 24 23" fill="none" xmlns="http://www.w3.org/2000/svg">
<path d="M7.5 2.25V4.5H16.5V2.25C16.5 1.8375 16.1625 1.5 15.75 1.5H8.25C7.8375 1.5 7.5 1.8375 7.5 2.25ZM6 4.5V2.25C6 1.00781 7.00781 0 8.25 0H15.75C16.9922 0 18 1.00781 18 2.25V4.5H21C22.6547 4.5 24 5.84531 24 7.5V19.5C24 21.1547 22.6547 22.5 21 22.5H3C1.34531 22.5 0 21.1547 0 19.5V7.5C0 5.84531 1.34531 4.5 3 4.5H6ZM17.25 6H6.75H3C2.17031 6 1.5 6.67031 1.5 7.5V12H8.25H9.75H14.25H15.75H22.5V7.5C22.5 6.67031 21.8297 6 21 6H17.25ZM22.5 13.5H15.75V15.75C15.75 16.5797 15.0797 17.25 14.25 17.25H9.75C8.92031 17.25 8.25 16.5797 8.25 15.75V13.5H1.5V19.5C1.5 20.3297 2.17031 21 3 21H21C21.8297 21 22.5 20.3297 22.5 19.5V13.5ZM9.75 13.5V15.75H14.25V13.5H9.75Z" fill="black"/>
</svg>
