<svg width="27" height="24" viewBox="0 0 27 24" fill="none" xmlns="http://www.w3.org/2000/svg">
<path d="M18.6797 9.69375C19.0828 9.68906 19.4672 9.84844 19.7531 10.1344L22.125 12.5016L24.1266 10.5L21.8625 8.23594C21.5578 7.93125 21.3984 7.51406 21.4266 7.0875C21.4734 6.29062 21.1828 5.48438 20.5594 4.89844L18.4688 2.925C17.4937 2.01094 16.2094 1.5 14.8688 1.5H14.0203C13.2844 1.5 12.5578 1.65469 11.8875 1.95469L11.0625 2.32031L13.4625 3.62813C13.95 3.89062 14.25 4.39687 14.25 4.94531V5.5125C14.25 6.10313 14.4844 6.67031 14.9016 7.09219L16.6875 8.87812C17.2359 9.42656 17.9578 9.69844 18.675 9.69375H18.6797ZM25.1859 9.44062L25.3406 9.59531L25.7156 9.22031C26.0062 8.92969 26.4844 8.92969 26.775 9.22031C27.0656 9.51094 27.0656 9.98906 26.775 10.2797L21.525 15.5297C21.2344 15.8203 20.7563 15.8203 20.4656 15.5297C20.175 15.2391 20.175 14.7609 20.4656 14.4703L21.2156 13.7203L21.0609 13.5656L18.6891 11.1938C17.5828 11.2031 16.4719 10.7859 15.6234 9.94219L13.8375 8.15625C13.1438 7.45312 12.75 6.50625 12.75 5.5125V4.94531L9.01406 2.90625C8.76562 2.77031 8.61094 2.50312 8.625 2.21719C8.63906 1.93125 8.80781 1.67812 9.07031 1.56094L11.2828 0.576563C12.1453 0.196875 13.0781 0 14.025 0H14.8734C16.5938 0 18.2484 0.65625 19.5 1.83281L21.5906 3.80156C22.5516 4.70625 23.0016 5.95313 22.9266 7.17656L25.1906 9.44062H25.1859ZM1.28437 17.6766L12.2297 8.55938C12.3937 8.78906 12.5813 9.00938 12.7828 9.21563L13.2375 9.67031L2.24531 18.8297C1.77188 19.2234 1.5 19.8094 1.5 20.4234C1.5 21.5719 2.42813 22.5 3.57656 22.5C4.19063 22.5 4.77656 22.2281 5.17031 21.7547L14.3297 10.7625L14.5687 11.0016C14.85 11.2828 15.15 11.5266 15.4688 11.7375L6.32344 22.7156C5.64375 23.5312 4.63594 24 3.57656 24C1.59844 24 0 22.3969 0 20.4234C0 19.3641 0.473438 18.3563 1.28437 17.6766Z" fill="black"/>
</svg>
