<svg width="30" height="24" viewBox="0 0 30 24" fill="none" xmlns="http://www.w3.org/2000/svg">
<path d="M25.5 17.4513V1.49978L15.75 2.8404V19.4013L25.5 17.4513ZM14.25 19.4013V2.8404L4.5 1.49978V17.4513L14.25 19.4013ZM25.2937 0.0138411C26.1984 -0.108034 27 0.590404 27 1.49978V17.4513C27 18.1685 26.4937 18.7826 25.7953 18.9232L15.5906 20.9623C15.2016 21.042 14.8031 21.042 14.4141 20.9623L4.20469 18.9185C3.50156 18.7779 3 18.1638 3 17.4467V1.49978C3 0.590404 3.80156 -0.108034 4.70625 0.0138411L15 1.42947L25.2937 0.0138411ZM0 2.99978C0 2.16072 0.684375 1.49978 1.5 1.49978V2.99978V7.42947V19.5513L14.7047 22.1904C14.8969 22.2279 15.0984 22.2279 15.2953 22.1904L28.5 19.5513V7.42947V2.99978V1.49978C29.3156 1.49978 30 2.16072 30 2.99978V19.5513C30 20.2685 29.4937 20.8826 28.7953 21.0232L15.5906 23.6623C15.2016 23.742 14.8031 23.742 14.4141 23.6623L1.20469 21.0185C0.50625 20.8826 0 20.2638 0 19.5513V2.99978Z" fill="black"/>
</svg>
