<svg width="30" height="21" viewBox="0 0 30 21" fill="none" xmlns="http://www.w3.org/2000/svg">
<path d="M6 1.5C6.14774 1.5 6.29403 1.5291 6.43052 1.58564C6.56701 1.64217 6.69103 1.72504 6.7955 1.8295C6.89996 1.93397 6.98283 2.05799 7.03936 2.19448C7.0959 2.33097 7.125 2.47726 7.125 2.625C7.125 2.77274 7.0959 2.91903 7.03936 3.05552C6.98283 3.19201 6.89996 3.31603 6.7955 3.4205C6.69103 3.52496 6.56701 3.60783 6.43052 3.66436C6.29403 3.7209 6.14774 3.75 6 3.75C5.85226 3.75 5.70597 3.7209 5.56948 3.66436C5.43299 3.60783 5.30897 3.52496 5.2045 3.4205C5.10004 3.31603 5.01717 3.19201 4.96064 3.05552C4.9041 2.91903 4.875 2.77274 4.875 2.625C4.875 2.47726 4.9041 2.33097 4.96064 2.19448C5.01717 2.05799 5.10004 1.93397 5.2045 1.8295C5.30897 1.72504 5.43299 1.64217 5.56948 1.58564C5.70597 1.5291 5.85226 1.5 6 1.5ZM6 5.25C6.34472 5.25 6.68606 5.1821 7.00454 5.05018C7.32302 4.91827 7.6124 4.72491 7.85616 4.48116C8.09991 4.2374 8.29327 3.94802 8.42518 3.62954C8.5571 3.31106 8.625 2.96972 8.625 2.625C8.625 2.28028 8.5571 1.93894 8.42518 1.62046C8.29327 1.30198 8.09991 1.0126 7.85616 0.768845C7.6124 0.525091 7.32302 0.331735 7.00454 0.199816C6.68606 0.0678976 6.34472 -5.13673e-09 6 0C5.65528 -5.13673e-09 5.31394 0.0678976 4.99546 0.199816C4.67698 0.331735 4.3876 0.525091 4.14384 0.768845C3.90009 1.0126 3.70673 1.30198 3.57482 1.62046C3.4429 1.93894 3.375 2.28028 3.375 2.625C3.375 2.96972 3.4429 3.31106 3.57482 3.62954C3.70673 3.94802 3.90009 4.2374 4.14384 4.48116C4.3876 4.72491 4.67698 4.91827 4.99546 5.05018C5.31394 5.1821 5.65528 5.25 6 5.25ZM0 11.625C0 13.6547 1.2375 15.3938 3 16.125V18.375C3 18.9984 3.50156 19.5 4.125 19.5H7.875C8.49844 19.5 9 18.9984 9 18.375V16.5C9 16.0875 8.6625 15.75 8.25 15.75C7.8375 15.75 7.5 16.0875 7.5 16.5V18H4.5V8.26875C4.62187 8.25469 4.74844 8.25 4.875 8.25H7.125C7.56094 8.25 7.97344 8.32969 8.35312 8.47969C8.7375 8.62969 9.17344 8.4375 9.32344 8.05313C9.47344 7.66875 9.28125 7.23281 8.89688 7.08281C8.34844 6.86719 7.74844 6.75 7.125 6.75H4.875C2.18437 6.75 0 8.93437 0 11.625ZM3 14.4328C2.09531 13.8281 1.5 12.7922 1.5 11.625C1.5 10.4531 2.09531 9.42188 3 8.81719V14.4328ZM24 1.5C24.1477 1.5 24.294 1.5291 24.4305 1.58564C24.567 1.64217 24.691 1.72504 24.7955 1.8295C24.9 1.93397 24.9828 2.05799 25.0394 2.19448C25.0959 2.33097 25.125 2.47726 25.125 2.625C25.125 2.77274 25.0959 2.91903 25.0394 3.05552C24.9828 3.19201 24.9 3.31603 24.7955 3.4205C24.691 3.52496 24.567 3.60783 24.4305 3.66436C24.294 3.7209 24.1477 3.75 24 3.75C23.8523 3.75 23.706 3.7209 23.5695 3.66436C23.433 3.60783 23.309 3.52496 23.2045 3.4205C23.1 3.31603 23.0172 3.19201 22.9606 3.05552C22.9041 2.91903 22.875 2.77274 22.875 2.625C22.875 2.47726 22.9041 2.33097 22.9606 2.19448C23.0172 2.05799 23.1 1.93397 23.2045 1.8295C23.309 1.72504 23.433 1.64217 23.5695 1.58564C23.706 1.5291 23.8523 1.5 24 1.5ZM24 5.25C24.3447 5.25 24.6861 5.1821 25.0045 5.05018C25.323 4.91827 25.6124 4.72491 25.8562 4.48116C26.0999 4.2374 26.2933 3.94802 26.4252 3.62954C26.5571 3.31106 26.625 2.96972 26.625 2.625C26.625 2.28028 26.5571 1.93894 26.4252 1.62046C26.2933 1.30198 26.0999 1.0126 25.8562 0.768845C25.6124 0.525091 25.323 0.331735 25.0045 0.199816C24.6861 0.0678976 24.3447 -5.13673e-09 24 0C23.6553 -5.13673e-09 23.3139 0.0678976 22.9955 0.199816C22.677 0.331735 22.3876 0.525091 22.1438 0.768845C21.9001 1.0126 21.7067 1.30198 21.5748 1.62046C21.4429 1.93894 21.375 2.28028 21.375 2.625C21.375 2.96972 21.4429 3.31106 21.5748 3.62954C21.7067 3.94802 21.9001 4.2374 22.1438 4.48116C22.3876 4.72491 22.677 4.91827 22.9955 5.05018C23.3139 5.1821 23.6553 5.25 24 5.25ZM30 11.625C30 8.93437 27.8156 6.75 25.125 6.75H22.875C22.2516 6.75 21.6516 6.86719 21.1031 7.08281C20.7188 7.23281 20.5266 7.66875 20.6766 8.05313C20.8266 8.4375 21.2625 8.62969 21.6469 8.47969C22.0266 8.32969 22.4391 8.25 22.875 8.25H25.125C25.2516 8.25 25.3781 8.25469 25.5 8.26875V18H22.5V16.5C22.5 16.0875 22.1625 15.75 21.75 15.75C21.3375 15.75 21 16.0875 21 16.5V18.375C21 18.9984 21.5016 19.5 22.125 19.5H25.875C26.4984 19.5 27 18.9984 27 18.375V16.125C28.7625 15.3891 30 13.6547 30 11.625ZM27 14.4328V8.81719C27.9047 9.42188 28.5 10.4531 28.5 11.625C28.5 12.7922 27.9047 13.8281 27 14.4328ZM13.5 3C13.5 2.60218 13.658 2.22064 13.9393 1.93934C14.2206 1.65804 14.6022 1.5 15 1.5C15.3978 1.5 15.7794 1.65804 16.0607 1.93934C16.342 2.22064 16.5 2.60218 16.5 3C16.5 3.39782 16.342 3.77936 16.0607 4.06066C15.7794 4.34196 15.3978 4.5 15 4.5C14.6022 4.5 14.2206 4.34196 13.9393 4.06066C13.658 3.77936 13.5 3.39782 13.5 3ZM18 3C18 2.20435 17.6839 1.44129 17.1213 0.87868C16.5587 0.316071 15.7956 0 15 0C14.2044 0 13.4413 0.316071 12.8787 0.87868C12.3161 1.44129 12 2.20435 12 3C12 3.79565 12.3161 4.55871 12.8787 5.12132C13.4413 5.68393 14.2044 6 15 6C15.7956 6 16.5587 5.68393 17.1213 5.12132C17.6839 4.55871 18 3.79565 18 3ZM14.25 7.5C11.5594 7.5 9.375 9.68437 9.375 12.375C9.375 14.2547 10.4391 15.8859 12 16.7016V19.875C12 20.4984 12.5016 21 13.125 21H16.875C17.4984 21 18 20.4984 18 19.875V16.7016C19.5609 15.8906 20.625 14.2594 20.625 12.375C20.625 9.68437 18.4406 7.5 15.75 7.5H14.25ZM12 9.85781V14.8875C11.3109 14.2688 10.875 13.3687 10.875 12.3703C10.875 11.3719 11.3109 10.4719 12 9.85312V9.85781ZM13.5 19.5V9.08438C13.7391 9.02812 13.9922 9 14.25 9H15.75C16.0078 9 16.2609 9.02812 16.5 9.08438V19.5H13.5ZM18 14.8922V9.8625C18.6891 10.4812 19.125 11.3766 19.125 12.3797C19.125 13.3781 18.6891 14.2781 18 14.8969V14.8922Z" fill="black"/>
</svg>
