<svg width="27" height="24" viewBox="0 0 27 24" fill="none" xmlns="http://www.w3.org/2000/svg">
<path d="M12.75 1.5C14.3813 1.5 15.7734 2.54063 16.2891 3.99844C16.425 4.3875 16.8562 4.59375 17.2453 4.45781C17.6344 4.32188 17.8406 3.89062 17.7047 3.50156C16.9828 1.4625 15.0375 0 12.75 0C10.1484 0 7.9875 1.89375 7.57031 4.37813C7.5 4.78594 7.77656 5.175 8.18438 5.24063C8.59219 5.30625 8.98125 5.03437 9.04688 4.62656C9.35156 2.85 10.8938 1.5 12.75 1.5ZM2.5875 8.92031C2.95781 8.73281 3.10781 8.28281 2.925 7.9125C2.74219 7.54219 2.2875 7.39219 1.91719 7.575L1.69688 7.6875C0.65625 8.20781 0 9.27188 0 10.4344C0 12.1078 1.33594 13.4672 3 13.5C3 15.9563 4.18125 18.1313 6 19.5V21.75C6 22.9922 7.00781 24 8.25 24H9.75C10.9922 24 12 22.9922 12 21.75V21H15V21.75C15 22.9922 16.0078 24 17.25 24H18.75C19.9922 24 21 22.9922 21 21.75V20.3766C22.1953 19.8563 23.2266 19.0312 24 18H25.5C26.3297 18 27 17.3297 27 16.5V12C27 11.1703 26.3297 10.5 25.5 10.5H24.8766C24.375 9.34688 23.5922 8.34844 22.6125 7.58438L22.95 6.4125C23.2219 5.45156 22.5 4.5 21.5062 4.5H21.375C19.9453 4.5 18.6469 5.07188 17.7 6H10.5C6.87187 6 3.84375 8.57812 3.15 12H3.06563C2.20312 12 1.5 11.2969 1.5 10.4344C1.5 9.83906 1.8375 9.3 2.36719 9.03281L2.5875 8.925V8.92031ZM19.875 13.5C20.1734 13.5 20.4595 13.3815 20.6705 13.1705C20.8815 12.9595 21 12.6734 21 12.375C21 12.0766 20.8815 11.7905 20.6705 11.5795C20.4595 11.3685 20.1734 11.25 19.875 11.25C19.5766 11.25 19.2905 11.3685 19.0795 11.5795C18.8685 11.7905 18.75 12.0766 18.75 12.375C18.75 12.6734 18.8685 12.9595 19.0795 13.1705C19.2905 13.3815 19.5766 13.5 19.875 13.5ZM18.5812 7.25156C19.2656 6.48281 20.2641 6 21.375 6H21.5062L21.0281 7.67813C20.9391 7.99219 21.0609 8.325 21.3328 8.50781C22.4016 9.22031 23.2266 10.2703 23.6625 11.4984C23.7703 11.7984 24.0516 12 24.3703 12H25.5047V16.5H23.6203C23.3719 16.5 23.1375 16.6266 22.9969 16.8328C22.2844 17.9016 21.2344 18.7266 20.0062 19.1578C19.7016 19.2656 19.5 19.5469 19.5 19.8656V21.75C19.5 22.1625 19.1625 22.5 18.75 22.5H17.25C16.8375 22.5 16.5 22.1625 16.5 21.75V20.25C16.5 19.8375 16.1625 19.5 15.75 19.5H11.25C10.8375 19.5 10.5 19.8375 10.5 20.25V21.75C10.5 22.1625 10.1625 22.5 9.75 22.5H8.25C7.8375 22.5 7.5 22.1625 7.5 21.75V19.1156C7.5 18.8672 7.37344 18.6328 7.16719 18.4922C5.55937 17.4141 4.5 15.5813 4.5 13.5C4.5 10.1859 7.18594 7.5 10.5 7.5H18H18.0187C18.2344 7.5 18.4359 7.41094 18.5766 7.25156H18.5812Z" fill="black"/>
</svg>
