<svg width="21" height="24" viewBox="0 0 21 24" fill="none" xmlns="http://www.w3.org/2000/svg">
<path d="M1.99687 0.0101616C2.40469 0.0804741 2.68125 0.464849 2.61562 0.872662L1.53281 7.37891C1.51406 7.50079 1.5 7.62266 1.5 7.74922V8.25079C1.5 9.49297 2.50781 10.5008 3.75 10.5008H5.25H6.75C7.99219 10.5008 9 9.49297 9 8.25079V7.74922C9 7.62735 8.99063 7.50079 8.96719 7.37891L7.88437 0.872662C7.81406 0.464849 8.09062 0.0757866 8.50312 0.0101616C8.91562 -0.0554634 9.3 0.216412 9.36563 0.628912L10.4484 7.13516C10.4812 7.33672 10.5 7.54297 10.5 7.75391V8.25547C10.5 10.3273 8.82187 12.0055 6.75 12.0055H6V23.2555C6 23.668 5.6625 24.0055 5.25 24.0055C4.8375 24.0055 4.5 23.668 4.5 23.2555V12.0055H3.75C1.67812 12.0055 0 10.3273 0 8.25547V7.75391C0 7.54766 0.01875 7.34141 0.0515625 7.13516L1.13438 0.628912C1.20469 0.221099 1.58906 -0.0554634 1.99687 0.0101616ZM4.1625 0.000786555C4.575 0.0195366 4.89375 0.375786 4.875 0.788286L4.5 8.28829C4.48125 8.70079 4.125 9.01954 3.7125 9.00079C3.3 8.98204 2.98125 8.62579 3 8.21329L3.375 0.713287C3.39844 0.300787 3.75 -0.0179634 4.1625 0.000786555ZM6.3375 0.000786555C6.75 -0.0179634 7.10156 0.300787 7.125 0.713287L7.5 8.21329C7.51875 8.62579 7.2 8.97735 6.7875 9.00079C6.375 9.02422 6.02344 8.70079 6 8.28829L5.625 0.788286C5.60625 0.375786 5.925 0.0242241 6.3375 0.000786555ZM15 8.25079V13.5008C15 14.3305 15.6703 15.0008 16.5 15.0008H19.5V1.51016L19.4906 1.51485C19.4109 1.5336 19.1766 1.58516 18.8203 1.73047C18.3469 1.92266 17.7656 2.24141 17.2031 2.72891C16.1156 3.6711 15 5.3211 15 8.25079ZM19.5 0.000786555C20.3297 0.000786555 21 0.671099 21 1.50079V15.0008V15.7508V16.5008V23.2508C21 23.6633 20.6625 24.0008 20.25 24.0008C19.8375 24.0008 19.5 23.6633 19.5 23.2508V16.5008H16.5C14.8453 16.5008 13.5 15.1555 13.5 13.5008V8.25079C13.5 1.50079 18.75 0.000786555 19.5 0.000786555Z" fill="black"/>
</svg>
