<svg width="24" height="24" viewBox="0 0 24 24" fill="none" xmlns="http://www.w3.org/2000/svg">
<path d="M12.3703 0.0984375C12.1406 -0.0328125 11.8594 -0.0328125 11.6297 0.0984375L0.740625 6.26719C0.28125 6.52969 0 7.0125 0 7.5375C0 8.34375 0.65625 9 1.4625 9H22.5422C23.3484 9 24.0047 8.34375 24.0047 7.5375C24.0047 7.0125 23.7234 6.525 23.2641 6.26719L12.3703 0.0984375ZM12 1.6125L22.3922 7.5H1.60781L12 1.6125ZM3 16.5C2.5875 16.5 2.25 16.8375 2.25 17.25C2.25 17.6625 2.5875 18 3 18H21C21.4125 18 21.75 17.6625 21.75 17.25C21.75 16.8375 21.4125 16.5 21 16.5V10.5H19.5V16.5H15.75V10.5H14.25V16.5H9.75V10.5H8.25V16.5H4.5V10.5H3V16.5ZM1.125 20.25C1.125 20.6625 1.4625 21 1.875 21H22.125C22.5375 21 22.875 20.6625 22.875 20.25C22.875 19.8375 22.5375 19.5 22.125 19.5H1.875C1.4625 19.5 1.125 19.8375 1.125 20.25ZM0 23.25C0 23.6625 0.3375 24 0.75 24H23.25C23.6625 24 24 23.6625 24 23.25C24 22.8375 23.6625 22.5 23.25 22.5H0.75C0.3375 22.5 0 22.8375 0 23.25Z" fill="black"/>
</svg>
