<svg width="24" height="24" viewBox="0 0 24 24" fill="none" xmlns="http://www.w3.org/2000/svg">
<path d="M4.45312 0.488453C4.59844 0.877515 4.40156 1.30877 4.0125 1.45408L1.9875 2.21345C1.69219 2.32127 1.5 2.60252 1.5 2.91658V9.00095C1.5 12.315 4.18594 15.001 7.5 15.001C10.8141 15.001 13.5 12.315 13.5 9.00095V2.91658C13.5 2.60252 13.3078 2.32595 13.0125 2.21345L10.9875 1.45408C10.5984 1.30877 10.4016 0.877515 10.5469 0.488453C10.6922 0.0993901 11.1234 -0.0974849 11.5125 0.0478276L13.5375 0.807203C14.4141 1.13533 14.9953 1.97439 14.9953 2.91189L15 9.00095C15 12.8916 12.0422 16.0885 8.25 16.4635V16.501C8.25 19.815 10.9359 22.501 14.25 22.501C17.5641 22.501 20.25 19.815 20.25 16.501V11.9072C18.9562 11.5744 18 10.3978 18 9.00095C18 7.34627 19.3453 6.00095 21 6.00095C22.6547 6.00095 24 7.34627 24 9.00095C24 10.3978 23.0438 11.5744 21.75 11.9072V16.501C21.75 20.6447 18.3937 24.001 14.25 24.001C10.1062 24.001 6.75 20.6447 6.75 16.501V16.4635C2.95781 16.0885 0 12.8916 0 9.00095V2.91658C0 1.97908 0.58125 1.14002 1.45781 0.81189L3.4875 0.0478276C3.87656 -0.0974849 4.30781 0.0993901 4.45312 0.488453ZM21 10.501C21.3978 10.501 21.7794 10.3429 22.0607 10.0616C22.342 9.78031 22.5 9.39878 22.5 9.00095C22.5 8.60313 22.342 8.2216 22.0607 7.94029C21.7794 7.65899 21.3978 7.50095 21 7.50095C20.6022 7.50095 20.2206 7.65899 19.9393 7.94029C19.658 8.2216 19.5 8.60313 19.5 9.00095C19.5 9.39878 19.658 9.78031 19.9393 10.0616C20.2206 10.3429 20.6022 10.501 21 10.501Z" fill="black"/>
</svg>
