<svg width="30" height="24" viewBox="0 0 30 24" fill="none" xmlns="http://www.w3.org/2000/svg">
<path d="M18.9422 1.74844C19.2422 1.41562 19.7578 1.41562 20.0578 1.74844L25.2422 7.50937H22.5C22.2094 7.50937 21.9469 7.67813 21.8203 7.93594C21.6938 8.19375 21.7359 8.50781 21.9188 8.73281L26.9906 14.9438C26.9953 14.9531 27 14.9578 27 14.9672C27 14.9906 26.9812 15.0094 26.9578 15.0094H23.25C22.9547 15.0094 22.6828 15.1828 22.5656 15.4547C22.4484 15.7266 22.5 16.0453 22.6969 16.2609L28.4062 22.5094H19.425C19.3125 23.0625 19.0781 23.5734 18.75 24.0094H28.575C29.3625 24.0094 30 23.3719 30 22.5844C30 22.2281 29.8687 21.8859 29.625 21.6234L24.9516 16.5094H26.9578C27.8062 16.5094 28.5 15.8203 28.5 14.9672C28.5 14.6109 28.3781 14.2688 28.1531 13.9922L24.0797 9.00937H25.7063C26.4188 9.00937 27 8.43281 27 7.71562C27 7.39687 26.8828 7.0875 26.6672 6.85312L21.1734 0.745313C20.2781 -0.248438 18.7219 -0.248438 17.8266 0.745313L13.3547 5.71406L14.4609 6.72656L18.9422 1.74844ZM1.5 13.3313C1.5 12.9094 1.67813 12.5109 1.9875 12.225L7.9875 6.72656C8.55937 6.20156 9.44063 6.20156 10.0125 6.72656L16.0125 12.225C16.3219 12.5109 16.5 12.9094 16.5 13.3313V21.0094C16.5 21.8391 15.8297 22.5094 15 22.5094H3C2.17031 22.5094 1.5 21.8391 1.5 21.0094V13.3313ZM0 21.0094C0 22.6641 1.34531 24.0094 3 24.0094H15C16.6547 24.0094 18 22.6641 18 21.0094V13.3313C18 12.4922 17.6484 11.6859 17.025 11.1187L11.025 5.62031C9.87656 4.57031 8.11875 4.57031 6.97031 5.62031L0.975 11.1187C0.351562 11.6859 0 12.4875 0 13.3313V21.0094ZM10.5 13.5094V16.5094H7.5V13.5094H10.5ZM7.5 12.0094C6.67031 12.0094 6 12.6797 6 13.5094V16.5094C6 17.3391 6.67031 18.0094 7.5 18.0094H10.5C11.3297 18.0094 12 17.3391 12 16.5094V13.5094C12 12.6797 11.3297 12.0094 10.5 12.0094H7.5Z" fill="black"/>
</svg>
