<svg width="27" height="24" viewBox="0 0 27 24" fill="none" xmlns="http://www.w3.org/2000/svg">
<path d="M14.1583 0.75C14.1583 0.3375 13.8208 0 13.4083 0C12.9958 0 12.6583 0.3375 12.6583 0.75V2.26875C6.13332 2.60625 0.794256 7.3125 0.00675591 13.4016C-0.0869941 14.1328 0.817693 14.5453 1.30988 13.9969C1.96613 13.2656 3.24582 12.75 4.40832 12.75C6.22238 12.75 7.73644 14.0391 8.08332 15.7547C8.16301 16.1625 8.49113 16.5 8.90832 16.5C9.32551 16.5 9.64894 16.1625 9.73332 15.7547C10.0802 14.0391 11.5943 12.75 13.4083 12.75C15.2224 12.75 16.7364 14.0391 17.0833 15.7547C17.163 16.1625 17.4911 16.5 17.9083 16.5C18.3255 16.5 18.6489 16.1625 18.7333 15.7547C19.0802 14.0391 20.5943 12.75 22.4083 12.75C23.5708 12.75 24.8505 13.2656 25.5068 14.0016C25.9989 14.55 26.9036 14.1375 26.8099 13.4062C26.0224 7.3125 20.6833 2.60625 14.1583 2.26875V0.75ZM17.9083 13.7953C16.9896 12.2719 15.3208 11.25 13.4083 11.25C11.4958 11.25 9.82707 12.2719 8.90832 13.7953C7.98957 12.2719 6.32082 11.25 4.40832 11.25C3.58332 11.25 2.68801 11.4422 1.89113 11.8031C3.34426 7.17188 7.92394 3.75 13.4083 3.75C18.8927 3.75 23.4724 7.17188 24.9255 11.8031C24.1286 11.4422 23.2333 11.25 22.4083 11.25C20.4958 11.25 18.8271 12.2719 17.9083 13.7953ZM12.6583 14.3766V20.9297C12.6583 21.7969 11.9552 22.4953 11.0927 22.4953C10.4974 22.4953 9.95832 22.1578 9.69113 21.6281L9.58332 21.4078C9.39582 21.0375 8.94582 20.8875 8.57551 21.0703C8.20519 21.2531 8.05519 21.7078 8.23801 22.0781L8.34582 22.2984C8.86613 23.3438 9.93019 24 11.0927 24C12.7849 24 14.1583 22.6266 14.1583 20.9344V14.3812C13.9239 14.2969 13.6708 14.2547 13.4083 14.2547C13.1458 14.2547 12.8927 14.3016 12.6583 14.3812V14.3766Z" fill="black"/>
</svg>
