<svg width="24" height="24" viewBox="0 0 24 24" fill="none" xmlns="http://www.w3.org/2000/svg">
<path d="M21.1922 7.69687C20.6438 8.57344 20.0203 9.40781 19.5 10.0594C18.9797 9.40781 18.3562 8.57344 17.8078 7.69687C16.9734 6.36094 16.5 5.2125 16.5 4.5C16.5 2.84531 17.8453 1.5 19.5 1.5C21.1547 1.5 22.5 2.84531 22.5 4.5C22.5 5.2125 22.0266 6.36094 21.1922 7.69687ZM20.0344 11.7656C21.2297 10.3641 24 6.85313 24 4.5C24 2.01562 21.9844 0 19.5 0C17.0156 0 15 2.01562 15 4.5C15 6.31406 16.6406 8.80781 17.9391 10.5H15.75C13.6781 10.5 12 12.1781 12 14.25C12 16.3219 13.6781 18 15.75 18H20.25C21.4922 18 22.5 19.0078 22.5 20.25C22.5 21.4922 21.4922 22.5 20.25 22.5H7.78125C7.34062 23.0766 6.90938 23.5875 6.54375 24H20.25C22.3219 24 24 22.3219 24 20.25C24 18.1781 22.3219 16.5 20.25 16.5H15.75C14.5078 16.5 13.5 15.4922 13.5 14.25C13.5 13.0078 14.5078 12 15.75 12H19.3547C19.5938 12.0516 19.8562 11.9719 20.0344 11.7656ZM6.19687 19.5563C5.64844 20.3906 5.02031 21.1734 4.5 21.7781C3.97969 21.1734 3.35156 20.3906 2.80312 19.5563C1.96406 18.2953 1.5 17.2031 1.5 16.5C1.5 14.8453 2.84531 13.5 4.5 13.5C6.15469 13.5 7.5 14.8453 7.5 16.5C7.5 17.2031 7.03594 18.2953 6.19687 19.5563ZM5.84062 22.5141C7.16719 20.9391 9 18.4125 9 16.5C9 14.0156 6.98438 12 4.5 12C2.01562 12 0 14.0156 0 16.5C0 18.8672 2.80312 22.1719 3.98438 23.4562C4.26562 23.7609 4.73438 23.7609 5.01094 23.4562C5.08594 23.3766 5.16563 23.2875 5.25 23.1937C5.33437 23.1 5.42813 22.9969 5.52188 22.8844C5.625 22.7672 5.72813 22.6453 5.83594 22.5141H5.84062ZM20.625 4.5C20.625 4.20163 20.5065 3.91548 20.2955 3.7045C20.0845 3.49353 19.7984 3.375 19.5 3.375C19.2016 3.375 18.9155 3.49353 18.7045 3.7045C18.4935 3.91548 18.375 4.20163 18.375 4.5C18.375 4.79837 18.4935 5.08452 18.7045 5.2955C18.9155 5.50647 19.2016 5.625 19.5 5.625C19.7984 5.625 20.0845 5.50647 20.2955 5.2955C20.5065 5.08452 20.625 4.79837 20.625 4.5ZM4.5 17.625C4.79837 17.625 5.08452 17.5065 5.2955 17.2955C5.50647 17.0845 5.625 16.7984 5.625 16.5C5.625 16.2016 5.50647 15.9155 5.2955 15.7045C5.08452 15.4935 4.79837 15.375 4.5 15.375C4.20163 15.375 3.91548 15.4935 3.7045 15.7045C3.49353 15.9155 3.375 16.2016 3.375 16.5C3.375 16.7984 3.49353 17.0845 3.7045 17.2955C3.91548 17.5065 4.20163 17.625 4.5 17.625Z" fill="black"/>
</svg>
