<svg width="18" height="3" viewBox="0 0 18 3" fill="none" xmlns="http://www.w3.org/2000/svg">
<path d="M18 1.5C18 1.89782 17.842 2.27936 17.5607 2.56066C17.2794 2.84196 16.8978 3 16.5 3C16.1022 3 15.7206 2.84196 15.4393 2.56066C15.158 2.27936 15 1.89782 15 1.5C15 1.10218 15.158 0.720645 15.4393 0.43934C15.7206 0.158036 16.1022 0 16.5 0C16.8978 0 17.2794 0.158036 17.5607 0.43934C17.842 0.720645 18 1.10218 18 1.5ZM10.5 1.5C10.5 1.89782 10.342 2.27936 10.0607 2.56066C9.77936 2.84196 9.39783 3 9 3C8.60217 3 8.22064 2.84196 7.93934 2.56066C7.65804 2.27936 7.5 1.89782 7.5 1.5C7.5 1.10218 7.65804 0.720645 7.93934 0.43934C8.22064 0.158036 8.60217 0 9 0C9.39783 0 9.77936 0.158036 10.0607 0.43934C10.342 0.720645 10.5 1.10218 10.5 1.5ZM1.5 3C1.10218 3 0.720644 2.84196 0.43934 2.56066C0.158035 2.27936 0 1.89782 0 1.5C0 1.10218 0.158035 0.720645 0.43934 0.43934C0.720644 0.158036 1.10218 0 1.5 0C1.89782 0 2.27936 0.158036 2.56066 0.43934C2.84196 0.720645 3 1.10218 3 1.5C3 1.89782 2.84196 2.27936 2.56066 2.56066C2.27936 2.84196 1.89782 3 1.5 3Z" fill="black"/>
</svg>
