<svg width="21" height="21" viewBox="0 0 21 21" fill="none" xmlns="http://www.w3.org/2000/svg">
<path d="M7.125 1.5C7.27274 1.5 7.41903 1.5291 7.55552 1.58564C7.69201 1.64217 7.81603 1.72504 7.9205 1.8295C8.02496 1.93397 8.10783 2.05799 8.16436 2.19448C8.2209 2.33097 8.25 2.47726 8.25 2.625C8.25 2.77274 8.2209 2.91903 8.16436 3.05552C8.10783 3.19201 8.02496 3.31603 7.9205 3.4205C7.81603 3.52496 7.69201 3.60783 7.55552 3.66436C7.41903 3.7209 7.27274 3.75 7.125 3.75C6.97726 3.75 6.83097 3.7209 6.69448 3.66436C6.55799 3.60783 6.43397 3.52496 6.3295 3.4205C6.22504 3.31603 6.14217 3.19201 6.08564 3.05552C6.0291 2.91903 6 2.77274 6 2.625C6 2.47726 6.0291 2.33097 6.08564 2.19448C6.14217 2.05799 6.22504 1.93397 6.3295 1.8295C6.43397 1.72504 6.55799 1.64217 6.69448 1.58564C6.83097 1.5291 6.97726 1.5 7.125 1.5ZM7.125 5.25C7.46972 5.25 7.81106 5.1821 8.12954 5.05018C8.44802 4.91827 8.7374 4.72491 8.98116 4.48116C9.22491 4.2374 9.41827 3.94802 9.55018 3.62954C9.6821 3.31106 9.75 2.96972 9.75 2.625C9.75 2.28028 9.6821 1.93894 9.55018 1.62046C9.41827 1.30198 9.22491 1.0126 8.98116 0.768845C8.7374 0.525091 8.44802 0.331735 8.12954 0.199816C7.81106 0.0678976 7.46972 -5.13673e-09 7.125 0C6.78028 -5.13673e-09 6.43894 0.0678976 6.12046 0.199816C5.80198 0.331735 5.5126 0.525091 5.26884 0.768845C5.02509 1.0126 4.83173 1.30198 4.69982 1.62046C4.5679 1.93894 4.5 2.28028 4.5 2.625C4.5 2.96972 4.5679 3.31106 4.69982 3.62954C4.83173 3.94802 5.02509 4.2374 5.26884 4.48116C5.5126 4.72491 5.80198 4.91827 6.12046 5.05018C6.43894 5.1821 6.78028 5.25 7.125 5.25ZM8.5875 8.68125C8.94844 7.95469 9.68906 7.5 10.5 7.5C11.3109 7.5 12.0516 7.95937 12.4125 8.68125L13.9969 11.8453C14.3859 12.6188 15.0797 13.0594 15.7219 13.2516C17.0391 13.6453 18 14.8641 18 16.3078C18 18.0703 16.575 19.4953 14.8125 19.4953C14.1375 19.4953 13.5141 19.2844 12.9984 18.9281C12.2484 18.4078 11.2875 18.2391 10.5 18.2391C9.7125 18.2391 8.75156 18.4078 8.00156 18.9281C7.48594 19.2844 6.8625 19.4953 6.1875 19.4953C4.425 19.4953 3 18.0703 3 16.3078C3 14.8641 3.95625 13.6453 5.27812 13.2516C5.92031 13.0594 6.61875 12.6188 7.00312 11.8453L8.5875 8.68125ZM5.6625 11.175C5.50313 11.4984 5.19375 11.7141 4.85156 11.8172C2.91094 12.3938 1.5 14.1891 1.5 16.3125C1.5 18.9 3.6 21 6.1875 21C7.18125 21 8.1 20.6906 8.85469 20.1656C9.67031 19.6031 11.3297 19.6031 12.1406 20.1656C12.9 20.6906 13.8188 21 14.8125 21C17.4 21 19.5 18.9 19.5 16.3125C19.5 14.1891 18.0891 12.3938 16.1531 11.8172C15.8063 11.7141 15.5016 11.4984 15.3422 11.175L13.7578 8.01094C13.1391 6.77812 11.8828 6 10.5 6C9.11719 6 7.86094 6.77812 7.24219 8.01094L5.65781 11.175H5.6625ZM12.75 2.625C12.75 2.32663 12.8685 2.04048 13.0795 1.8295C13.2905 1.61853 13.5766 1.5 13.875 1.5C14.1734 1.5 14.4595 1.61853 14.6705 1.8295C14.8815 2.04048 15 2.32663 15 2.625C15 2.92337 14.8815 3.20952 14.6705 3.4205C14.4595 3.63147 14.1734 3.75 13.875 3.75C13.5766 3.75 13.2905 3.63147 13.0795 3.4205C12.8685 3.20952 12.75 2.92337 12.75 2.625ZM16.5 2.625C16.5 1.92881 16.2234 1.26113 15.7312 0.768845C15.2389 0.276562 14.5712 0 13.875 0C13.1788 0 12.5111 0.276562 12.0188 0.768845C11.5266 1.26113 11.25 1.92881 11.25 2.625C11.25 3.32119 11.5266 3.98887 12.0188 4.48116C12.5111 4.97344 13.1788 5.25 13.875 5.25C14.5712 5.25 15.2389 4.97344 15.7312 4.48116C16.2234 3.98887 16.5 3.32119 16.5 2.625ZM18.375 6.75C18.5227 6.75 18.669 6.7791 18.8055 6.83564C18.942 6.89217 19.066 6.97504 19.1705 7.0795C19.275 7.18397 19.3578 7.30799 19.4144 7.44448C19.4709 7.58097 19.5 7.72726 19.5 7.875C19.5 8.02274 19.4709 8.16903 19.4144 8.30552C19.3578 8.44201 19.275 8.56603 19.1705 8.6705C19.066 8.77496 18.942 8.85783 18.8055 8.91436C18.669 8.9709 18.5227 9 18.375 9C18.2273 9 18.081 8.9709 17.9445 8.91436C17.808 8.85783 17.684 8.77496 17.5795 8.6705C17.475 8.56603 17.3922 8.44201 17.3356 8.30552C17.2791 8.16903 17.25 8.02274 17.25 7.875C17.25 7.72726 17.2791 7.58097 17.3356 7.44448C17.3922 7.30799 17.475 7.18397 17.5795 7.0795C17.684 6.97504 17.808 6.89217 17.9445 6.83564C18.081 6.7791 18.2273 6.75 18.375 6.75ZM18.375 10.5C19.0712 10.5 19.7389 10.2234 20.2312 9.73116C20.7234 9.23887 21 8.57119 21 7.875C21 7.17881 20.7234 6.51113 20.2312 6.01884C19.7389 5.52656 19.0712 5.25 18.375 5.25C17.6788 5.25 17.0111 5.52656 16.5188 6.01884C16.0266 6.51113 15.75 7.17881 15.75 7.875C15.75 8.57119 16.0266 9.23887 16.5188 9.73116C17.0111 10.2234 17.6788 10.5 18.375 10.5ZM1.5 7.875C1.5 7.72726 1.5291 7.58097 1.58564 7.44448C1.64217 7.30799 1.72504 7.18397 1.8295 7.0795C1.93397 6.97504 2.05799 6.89217 2.19448 6.83564C2.33097 6.7791 2.47726 6.75 2.625 6.75C2.77274 6.75 2.91903 6.7791 3.05552 6.83564C3.19201 6.89217 3.31603 6.97504 3.4205 7.0795C3.52496 7.18397 3.60783 7.30799 3.66436 7.44448C3.7209 7.58097 3.75 7.72726 3.75 7.875C3.75 8.02274 3.7209 8.16903 3.66436 8.30552C3.60783 8.44201 3.52496 8.56603 3.4205 8.6705C3.31603 8.77496 3.19201 8.85783 3.05552 8.91436C2.91903 8.9709 2.77274 9 2.625 9C2.47726 9 2.33097 8.9709 2.19448 8.91436C2.05799 8.85783 1.93397 8.77496 1.8295 8.6705C1.72504 8.56603 1.64217 8.44201 1.58564 8.30552C1.5291 8.16903 1.5 8.02274 1.5 7.875ZM5.25 7.875C5.25 7.17881 4.97344 6.51113 4.48116 6.01884C3.98887 5.52656 3.32119 5.25 2.625 5.25C1.92881 5.25 1.26113 5.52656 0.768845 6.01884C0.276562 6.51113 0 7.17881 0 7.875C0 8.57119 0.276562 9.23887 0.768845 9.73116C1.26113 10.2234 1.92881 10.5 2.625 10.5C3.32119 10.5 3.98887 10.2234 4.48116 9.73116C4.97344 9.23887 5.25 8.57119 5.25 7.875Z" fill="black"/>
</svg>
