<svg width="27" height="24" viewBox="0 0 27 24" fill="none" xmlns="http://www.w3.org/2000/svg">
<path d="M13.9978 0.186328C13.7166 -0.0621094 13.29 -0.0621094 13.0041 0.186328L0.254087 11.4363C-0.055288 11.7082 -0.0881005 12.1863 0.188462 12.4957C0.465025 12.8051 0.938462 12.8379 1.24784 12.5613L3.00096 11.0145V20.2488C3.00096 22.3207 4.67909 23.9988 6.75096 23.9988H20.251C22.3228 23.9988 24.001 22.3207 24.001 20.2488V11.0145L25.7541 12.5613C26.0635 12.8332 26.5369 12.8051 26.8135 12.4957C27.09 12.1863 27.0572 11.7129 26.7478 11.4363L13.9978 0.186328ZM4.50096 20.2488V9.68789L13.501 1.74727L22.501 9.68789V20.2488C22.501 21.491 21.4932 22.4988 20.251 22.4988H17.251V14.9988C17.251 14.1691 16.5807 13.4988 15.751 13.4988H11.251C10.4213 13.4988 9.75096 14.1691 9.75096 14.9988V22.4988H6.75096C5.50877 22.4988 4.50096 21.491 4.50096 20.2488ZM11.251 22.4988V14.9988H15.751V22.4988H11.251Z" fill="black"/>
</svg>
