<svg width="30" height="24" viewBox="0 0 30 24" fill="none" xmlns="http://www.w3.org/2000/svg">
<path d="M9.05156 0.999451C9.19219 0.610388 8.98594 0.179138 8.59687 0.0432008C8.20781 -0.0927367 7.77656 0.108826 7.64062 0.497888L6.77344 2.94476L5.9625 0.511951C5.83125 0.122888 5.40469 -0.0927367 5.01094 0.0385133C4.61719 0.169763 4.40625 0.596326 4.5375 0.990076L5.29688 3.2682L3.06563 1.64633C2.73281 1.40258 2.25938 1.47758 2.01562 1.81039C1.77188 2.1432 1.84687 2.61664 2.17969 2.86039L4.44375 4.50101H3C1.34531 4.50101 0 5.84633 0 7.50101V21.001C0 22.6557 1.34531 24.001 3 24.001H9.40313C9.15 23.5604 9 23.0494 9 22.501H3C2.17031 22.501 1.5 21.8307 1.5 21.001V7.50101C1.5 6.67133 2.17031 6.00101 3 6.00101H10.5C11.1328 6.00101 11.6766 6.39476 11.8969 6.95258C12.1641 6.48383 12.5109 6.06664 12.9094 5.71508C12.3656 4.97914 11.4891 4.50101 10.5 4.50101H9.05625L11.3156 2.8557C11.6484 2.61195 11.7234 2.1432 11.4797 1.8057C11.2359 1.4682 10.7672 1.39789 10.4297 1.64164L8.26406 3.22133L9.05156 0.999451ZM16.9594 8.09164L18.8156 10.501H18.375H15.75C14.9203 10.501 14.25 9.8307 14.25 9.00101C14.25 8.17601 14.925 7.50101 15.7594 7.50101C16.2281 7.50101 16.6781 7.72133 16.9594 8.09164ZM12.75 9.00101C12.75 9.54945 12.8953 10.0604 13.1531 10.501H12.75C11.5078 10.501 10.5 11.5088 10.5 12.751V21.751C10.5 22.9932 11.5078 24.001 12.75 24.001H27.75C28.9922 24.001 30 22.9932 30 21.751V12.751C30 11.5088 28.9922 10.501 27.75 10.501H27.3469C27.6 10.0604 27.75 9.54945 27.75 9.00101C27.75 7.34164 26.3953 6.00101 24.7406 6.00101C23.8078 6.00101 22.9219 6.43226 22.35 7.17758L20.25 9.91039L18.15 7.17758C17.5781 6.43695 16.6922 6.00101 15.7594 6.00101C14.1047 6.00101 12.75 7.34164 12.75 9.00101ZM12 12.751C12 12.3385 12.3375 12.001 12.75 12.001H15.75H18.375H19.5V16.501H12V12.751ZM12 21.751V18.001H19.5V22.501H12.75C12.3375 22.501 12 22.1635 12 21.751ZM28.5 21.751C28.5 22.1635 28.1625 22.501 27.75 22.501H21V18.001H28.5V21.751ZM28.5 12.751V16.501H21V12.001H22.125H24.75H27.75C28.1625 12.001 28.5 12.3385 28.5 12.751ZM22.125 10.501H21.6844L23.5406 8.09164C23.8266 7.72133 24.2719 7.50101 24.7406 7.50101C25.5703 7.50101 26.25 8.17601 26.25 9.00101C26.25 9.8307 25.5797 10.501 24.75 10.501H22.125Z" fill="black"/>
</svg>
