<svg width="30" height="21" viewBox="0 0 30 21" fill="none" xmlns="http://www.w3.org/2000/svg">
<path d="M14.25 0C13.8375 0 13.5 0.3375 13.5 0.75C13.5 1.1625 13.8375 1.5 14.25 1.5H16.0453L18.4125 6H10.4719L8.89219 3.36563C8.75625 3.14063 8.5125 3 8.25 3H5.25C4.8375 3 4.5 3.3375 4.5 3.75C4.5 4.1625 4.8375 4.5 5.25 4.5H7.82344L9.23438 6.85312L7.99219 9.34219C7.36875 9.12187 6.69844 9.00469 6 9.00469C2.68594 9 0 11.6859 0 15C0 18.3141 2.68594 21 6 21C9.06094 21 11.5828 18.7078 11.9531 15.75H15C15.2766 15.75 15.525 15.6 15.6562 15.3609L19.5656 8.19375L20.5594 10.0828C19.0125 11.1656 18 12.9656 18 15C18 18.3141 20.6859 21 24 21C27.3141 21 30 18.3141 30 15C30 11.6859 27.3141 9 24 9C23.2594 9 22.5469 9.13594 21.8906 9.37969L17.2687 0.6C17.0766 0.229687 16.6922 0 16.275 0H14.25ZM21.2719 11.4234L23.3391 15.3516C23.5312 15.7172 23.9859 15.8578 24.3516 15.6656C24.7172 15.4734 24.8578 15.0188 24.6656 14.6531L22.5984 10.725C23.0391 10.5797 23.5125 10.5 24 10.5C26.4844 10.5 28.5 12.5156 28.5 15C28.5 17.4844 26.4844 19.5 24 19.5C21.5156 19.5 19.5 17.4844 19.5 15C19.5 13.5422 20.1937 12.2438 21.2719 11.4234ZM7.3125 10.6969L5.4375 14.4516C5.1375 15.0516 5.57344 15.7547 6.24375 15.7547H10.4391C10.0828 17.8828 8.23125 19.5047 6 19.5047C3.51562 19.5047 1.5 17.4891 1.5 15.0047C1.5 12.5203 3.51562 10.5047 6 10.5047C6.45937 10.5047 6.9 10.575 7.3125 10.7016V10.6969ZM7.21406 14.25L10.1531 8.37656L13.6734 14.25H7.20938H7.21406ZM11.3766 7.5H18.2344L14.9672 13.4906L11.3766 7.5Z" fill="black"/>
</svg>
