<svg width="30" height="24" viewBox="0 0 30 24" fill="none" xmlns="http://www.w3.org/2000/svg">
<path d="M6 1.5H21C21.8297 1.5 22.5 2.17031 22.5 3V4.5H24V3C24 1.34531 22.6547 0 21 0H6C4.34531 0 3 1.34531 3 3V13.5H0.9C0.403125 13.5 0 13.9031 0 14.4C0 16.3875 1.6125 18 3.6 18H16.5V16.5H3.6C2.64844 16.5 1.84688 15.8672 1.58906 15H3H4.5H16.5V13.5H4.5V3C4.5 2.17031 5.17031 1.5 6 1.5ZM28.5 21.75C28.5 22.1625 28.1625 22.5 27.75 22.5H20.25C19.8375 22.5 19.5 22.1625 19.5 21.75V8.25C19.5 7.8375 19.8375 7.5 20.25 7.5H27.75C28.1625 7.5 28.5 7.8375 28.5 8.25V21.75ZM20.25 24H27.75C28.9922 24 30 22.9922 30 21.75V8.25C30 7.00781 28.9922 6 27.75 6H20.25C19.0078 6 18 7.00781 18 8.25V21.75C18 22.9922 19.0078 24 20.25 24Z" fill="black"/>
</svg>
