<svg width="26" height="24" viewBox="0 0 26 24" fill="none" xmlns="http://www.w3.org/2000/svg">
<path d="M25.5 0.75C25.5 0.3375 25.1625 0 24.75 0C24.3375 0 24 0.3375 24 0.75V23.25C24 23.6625 24.3375 24 24.75 24C25.1625 24 25.5 23.6625 25.5 23.25V0.75ZM18.75 4.5C18.3375 4.5 18 4.8375 18 5.25V23.25C18 23.6625 18.3375 24 18.75 24C19.1625 24 19.5 23.6625 19.5 23.25V5.25C19.5 4.8375 19.1625 4.5 18.75 4.5ZM13.5 9.75C13.5 9.3375 13.1625 9 12.75 9C12.3375 9 12 9.3375 12 9.75V23.25C12 23.6625 12.3375 24 12.75 24C13.1625 24 13.5 23.6625 13.5 23.25V9.75ZM6.75 13.5C6.3375 13.5 6 13.8375 6 14.25V23.25C6 23.6625 6.3375 24 6.75 24C7.1625 24 7.5 23.6625 7.5 23.25V14.25C7.5 13.8375 7.1625 13.5 6.75 13.5ZM0.75 18C0.3375 18 0 18.3375 0 18.75V23.25C0 23.6625 0.3375 24 0.75 24C1.1625 24 1.5 23.6625 1.5 23.25V18.75C1.5 18.3375 1.1625 18 0.75 18Z" fill="black"/>
</svg>
