<svg width="27" height="24" viewBox="0 0 27 24" fill="none" xmlns="http://www.w3.org/2000/svg">
<path d="M22.1063 4.43499C24.3 6.54905 25.4906 9.54437 25.3078 12.6241L21.2625 11.1522C21.975 9.12718 22.275 6.9803 22.1484 4.83343C22.1391 4.69749 22.125 4.56624 22.1063 4.43499ZM18.8812 2.32093C19.8984 2.79437 20.5828 3.7928 20.6484 4.92718C20.7656 6.8678 20.4937 8.80843 19.8516 10.6412L11.9953 7.78187C12.6797 5.96312 13.725 4.30374 15.0563 2.8928C15.8766 2.02562 17.1234 1.71155 18.2531 2.08187C18.3047 2.10062 18.3563 2.11937 18.4078 2.13812C18.5672 2.19437 18.7219 2.2553 18.8766 2.32093H18.8812ZM18.7359 0.661554C13.5891 -1.1197 8.02969 0.811554 5.02031 5.0678C4.5 5.80374 4.88906 6.7928 5.7375 7.10218L10.0688 8.67718L11.4844 9.1928L19.3406 12.0522L20.7516 12.5631L24.9281 14.0819C25.7766 14.3912 26.7094 13.885 26.7844 12.985C27.2063 7.9178 24.3469 2.99124 19.4906 0.942804C19.3781 0.891242 19.2609 0.844367 19.1437 0.802179L18.8672 0.703742C18.825 0.689679 18.7828 0.675617 18.7406 0.661554H18.7359ZM14.3391 1.50999C14.2125 1.6178 14.0859 1.73499 13.9688 1.86155C12.4922 3.42249 11.3438 5.25999 10.5844 7.27093L6.38437 5.7428C8.27344 3.19749 11.2125 1.6553 14.3391 1.50999ZM0.75 22.2756C0.3375 22.2756 0 22.6131 0 23.0256C0 23.4381 0.3375 23.7756 0.75 23.7756H26.25C26.6625 23.7756 27 23.4381 27 23.0256C27 22.6131 26.6625 22.2756 26.25 22.2756H11.8781L15.525 12.2584L14.1141 11.7475L10.2844 22.2756H0.75Z" fill="black"/>
</svg>
