<svg width="16" height="18" viewBox="0 0 16 18" fill="none" xmlns="http://www.w3.org/2000/svg">
<path d="M7.14297 1.96875C7.14297 1.74498 7.23326 1.53036 7.39398 1.37213C7.55471 1.2139 7.7727 1.125 7.99999 1.125C8.2273 1.125 8.44533 1.2139 8.60599 1.37213C8.76677 1.53036 8.85704 1.74498 8.85704 1.96875C8.85704 2.19252 8.76677 2.40714 8.60599 2.56537C8.44533 2.7236 8.2273 2.8125 7.99999 2.8125C7.7727 2.8125 7.55471 2.7236 7.39398 2.56537C7.23326 2.40714 7.14297 2.19252 7.14297 1.96875ZM8.57136 3.85664C9.39628 3.61406 9.99974 2.86172 9.99974 1.96875C9.99974 0.882428 9.10341 0 7.99999 0C6.89658 0 6.00027 0.882428 6.00027 1.96875C6.00027 2.86172 6.60376 3.61406 7.42864 3.85664V7.11214C7.12154 7.20349 6.84659 7.36177 6.61805 7.5762L3.94699 6.075C4.14338 5.25234 3.77915 4.36641 3.00068 3.92344C2.04367 3.375 0.82241 3.69844 0.26892 4.64062C-0.284581 5.58281 0.0439455 6.7851 1.00096 7.33005C1.14023 7.40745 1.28307 7.47067 1.42947 7.51286V10.4871C1.28307 10.5293 1.14023 10.5891 1.00096 10.6699C0.0439455 11.2149 -0.284581 12.4172 0.26892 13.3594C0.82241 14.3016 2.04367 14.625 3.00068 14.0801C3.78272 13.6371 4.14338 12.7512 3.94699 11.925L5.60032 10.9969C5.35393 10.7121 5.1611 10.3816 5.03255 10.0195L3.38278 10.9512C3.15066 10.7332 2.87213 10.5785 2.57217 10.4906V7.51286C2.87213 7.425 3.15066 7.27031 3.38278 7.0524L6.05384 8.55349C6.01813 8.69771 6.00027 8.8488 6.00027 9C6.00027 9.89291 6.60376 10.6453 7.42864 10.8879V14.1434C6.60376 14.3859 6.00027 15.1383 6.00027 16.0312C6.00027 17.1176 6.89658 18 7.99999 18C9.10341 18 9.99974 17.1176 9.99974 16.0312C9.99974 15.1383 9.39628 14.3859 8.57136 14.1434V10.8879C8.87841 10.7965 9.15346 10.6382 9.382 10.4238L12.0531 11.925C11.8566 12.7477 12.2208 13.6335 12.9993 14.0766C13.9563 14.6215 15.1775 14.2981 15.7311 13.3559C16.2846 12.4137 15.9561 11.2113 14.9991 10.6664C14.8598 10.5891 14.7169 10.5258 14.5705 10.4836V7.50938C14.7169 7.46719 14.8598 7.40745 14.9991 7.32656C15.9561 6.78161 16.2846 5.57929 15.7311 4.6371C15.1775 3.69492 13.9563 3.375 12.9993 3.91993C12.2173 4.3629 11.8566 5.24882 12.0494 6.07148L10.3961 6.99964C10.6425 7.28437 10.8353 7.61479 10.9638 7.97693L12.6137 7.0488C12.8457 7.26683 13.1243 7.425 13.4243 7.50938V10.4871C13.1243 10.575 12.8457 10.7297 12.6137 10.9476L9.9426 9.44651C9.97826 9.3024 9.9962 9.1512 9.9962 9C9.9962 8.10709 9.39262 7.35469 8.56782 7.11214V3.85664H8.57136ZM13.5707 4.89375C13.6681 4.83834 13.7759 4.8024 13.8875 4.78797C13.9992 4.77353 14.1127 4.78089 14.2213 4.80962C14.3301 4.83834 14.432 4.88788 14.5214 4.9554C14.6108 5.02292 14.6856 5.1071 14.7419 5.20312C14.7982 5.29915 14.8347 5.40515 14.8494 5.51508C14.864 5.625 14.8566 5.73668 14.8274 5.84376C14.7982 5.95083 14.7479 6.05121 14.6793 6.13915C14.6108 6.22708 14.5252 6.30084 14.4277 6.35625C14.3301 6.41166 14.2225 6.4476 14.1108 6.46203C13.9992 6.47647 13.8857 6.46911 13.7769 6.44038C13.6681 6.41166 13.5662 6.36212 13.477 6.2946C13.3876 6.22708 13.3127 6.1429 13.2564 6.04688C13.2001 5.95085 13.1636 5.84485 13.149 5.73492C13.1343 5.625 13.1418 5.51332 13.171 5.40624C13.2001 5.29917 13.2505 5.19879 13.3191 5.11085C13.3876 5.02292 13.4731 4.94916 13.5707 4.89375ZM1.25806 5.20312C1.37172 5.00919 1.55896 4.86764 1.77862 4.80962C1.99827 4.75159 2.23234 4.78186 2.42933 4.89375C2.62632 5.00564 2.7701 5.18998 2.82904 5.40624C2.88797 5.62249 2.85723 5.85294 2.74357 6.04688C2.68731 6.1429 2.61237 6.22708 2.52306 6.2946C2.43374 6.36212 2.33179 6.41166 2.22303 6.44038C2.00337 6.49841 1.7693 6.46814 1.57231 6.35625C1.47477 6.30084 1.38927 6.22708 1.32068 6.13915C1.25211 6.05121 1.20179 5.95083 1.17261 5.84376C1.11368 5.62751 1.14442 5.39706 1.25806 5.20312ZM7.14297 16.0312C7.14297 15.8075 7.23326 15.5928 7.39398 15.4347C7.55471 15.2764 7.7727 15.1875 7.99999 15.1875C8.2273 15.1875 8.44533 15.2764 8.60599 15.4347C8.76677 15.5928 8.85704 15.8075 8.85704 16.0312C8.85704 16.255 8.76677 16.4697 8.60599 16.6278C8.44533 16.7861 8.2273 16.875 7.99999 16.875C7.7727 16.875 7.55471 16.7861 7.39398 16.6278C7.23326 16.4697 7.14297 16.255 7.14297 16.0312ZM2.74357 11.9531C2.79985 12.0492 2.83636 12.1552 2.85102 12.2651C2.86568 12.375 2.85821 12.4867 2.82904 12.5938C2.79985 12.7008 2.74954 12.8013 2.68095 12.8891C2.61238 12.9771 2.52687 13.0509 2.42933 13.1062C2.33179 13.1616 2.22413 13.1976 2.11247 13.212C2.00083 13.2265 1.88738 13.2191 1.77862 13.1904C1.66986 13.1616 1.56791 13.1121 1.47859 13.0446C1.38927 12.9771 1.31434 12.893 1.25806 12.7969C1.2018 12.7008 1.16529 12.5948 1.15062 12.4849C1.13596 12.375 1.14343 12.2633 1.17261 12.1562C1.20179 12.0492 1.25211 11.9487 1.32068 11.8609C1.38927 11.7729 1.47477 11.6991 1.57231 11.6438C1.66985 11.5884 1.77751 11.5524 1.88917 11.538C2.00082 11.5235 2.11427 11.5309 2.22303 11.5596C2.33179 11.5884 2.43374 11.6379 2.52306 11.7054C2.61237 11.7729 2.68731 11.857 2.74357 11.9531ZM13.5707 13.1062C13.4731 13.0509 13.3876 12.9771 13.3191 12.8891C13.2505 12.8013 13.2001 12.7008 13.171 12.5938C13.1418 12.4867 13.1343 12.375 13.149 12.2651C13.1636 12.1552 13.2001 12.0492 13.2564 11.9531C13.3127 11.857 13.3876 11.7729 13.477 11.7054C13.5662 11.6379 13.6681 11.5884 13.7769 11.5596C13.8857 11.5309 13.9992 11.5235 14.1108 11.538C14.2225 11.5524 14.3301 11.5884 14.4277 11.6438C14.5252 11.6991 14.6108 11.7729 14.6793 11.8609C14.7479 11.9487 14.7982 12.0492 14.8274 12.1562C14.8566 12.2633 14.864 12.375 14.8494 12.4849C14.8347 12.5948 14.7982 12.7008 14.7419 12.7969C14.6856 12.893 14.6108 12.9771 14.5214 13.0446C14.432 13.1121 14.3301 13.1616 14.2213 13.1904C14.1127 13.2191 13.9992 13.2265 13.8875 13.212C13.7759 13.1976 13.6681 13.1616 13.5707 13.1062ZM7.99999 8.15625C8.2273 8.15625 8.44533 8.24512 8.60599 8.40341C8.76677 8.56159 8.85704 8.77624 8.85704 9C8.85704 9.22376 8.76677 9.43841 8.60599 9.59659C8.44533 9.75488 8.2273 9.84375 7.99999 9.84375C7.7727 9.84375 7.55471 9.75488 7.39398 9.59659C7.23326 9.43841 7.14297 9.22376 7.14297 9C7.14297 8.77624 7.23326 8.56159 7.39398 8.40341C7.55471 8.24512 7.7727 8.15625 7.99999 8.15625Z" fill="#1C1D20"/>
</svg>
