<svg width="150" height="42" viewBox="0 0 150 42" fill="none" xmlns="http://www.w3.org/2000/svg">
<path d="M98.2695 15.696C98.2695 15.136 98.4295 14.672 98.7495 14.304C99.0855 13.92 99.5895 13.728 100.262 13.728C100.934 13.728 101.43 13.92 101.75 14.304C102.086 14.672 102.254 15.136 102.254 15.696C102.254 16.256 102.086 16.728 101.75 17.112C101.43 17.48 100.934 17.664 100.262 17.664C99.5895 17.664 99.0855 17.48 98.7495 17.112C98.4295 16.728 98.2695 16.256 98.2695 15.696Z" fill="#5755EF"/>
<path d="M0.560547 0.792H3.82455V14.352H11.3365V17.352H0.560547V0.792ZM12.7804 11.184C12.7804 9.856 13.0364 8.704 13.5484 7.728C14.0604 6.752 14.7805 6 15.7085 5.472C16.6366 4.928 17.7325 4.656 18.9965 4.656C20.2605 4.656 21.3565 4.928 22.2845 5.472C23.2125 6 23.9325 6.752 24.4445 7.728C24.9565 8.704 25.2125 9.856 25.2125 11.184C25.2125 12.496 24.9565 13.648 24.4445 14.64C23.9325 15.616 23.2125 16.376 22.2845 16.92C21.3565 17.448 20.2605 17.712 18.9965 17.712C17.7325 17.712 16.6366 17.448 15.7085 16.92C14.7805 16.376 14.0604 15.616 13.5484 14.64C13.0364 13.648 12.7804 12.496 12.7804 11.184ZM21.9965 11.184C21.9965 10 21.7325 9.088 21.2045 8.448C20.6765 7.792 19.9405 7.464 18.9965 7.464C18.0525 7.464 17.3165 7.792 16.7885 8.448C16.2605 9.088 15.9965 10 15.9965 11.184C15.9965 12.352 16.2605 13.264 16.7885 13.92C17.3165 14.576 18.0525 14.904 18.9965 14.904C19.9405 14.904 20.6765 14.576 21.2045 13.92C21.7325 13.264 21.9965 12.352 21.9965 11.184ZM26.8505 11.184C26.8505 9.872 27.0986 8.728 27.5946 7.752C28.0906 6.776 28.7946 6.016 29.7066 5.472C30.6346 4.928 31.7305 4.656 32.9945 4.656C34.6745 4.656 36.0345 5.088 37.0745 5.952C38.1145 6.816 38.6905 8.016 38.8025 9.552H35.6105C35.4665 8.896 35.1945 8.384 34.7945 8.016C34.3945 7.648 33.7866 7.464 32.9706 7.464C32.1226 7.464 31.4265 7.776 30.8825 8.4C30.3385 9.024 30.0665 9.952 30.0665 11.184C30.0665 12.416 30.3306 13.344 30.8586 13.968C31.3866 14.592 32.0906 14.904 32.9706 14.904C33.7866 14.904 34.3945 14.728 34.7945 14.376C35.1945 14.008 35.4585 13.472 35.5865 12.768H38.8265C38.6665 14.336 38.0825 15.552 37.0745 16.416C36.0665 17.28 34.7065 17.712 32.9945 17.712C31.7465 17.712 30.6585 17.448 29.7305 16.92C28.8185 16.376 28.1066 15.616 27.5946 14.64C27.0986 13.648 26.8505 12.496 26.8505 11.184ZM40.4065 13.968C40.4065 12.832 40.8465 11.928 41.7265 11.256C42.6065 10.568 44.0865 10.152 46.1665 10.008L48.7346 9.816V9.48C48.7346 8.008 47.9266 7.272 46.3106 7.272C45.5746 7.272 44.9985 7.44 44.5825 7.776C44.1825 8.096 43.9425 8.512 43.8625 9.024H40.8385C40.9505 7.632 41.5185 6.56 42.5425 5.808C43.5665 5.04 44.8465 4.656 46.3825 4.656C48.2385 4.656 49.5985 5.088 50.4625 5.952C51.3425 6.8 51.7826 7.96 51.7826 9.432V17.352H48.9745L48.9025 15.648C48.4385 16.352 47.8385 16.872 47.1025 17.208C46.3665 17.544 45.5746 17.712 44.7266 17.712C43.2706 17.712 42.1825 17.376 41.4625 16.704C40.7585 16.016 40.4065 15.104 40.4065 13.968ZM43.6465 13.872C43.6465 14.256 43.7745 14.576 44.0305 14.832C44.3025 15.088 44.7185 15.216 45.2785 15.216C46.3345 15.216 47.1585 14.912 47.7505 14.304C48.3425 13.68 48.6706 12.952 48.7346 12.12L46.4546 12.288C45.3666 12.368 44.6225 12.544 44.2225 12.816C43.8385 13.088 43.6465 13.44 43.6465 13.872ZM55.6405 13.248V7.728H53.2165V5.064C54.0805 5.064 54.7205 5 55.1365 4.872C55.5525 4.728 55.8326 4.44 55.9766 4.008C56.1366 3.56 56.2245 2.888 56.2405 1.992H58.7606V5.016H62.0725V7.728H58.7606V12.552C58.7606 13.384 58.8965 13.976 59.1685 14.328C59.4405 14.68 59.9285 14.856 60.6325 14.856H61.9286V17.496H60.2485C58.6485 17.496 57.4805 17.152 56.7445 16.464C56.0085 15.76 55.6405 14.688 55.6405 13.248ZM64.2026 5.016H67.3225V17.352H64.2026V5.016ZM63.9145 1.8C63.9145 1.24 64.0746 0.8 64.3946 0.48C64.7306 0.160001 65.1866 0 65.7626 0C66.3386 0 66.7865 0.160001 67.1065 0.48C67.4425 0.8 67.6105 1.24 67.6105 1.8C67.6105 2.36 67.4425 2.8 67.1065 3.12C66.7865 3.44 66.3386 3.6 65.7626 3.6C65.1866 3.6 64.7306 3.44 64.3946 3.12C64.0746 2.8 63.9145 2.36 63.9145 1.8ZM69.6775 11.184C69.6775 9.856 69.9335 8.704 70.4455 7.728C70.9575 6.752 71.6776 6 72.6056 5.472C73.5336 4.928 74.6295 4.656 75.8935 4.656C77.1575 4.656 78.2535 4.928 79.1815 5.472C80.1095 6 80.8295 6.752 81.3415 7.728C81.8535 8.704 82.1096 9.856 82.1096 11.184C82.1096 12.496 81.8535 13.648 81.3415 14.64C80.8295 15.616 80.1095 16.376 79.1815 16.92C78.2535 17.448 77.1575 17.712 75.8935 17.712C74.6295 17.712 73.5336 17.448 72.6056 16.92C71.6776 16.376 70.9575 15.616 70.4455 14.64C69.9335 13.648 69.6775 12.496 69.6775 11.184ZM78.8935 11.184C78.8935 10 78.6296 9.088 78.1016 8.448C77.5736 7.792 76.8375 7.464 75.8935 7.464C74.9495 7.464 74.2136 7.792 73.6856 8.448C73.1576 9.088 72.8935 10 72.8935 11.184C72.8935 12.352 73.1576 13.264 73.6856 13.92C74.2136 14.576 74.9495 14.904 75.8935 14.904C76.8375 14.904 77.5736 14.576 78.1016 13.92C78.6296 13.264 78.8935 12.352 78.8935 11.184ZM84.4676 5.016H87.4195L87.4916 7.008C87.8756 6.272 88.4275 5.696 89.1475 5.28C89.8675 4.864 90.6835 4.656 91.5955 4.656C92.9715 4.656 94.0355 5.08 94.7875 5.928C95.5395 6.76 95.9156 7.936 95.9156 9.456V17.352H92.7955V10.08C92.7955 8.368 92.0675 7.512 90.6115 7.512C90.0515 7.512 89.5396 7.664 89.0756 7.968C88.6116 8.272 88.2436 8.68 87.9715 9.192C87.7155 9.704 87.5875 10.288 87.5875 10.944V17.352H84.4676V5.016ZM104.441 11.28C104.441 9.984 104.665 8.864 105.113 7.92C105.577 6.96 106.217 6.216 107.033 5.688C107.849 5.16 108.809 4.896 109.913 4.896C111.401 4.896 112.593 5.28 113.489 6.048C114.385 6.816 114.897 7.912 115.025 9.336H113.561C113.289 7.272 112.073 6.24 109.913 6.24C108.681 6.24 107.705 6.688 106.985 7.584C106.281 8.48 105.929 9.712 105.929 11.28C105.929 12.848 106.289 14.08 107.009 14.976C107.745 15.872 108.745 16.32 110.009 16.32C111.977 16.32 113.153 15.28 113.537 13.2H115.025C114.545 16.176 112.873 17.664 110.009 17.664C108.873 17.664 107.889 17.408 107.057 16.896C106.225 16.368 105.577 15.624 105.113 14.664C104.665 13.704 104.441 12.576 104.441 11.28ZM117.152 11.28C117.152 9.968 117.384 8.84 117.848 7.896C118.312 6.936 118.96 6.2 119.792 5.688C120.624 5.16 121.592 4.896 122.696 4.896C123.8 4.896 124.768 5.16 125.6 5.688C126.432 6.2 127.08 6.936 127.544 7.896C128.008 8.84 128.24 9.968 128.24 11.28C128.24 12.576 128.008 13.704 127.544 14.664C127.08 15.624 126.432 16.368 125.6 16.896C124.768 17.408 123.8 17.664 122.696 17.664C121.592 17.664 120.624 17.408 119.792 16.896C118.96 16.368 118.312 15.624 117.848 14.664C117.384 13.704 117.152 12.576 117.152 11.28ZM119.744 7.56C119.008 8.44 118.64 9.68 118.64 11.28C118.64 12.88 119.008 14.12 119.744 15C120.48 15.88 121.464 16.32 122.696 16.32C123.928 16.32 124.912 15.88 125.648 15C126.384 14.12 126.752 12.88 126.752 11.28C126.752 9.68 126.384 8.44 125.648 7.56C124.912 6.68 123.928 6.24 122.696 6.24C121.464 6.24 120.48 6.68 119.744 7.56ZM131.217 5.208H132.489L132.585 7.824C132.905 6.928 133.449 6.216 134.217 5.688C134.985 5.16 135.825 4.896 136.737 4.896C137.793 4.896 138.665 5.152 139.353 5.664C140.041 6.176 140.497 6.904 140.721 7.848C141.057 6.968 141.617 6.256 142.401 5.712C143.185 5.168 144.049 4.896 144.993 4.896C146.321 4.896 147.345 5.288 148.065 6.072C148.801 6.84 149.169 7.928 149.169 9.336V17.352H147.729V9.624C147.729 7.368 146.761 6.24 144.825 6.24C144.041 6.24 143.353 6.44 142.761 6.84C142.169 7.24 141.705 7.784 141.369 8.472C141.049 9.144 140.889 9.904 140.889 10.752V17.352H139.449V9.624C139.449 7.368 138.489 6.24 136.569 6.24C135.801 6.24 135.121 6.44 134.529 6.84C133.937 7.24 133.473 7.784 133.137 8.472C132.817 9.144 132.657 9.904 132.657 10.752V17.352H131.217V5.208Z" fill="#1C1D20"/>
<path d="M0 28.6923H3.36C4.4987 28.6923 5.376 28.9536 5.992 29.4763C6.6173 29.999 6.93 30.741 6.93 31.7023C6.93 32.6916 6.6267 33.443 6.02 33.9563C5.4133 34.4603 4.5267 34.7123 3.36 34.7123H0.881996V38.3523H0V28.6923ZM6.02 31.7023C6.02 30.2463 5.1333 29.5183 3.36 29.5183H0.881996V33.8863H3.36C4.284 33.8863 4.956 33.7136 5.376 33.3683C5.8053 33.023 6.02 32.4676 6.02 31.7023ZM7.8726 34.8103C7.8726 34.045 8.00799 33.387 8.27859 32.8363C8.54929 32.2763 8.9273 31.847 9.4126 31.5483C9.898 31.2403 10.4626 31.0863 11.1066 31.0863C11.7506 31.0863 12.3153 31.2403 12.8006 31.5483C13.286 31.847 13.664 32.2763 13.9346 32.8363C14.2053 33.387 14.3406 34.045 14.3406 34.8103C14.3406 35.5663 14.2053 36.2243 13.9346 36.7843C13.664 37.3443 13.286 37.7783 12.8006 38.0863C12.3153 38.385 11.7506 38.5343 11.1066 38.5343C10.4626 38.5343 9.898 38.385 9.4126 38.0863C8.9273 37.7783 8.54929 37.3443 8.27859 36.7843C8.00799 36.2243 7.8726 35.5663 7.8726 34.8103ZM9.3846 32.6403C8.9553 33.1536 8.7406 33.877 8.7406 34.8103C8.7406 35.7436 8.9553 36.467 9.3846 36.9803C9.814 37.4936 10.388 37.7503 11.1066 37.7503C11.8253 37.7503 12.3993 37.4936 12.8286 36.9803C13.258 36.467 13.4726 35.7436 13.4726 34.8103C13.4726 33.877 13.258 33.1536 12.8286 32.6403C12.3993 32.127 11.8253 31.8703 11.1066 31.8703C10.388 31.8703 9.814 32.127 9.3846 32.6403ZM17.783 37.5403L19.827 31.2683H20.695L22.669 37.5823L24.307 31.2683H25.161L23.187 38.3523H22.151L20.247 32.2343L18.245 38.3523H17.209L15.2352 31.2683H16.173L17.783 37.5403ZM26.065 34.8103C26.065 34.045 26.196 33.387 26.457 32.8363C26.719 32.2763 27.087 31.847 27.563 31.5483C28.049 31.2403 28.613 31.0863 29.257 31.0863C30.209 31.0863 30.956 31.3943 31.497 32.0103C32.039 32.617 32.309 33.457 32.309 34.5303V35.0623H26.919C26.957 35.9396 27.176 36.607 27.577 37.0643C27.979 37.5216 28.548 37.7503 29.285 37.7503C30.387 37.7503 31.068 37.321 31.329 36.4623H32.197C31.843 37.8436 30.872 38.5343 29.285 38.5343C28.277 38.5343 27.489 38.203 26.919 37.5403C26.35 36.8776 26.065 35.9676 26.065 34.8103ZM27.633 32.5143C27.232 32.9436 26.999 33.555 26.933 34.3483H31.441C31.404 33.5456 31.199 32.9296 30.825 32.5003C30.452 32.071 29.925 31.8563 29.243 31.8563C28.571 31.8563 28.035 32.0756 27.633 32.5143ZM33.976 31.2683H34.718L34.774 32.9483C34.942 32.3976 35.217 31.9683 35.6 31.6603C35.992 31.343 36.393 31.1843 36.804 31.1843H37.406V31.9963H36.748C36.384 31.9963 36.053 32.1083 35.754 32.3323C35.465 32.547 35.236 32.855 35.068 33.2563C34.9 33.6483 34.816 34.1103 34.816 34.6423V38.3523H33.976V31.2683ZM38.01 34.8103C38.01 34.045 38.141 33.387 38.402 32.8363C38.663 32.2763 39.032 31.847 39.508 31.5483C39.993 31.2403 40.558 31.0863 41.202 31.0863C42.154 31.0863 42.901 31.3943 43.442 32.0103C43.983 32.617 44.254 33.457 44.254 34.5303V35.0623H38.864C38.901 35.9396 39.121 36.607 39.522 37.0643C39.923 37.5216 40.493 37.7503 41.23 37.7503C42.331 37.7503 43.013 37.321 43.274 36.4623H44.142C43.787 37.8436 42.817 38.5343 41.23 38.5343C40.222 38.5343 39.433 38.203 38.864 37.5403C38.295 36.8776 38.01 35.9676 38.01 34.8103ZM39.578 32.5143C39.177 32.9436 38.943 33.555 38.878 34.3483H43.386C43.349 33.5456 43.143 32.9296 42.77 32.5003C42.397 32.071 41.869 31.8563 41.188 31.8563C40.516 31.8563 39.979 32.0756 39.578 32.5143ZM45.487 34.8103C45.487 34.045 45.613 33.387 45.865 32.8363C46.117 32.2763 46.476 31.847 46.943 31.5483C47.419 31.2403 47.974 31.0863 48.609 31.0863C49.169 31.0863 49.673 31.2356 50.121 31.5343C50.569 31.833 50.891 32.225 51.087 32.7103V28.3423H51.927V38.3523H51.185L51.129 36.8403C50.961 37.3443 50.639 37.755 50.163 38.0723C49.687 38.3803 49.15 38.5343 48.553 38.5343C47.927 38.5343 47.381 38.385 46.915 38.0863C46.457 37.7783 46.103 37.3443 45.851 36.7843C45.608 36.2243 45.487 35.5663 45.487 34.8103ZM46.957 32.6403C46.555 33.1443 46.355 33.8676 46.355 34.8103C46.355 35.7436 46.56 36.467 46.971 36.9803C47.381 37.4936 47.965 37.7503 48.721 37.7503C49.439 37.7503 50.013 37.4843 50.443 36.9523C50.872 36.411 51.087 35.697 51.087 34.8103C51.087 33.9236 50.872 33.2143 50.443 32.6823C50.013 32.141 49.439 31.8703 48.721 31.8703C47.955 31.8703 47.367 32.127 46.957 32.6403ZM56.758 28.3423H57.598V32.7103C57.794 32.225 58.121 31.833 58.578 31.5343C59.035 31.2356 59.553 31.0863 60.132 31.0863C60.767 31.0863 61.313 31.2403 61.77 31.5483C62.227 31.847 62.577 32.2763 62.82 32.8363C63.072 33.387 63.198 34.045 63.198 34.8103C63.198 35.5663 63.072 36.2243 62.82 36.7843C62.568 37.3443 62.209 37.7783 61.742 38.0863C61.275 38.385 60.72 38.5343 60.076 38.5343C59.488 38.5343 58.961 38.3756 58.494 38.0583C58.037 37.741 57.724 37.3303 57.556 36.8263L57.5 38.3523H56.758V28.3423ZM57.598 34.8103C57.598 35.697 57.813 36.411 58.242 36.9523C58.671 37.4843 59.245 37.7503 59.964 37.7503C60.711 37.7503 61.289 37.503 61.7 37.0083C62.12 36.5136 62.33 35.781 62.33 34.8103C62.33 33.8396 62.12 33.107 61.7 32.6123C61.28 32.1176 60.701 31.8703 59.964 31.8703C59.245 31.8703 58.671 32.141 58.242 32.6823C57.813 33.2143 57.598 33.9236 57.598 34.8103ZM64.462 40.4803H64.882C65.171 40.4803 65.414 40.4383 65.61 40.3543C65.806 40.2703 65.974 40.121 66.114 39.9063C66.263 39.701 66.412 39.407 66.562 39.0243L66.772 38.4923L63.818 31.2683H64.784L67.22 37.4283L69.614 31.2683H70.51L67.332 39.2343C67.126 39.7476 66.916 40.149 66.702 40.4383C66.496 40.7276 66.254 40.9283 65.974 41.0403C65.694 41.1616 65.344 41.2223 64.924 41.2223H64.462V40.4803ZM77.41 34.5023L73.686 28.6923H74.736L77.886 33.6763L81.05 28.6923H82.016L78.292 34.5023V38.3523H77.41V34.5023ZM81.484 34.8103C81.484 34.045 81.615 33.387 81.876 32.8363C82.138 32.2763 82.506 31.847 82.982 31.5483C83.468 31.2403 84.032 31.0863 84.676 31.0863C85.628 31.0863 86.375 31.3943 86.916 32.0103C87.458 32.617 87.728 33.457 87.728 34.5303V35.0623H82.338C82.376 35.9396 82.595 36.607 82.996 37.0643C83.398 37.5216 83.967 37.7503 84.704 37.7503C85.806 37.7503 86.487 37.321 86.748 36.4623H87.616C87.262 37.8436 86.291 38.5343 84.704 38.5343C83.696 38.5343 82.908 38.203 82.338 37.5403C81.769 36.8776 81.484 35.9676 81.484 34.8103ZM83.052 32.5143C82.651 32.9436 82.418 33.555 82.352 34.3483H86.86C86.823 33.5456 86.618 32.9296 86.244 32.5003C85.871 32.071 85.344 31.8563 84.662 31.8563C83.99 31.8563 83.454 32.0756 83.052 32.5143ZM89.234 38.3523H88.254L90.9 34.6563L88.506 31.2683H89.514L91.46 33.9983L93.378 31.2683H94.33L91.936 34.5863L94.596 38.3523H93.574L91.39 35.2443L89.234 38.3523ZM96.294 36.0003V32.0243H94.908V31.3103C95.375 31.3103 95.715 31.273 95.93 31.1983C96.154 31.1143 96.299 30.9416 96.364 30.6803C96.429 30.419 96.462 30.0176 96.462 29.4763H97.134V31.2683H99.486V32.0243H97.134V35.8883C97.134 36.5416 97.246 37.0036 97.47 37.2743C97.694 37.545 98.077 37.6803 98.618 37.6803H99.402V38.4223H98.478C97.022 38.4223 96.294 37.615 96.294 36.0003Z" fill="#6F7074"/>
</svg>
