<svg width="179" height="131" viewBox="0 0 179 131" fill="none" xmlns="http://www.w3.org/2000/svg">
<path d="M123 33.5C123 14.9985 108.002 0 89.5 0C70.9985 0 56 14.9985 56 33.5C56 52.0015 70.9985 67 89.5 67C108.002 67 123 52.0015 123 33.5Z" fill="#5A58F2"/>
<mask id="mask0_2517_5462" style="mask-type:alpha" maskUnits="userSpaceOnUse" x="56" y="0" width="67" height="67">
<path d="M89.5 67C108.002 67 123 52.0015 123 33.5C123 14.9985 108.002 0 89.5 0C70.9985 0 56 14.9985 56 33.5C56 52.0015 70.9985 67 89.5 67Z" fill="#5A58F2"/>
</mask>
<g mask="url(#mask0_2517_5462)">
<path d="M113.5 41.75C115.985 41.75 118 39.7912 118 37.375C118 34.9588 115.985 33 113.5 33C111.015 33 109 34.9588 109 37.375C109 39.7912 111.015 41.75 113.5 41.75Z" fill="white"/>
</g>
<path d="M15.2168 86.4399H18.4808V99.9999H25.9928V103H15.2168V86.4399ZM27.4367 96.8319C27.4367 95.5039 27.6927 94.3519 28.2047 93.3759C28.7167 92.3999 29.4367 91.6479 30.3647 91.1199C31.2927 90.5759 32.3887 90.3039 33.6527 90.3039C34.9167 90.3039 36.0127 90.5759 36.9407 91.1199C37.8687 91.6479 38.5887 92.3999 39.1007 93.3759C39.6127 94.3519 39.8687 95.5039 39.8687 96.8319C39.8687 98.1439 39.6127 99.2959 39.1007 100.288C38.5887 101.264 37.8687 102.024 36.9407 102.568C36.0127 103.096 34.9167 103.36 33.6527 103.36C32.3887 103.36 31.2927 103.096 30.3647 102.568C29.4367 102.024 28.7167 101.264 28.2047 100.288C27.6927 99.2959 27.4367 98.1439 27.4367 96.8319ZM36.6527 96.8319C36.6527 95.6479 36.3887 94.7359 35.8607 94.0959C35.3327 93.4399 34.5967 93.1119 33.6527 93.1119C32.7087 93.1119 31.9727 93.4399 31.4447 94.0959C30.9167 94.7359 30.6527 95.6479 30.6527 96.8319C30.6527 97.9999 30.9167 98.9119 31.4447 99.5679C31.9727 100.224 32.7087 100.552 33.6527 100.552C34.5967 100.552 35.3327 100.224 35.8607 99.5679C36.3887 98.9119 36.6527 97.9999 36.6527 96.8319ZM41.5067 96.8319C41.5067 95.5199 41.7547 94.3759 42.2507 93.3999C42.7467 92.4239 43.4507 91.6639 44.3627 91.1199C45.2907 90.5759 46.3867 90.3039 47.6507 90.3039C49.3307 90.3039 50.6907 90.7359 51.7307 91.5999C52.7707 92.4639 53.3467 93.6639 53.4587 95.1999H50.2667C50.1227 94.5439 49.8507 94.0319 49.4507 93.6639C49.0507 93.2959 48.4427 93.1119 47.6267 93.1119C46.7787 93.1119 46.0827 93.4239 45.5387 94.0479C44.9947 94.6719 44.7227 95.5999 44.7227 96.8319C44.7227 98.0639 44.9867 98.9919 45.5147 99.6159C46.0427 100.24 46.7467 100.552 47.6267 100.552C48.4427 100.552 49.0507 100.376 49.4507 100.024C49.8507 99.6559 50.1147 99.1199 50.2427 98.4159H53.4827C53.3227 99.9839 52.7387 101.2 51.7307 102.064C50.7227 102.928 49.3627 103.36 47.6507 103.36C46.4027 103.36 45.3147 103.096 44.3867 102.568C43.4747 102.024 42.7627 101.264 42.2507 100.288C41.7547 99.2959 41.5067 98.1439 41.5067 96.8319ZM55.0628 99.6159C55.0628 98.4799 55.5028 97.5759 56.3828 96.9039C57.2628 96.2159 58.7428 95.7999 60.8228 95.6559L63.3908 95.4639V95.1279C63.3908 93.6559 62.5828 92.9199 60.9668 92.9199C60.2308 92.9199 59.6548 93.088 59.2388 93.424C58.8388 93.744 58.5988 94.1599 58.5188 94.6719H55.4948C55.6068 93.2799 56.1748 92.2079 57.1988 91.4559C58.2228 90.6879 59.5028 90.3039 61.0388 90.3039C62.8948 90.3039 64.2548 90.7359 65.1188 91.5999C65.9988 92.4479 66.4388 93.6079 66.4388 95.0799V103H63.6308L63.5588 101.296C63.0948 102 62.4948 102.52 61.7588 102.856C61.0228 103.192 60.2308 103.36 59.3828 103.36C57.9268 103.36 56.8388 103.024 56.1188 102.352C55.4148 101.664 55.0628 100.752 55.0628 99.6159ZM58.3028 99.5199C58.3028 99.9039 58.4308 100.224 58.6868 100.48C58.9588 100.736 59.3748 100.864 59.9348 100.864C60.9908 100.864 61.8148 100.56 62.4068 99.952C62.9988 99.328 63.3268 98.5999 63.3908 97.7679L61.1108 97.9359C60.0228 98.0159 59.2788 98.1919 58.8788 98.4639C58.4948 98.7359 58.3028 99.0879 58.3028 99.5199ZM70.2972 98.896V93.3759H67.8732V90.7119C68.7372 90.7119 69.3772 90.6479 69.7932 90.5199C70.2092 90.3759 70.4892 90.0879 70.6332 89.6559C70.7932 89.2079 70.8812 88.5359 70.8972 87.6399H73.4172V90.6639H76.7292V93.3759H73.4172V98.1999C73.4172 99.0319 73.5532 99.6239 73.8252 99.9759C74.0972 100.328 74.5852 100.504 75.2892 100.504H76.5852V103.144H74.9052C73.3052 103.144 72.1372 102.8 71.4012 102.112C70.6652 101.408 70.2972 100.336 70.2972 98.896ZM78.8586 90.6639H81.9786V103H78.8586V90.6639ZM78.5706 87.4479C78.5706 86.8879 78.7306 86.4479 79.0506 86.1279C79.3866 85.8079 79.8426 85.6479 80.4186 85.6479C80.9946 85.6479 81.4426 85.8079 81.7626 86.1279C82.0986 86.4479 82.2666 86.8879 82.2666 87.4479C82.2666 88.0079 82.0986 88.4479 81.7626 88.7679C81.4426 89.0879 80.9946 89.2479 80.4186 89.2479C79.8426 89.2479 79.3866 89.0879 79.0506 88.7679C78.7306 88.4479 78.5706 88.0079 78.5706 87.4479ZM84.3336 96.8319C84.3336 95.5039 84.5896 94.3519 85.1016 93.3759C85.6136 92.3999 86.3336 91.6479 87.2616 91.1199C88.1896 90.5759 89.2856 90.3039 90.5496 90.3039C91.8136 90.3039 92.9096 90.5759 93.8376 91.1199C94.7656 91.6479 95.4856 92.3999 95.9976 93.3759C96.5096 94.3519 96.7656 95.5039 96.7656 96.8319C96.7656 98.1439 96.5096 99.2959 95.9976 100.288C95.4856 101.264 94.7656 102.024 93.8376 102.568C92.9096 103.096 91.8136 103.36 90.5496 103.36C89.2856 103.36 88.1896 103.096 87.2616 102.568C86.3336 102.024 85.6136 101.264 85.1016 100.288C84.5896 99.2959 84.3336 98.1439 84.3336 96.8319ZM93.5496 96.8319C93.5496 95.6479 93.2856 94.7359 92.7576 94.0959C92.2296 93.4399 91.4936 93.1119 90.5496 93.1119C89.6056 93.1119 88.8696 93.4399 88.3416 94.0959C87.8136 94.7359 87.5496 95.6479 87.5496 96.8319C87.5496 97.9999 87.8136 98.9119 88.3416 99.5679C88.8696 100.224 89.6056 100.552 90.5496 100.552C91.4936 100.552 92.2296 100.224 92.7576 99.5679C93.2856 98.9119 93.5496 97.9999 93.5496 96.8319ZM99.1236 90.6639H102.076L102.148 92.6559C102.532 91.9199 103.084 91.3439 103.804 90.9279C104.524 90.5119 105.34 90.3039 106.252 90.3039C107.628 90.3039 108.692 90.7279 109.444 91.5759C110.196 92.4079 110.572 93.5839 110.572 95.1039V103H107.452V95.7279C107.452 94.0159 106.724 93.16 105.268 93.16C104.708 93.16 104.196 93.3119 103.732 93.6159C103.268 93.9199 102.9 94.3279 102.628 94.8399C102.372 95.3519 102.244 95.9359 102.244 96.5919V103H99.1236V90.6639ZM119.097 96.9279C119.097 95.6319 119.321 94.5119 119.769 93.5679C120.233 92.6079 120.873 91.8639 121.689 91.3359C122.505 90.8079 123.465 90.5439 124.569 90.5439C126.057 90.5439 127.249 90.9279 128.145 91.6959C129.041 92.4639 129.553 93.5599 129.681 94.9839H128.217C127.945 92.9199 126.729 91.8879 124.569 91.8879C123.337 91.8879 122.361 92.3359 121.641 93.2319C120.937 94.1279 120.585 95.3599 120.585 96.9279C120.585 98.4959 120.945 99.7279 121.665 100.624C122.401 101.52 123.401 101.968 124.665 101.968C126.633 101.968 127.809 100.928 128.193 98.8479H129.681C129.201 101.824 127.529 103.312 124.665 103.312C123.529 103.312 122.545 103.056 121.713 102.544C120.881 102.016 120.233 101.272 119.769 100.312C119.321 99.3519 119.097 98.2239 119.097 96.9279ZM131.808 96.9279C131.808 95.6159 132.04 94.4879 132.504 93.5439C132.968 92.5839 133.616 91.8479 134.448 91.3359C135.28 90.8079 136.248 90.5439 137.352 90.5439C138.456 90.5439 139.424 90.8079 140.256 91.3359C141.088 91.8479 141.736 92.5839 142.2 93.5439C142.664 94.4879 142.896 95.6159 142.896 96.9279C142.896 98.2239 142.664 99.3519 142.2 100.312C141.736 101.272 141.088 102.016 140.256 102.544C139.424 103.056 138.456 103.312 137.352 103.312C136.248 103.312 135.28 103.056 134.448 102.544C133.616 102.016 132.968 101.272 132.504 100.312C132.04 99.3519 131.808 98.2239 131.808 96.9279ZM134.4 93.2079C133.664 94.0879 133.296 95.3279 133.296 96.9279C133.296 98.5279 133.664 99.7679 134.4 100.648C135.136 101.528 136.12 101.968 137.352 101.968C138.584 101.968 139.568 101.528 140.304 100.648C141.04 99.7679 141.408 98.5279 141.408 96.9279C141.408 95.3279 141.04 94.0879 140.304 93.2079C139.568 92.3279 138.584 91.8879 137.352 91.8879C136.12 91.8879 135.136 92.3279 134.4 93.2079ZM145.873 90.8559H147.145L147.241 93.4719C147.561 92.5759 148.105 91.8639 148.873 91.3359C149.641 90.8079 150.481 90.5439 151.393 90.5439C152.449 90.5439 153.321 90.7999 154.009 91.3119C154.697 91.8239 155.153 92.5519 155.377 93.4959C155.713 92.6159 156.273 91.9039 157.057 91.3599C157.841 90.8159 158.705 90.5439 159.649 90.5439C160.977 90.5439 162.001 90.9359 162.721 91.7199C163.457 92.4879 163.825 93.5759 163.825 94.9839V103H162.385V95.2719C162.385 93.0159 161.417 91.8879 159.481 91.8879C158.697 91.8879 158.009 92.0879 157.417 92.4879C156.825 92.8879 156.361 93.4319 156.025 94.1199C155.705 94.7919 155.545 95.5519 155.545 96.3999V103H154.105V95.2719C154.105 93.0159 153.145 91.8879 151.225 91.8879C150.457 91.8879 149.777 92.0879 149.185 92.4879C148.593 92.8879 148.129 93.4319 147.793 94.1199C147.473 94.7919 147.313 95.5519 147.313 96.3999V103H145.873V90.8559Z" fill="#1C1D20"/>
<path d="M112.926 101.344C112.926 100.784 113.086 100.32 113.406 99.952C113.742 99.568 114.246 99.376 114.918 99.376C115.59 99.376 116.086 99.568 116.406 99.952C116.742 100.32 116.91 100.784 116.91 101.344C116.91 101.904 116.742 102.376 116.406 102.76C116.086 103.128 115.59 103.312 114.918 103.312C114.246 103.312 113.742 103.128 113.406 102.76C113.086 102.376 112.926 101.904 112.926 101.344Z" fill="#5755EF"/>
<path d="M40.1367 114.34H43.4967C44.6354 114.34 45.5127 114.601 46.1287 115.124C46.754 115.647 47.0667 116.389 47.0667 117.35C47.0667 118.339 46.7634 119.091 46.1567 119.604C45.55 120.108 44.6634 120.36 43.4967 120.36H41.0187V124H40.1367V114.34ZM46.1567 117.35C46.1567 115.894 45.27 115.166 43.4967 115.166H41.0187V119.534H43.4967C44.4207 119.534 45.0927 119.361 45.5127 119.016C45.942 118.671 46.1567 118.115 46.1567 117.35ZM48.0093 120.458C48.0093 119.693 48.1446 119.035 48.4153 118.484C48.686 117.924 49.064 117.495 49.5493 117.196C50.0346 116.888 50.5993 116.734 51.2433 116.734C51.8873 116.734 52.452 116.888 52.9373 117.196C53.4226 117.495 53.8006 117.924 54.0713 118.484C54.342 119.035 54.4773 119.693 54.4773 120.458C54.4773 121.214 54.342 121.872 54.0713 122.432C53.8006 122.992 53.4226 123.426 52.9373 123.734C52.452 124.033 51.8873 124.182 51.2433 124.182C50.5993 124.182 50.0346 124.033 49.5493 123.734C49.064 123.426 48.686 122.992 48.4153 122.432C48.1446 121.872 48.0093 121.214 48.0093 120.458ZM49.5213 118.288C49.092 118.801 48.8773 119.525 48.8773 120.458C48.8773 121.391 49.092 122.115 49.5213 122.628C49.9506 123.141 50.5246 123.398 51.2433 123.398C51.962 123.398 52.536 123.141 52.9653 122.628C53.3946 122.115 53.6093 121.391 53.6093 120.458C53.6093 119.525 53.3946 118.801 52.9653 118.288C52.536 117.775 51.962 117.518 51.2433 117.518C50.5246 117.518 49.9506 117.775 49.5213 118.288ZM57.9199 123.188L59.9639 116.916H60.8319L62.8059 123.23L64.4439 116.916H65.2979L63.3239 124H62.2879L60.3839 117.882L58.3819 124H57.3459L55.3719 116.916H56.3099L57.9199 123.188ZM66.2021 120.458C66.2021 119.693 66.3327 119.035 66.5941 118.484C66.8554 117.924 67.2241 117.495 67.7001 117.196C68.1854 116.888 68.7501 116.734 69.3941 116.734C70.3461 116.734 71.0927 117.042 71.6341 117.658C72.1754 118.265 72.4461 119.105 72.4461 120.178V120.71H67.0561C67.0934 121.587 67.3127 122.255 67.7141 122.712C68.1154 123.169 68.6847 123.398 69.4221 123.398C70.5234 123.398 71.2047 122.969 71.4661 122.11H72.3341C71.9794 123.491 71.0087 124.182 69.4221 124.182C68.4141 124.182 67.6254 123.851 67.0561 123.188C66.4867 122.525 66.2021 121.615 66.2021 120.458ZM67.7701 118.162C67.3687 118.591 67.1354 119.203 67.0701 119.996H71.5781C71.5407 119.193 71.3354 118.577 70.9621 118.148C70.5887 117.719 70.0614 117.504 69.3801 117.504C68.7081 117.504 68.1714 117.723 67.7701 118.162ZM74.1126 116.916H74.8546L74.9106 118.596C75.0786 118.045 75.354 117.616 75.7366 117.308C76.1286 116.991 76.53 116.832 76.9406 116.832H77.5426V117.644H76.8846C76.5206 117.644 76.1893 117.756 75.8906 117.98C75.6013 118.195 75.3726 118.503 75.2046 118.904C75.0366 119.296 74.9526 119.758 74.9526 120.29V124H74.1126V116.916ZM78.1467 120.458C78.1467 119.693 78.2774 119.035 78.5387 118.484C78.8001 117.924 79.1687 117.495 79.6447 117.196C80.1301 116.888 80.6947 116.734 81.3387 116.734C82.2907 116.734 83.0374 117.042 83.5787 117.658C84.1201 118.265 84.3907 119.105 84.3907 120.178V120.71H79.0007C79.0381 121.587 79.2574 122.255 79.6587 122.712C80.0601 123.169 80.6294 123.398 81.3667 123.398C82.4681 123.398 83.1494 122.969 83.4107 122.11H84.2787C83.9241 123.491 82.9534 124.182 81.3667 124.182C80.3587 124.182 79.5701 123.851 79.0007 123.188C78.4314 122.525 78.1467 121.615 78.1467 120.458ZM79.7147 118.162C79.3134 118.591 79.0801 119.203 79.0147 119.996H83.5227C83.4854 119.193 83.2801 118.577 82.9067 118.148C82.5334 117.719 82.0061 117.504 81.3247 117.504C80.6527 117.504 80.1161 117.723 79.7147 118.162ZM85.6233 120.458C85.6233 119.693 85.7493 119.035 86.0013 118.484C86.2533 117.924 86.6126 117.495 87.0793 117.196C87.5553 116.888 88.1106 116.734 88.7453 116.734C89.3053 116.734 89.8093 116.883 90.2573 117.182C90.7053 117.481 91.0273 117.873 91.2233 118.358V113.99H92.0633V124H91.3213L91.2653 122.488C91.0973 122.992 90.7753 123.403 90.2993 123.72C89.8233 124.028 89.2866 124.182 88.6893 124.182C88.064 124.182 87.518 124.033 87.0513 123.734C86.594 123.426 86.2393 122.992 85.9873 122.432C85.7446 121.872 85.6233 121.214 85.6233 120.458ZM87.0933 118.288C86.692 118.792 86.4913 119.515 86.4913 120.458C86.4913 121.391 86.6966 122.115 87.1073 122.628C87.518 123.141 88.1013 123.398 88.8573 123.398C89.576 123.398 90.15 123.132 90.5793 122.6C91.0086 122.059 91.2233 121.345 91.2233 120.458C91.2233 119.571 91.0086 118.862 90.5793 118.33C90.15 117.789 89.576 117.518 88.8573 117.518C88.092 117.518 87.504 117.775 87.0933 118.288ZM96.8946 113.99H97.7346V118.358C97.9306 117.873 98.2572 117.481 98.7146 117.182C99.1719 116.883 99.6899 116.734 100.269 116.734C100.903 116.734 101.449 116.888 101.907 117.196C102.364 117.495 102.714 117.924 102.957 118.484C103.209 119.035 103.335 119.693 103.335 120.458C103.335 121.214 103.209 121.872 102.957 122.432C102.705 122.992 102.345 123.426 101.879 123.734C101.412 124.033 100.857 124.182 100.213 124.182C99.6246 124.182 99.0972 124.023 98.6306 123.706C98.1732 123.389 97.8606 122.978 97.6926 122.474L97.6366 124H96.8946V113.99ZM97.7346 120.458C97.7346 121.345 97.9492 122.059 98.3786 122.6C98.8079 123.132 99.3819 123.398 100.101 123.398C100.847 123.398 101.426 123.151 101.837 122.656C102.257 122.161 102.467 121.429 102.467 120.458C102.467 119.487 102.257 118.755 101.837 118.26C101.417 117.765 100.838 117.518 100.101 117.518C99.3819 117.518 98.8079 117.789 98.3786 118.33C97.9492 118.862 97.7346 119.571 97.7346 120.458ZM104.599 126.128H105.019C105.308 126.128 105.551 126.086 105.747 126.002C105.943 125.918 106.111 125.769 106.251 125.554C106.4 125.349 106.549 125.055 106.699 124.672L106.909 124.14L103.955 116.916H104.921L107.357 123.076L109.751 116.916H110.647L107.469 124.882C107.263 125.395 107.053 125.797 106.839 126.086C106.633 126.375 106.391 126.576 106.111 126.688C105.831 126.809 105.481 126.87 105.061 126.87H104.599V126.128ZM117.546 120.15L113.822 114.34H114.872L118.022 119.324L121.186 114.34H122.152L118.428 120.15V124H117.546V120.15ZM121.621 120.458C121.621 119.693 121.752 119.035 122.013 118.484C122.275 117.924 122.643 117.495 123.119 117.196C123.605 116.888 124.169 116.734 124.813 116.734C125.765 116.734 126.512 117.042 127.053 117.658C127.595 118.265 127.865 119.105 127.865 120.178V120.71H122.475C122.513 121.587 122.732 122.255 123.133 122.712C123.535 123.169 124.104 123.398 124.841 123.398C125.943 123.398 126.624 122.969 126.885 122.11H127.753C127.399 123.491 126.428 124.182 124.841 124.182C123.833 124.182 123.045 123.851 122.475 123.188C121.906 122.525 121.621 121.615 121.621 120.458ZM123.189 118.162C122.788 118.591 122.555 119.203 122.489 119.996H126.997C126.96 119.193 126.755 118.577 126.381 118.148C126.008 117.719 125.481 117.504 124.799 117.504C124.127 117.504 123.591 117.723 123.189 118.162ZM129.37 124H128.39L131.036 120.304L128.642 116.916H129.65L131.596 119.646L133.514 116.916H134.466L132.072 120.234L134.732 124H133.71L131.526 120.892L129.37 124ZM136.431 121.648V117.672H135.045V116.958C135.511 116.958 135.852 116.921 136.067 116.846C136.291 116.762 136.435 116.589 136.501 116.328C136.566 116.067 136.599 115.665 136.599 115.124H137.271V116.916H139.623V117.672H137.271V121.536C137.271 122.189 137.383 122.651 137.607 122.922C137.831 123.193 138.213 123.328 138.755 123.328H139.539V124.07H138.615C137.159 124.07 136.431 123.263 136.431 121.648Z" fill="#6F7074"/>
<path d="M103 37.5L94 45.7272L94 29.2728L103 37.5Z" fill="white"/>
<path d="M65 10.5L69 6.5L74 3.77206V34.3726V41.8001H65V10.5Z" fill="white"/>
<path d="M66 33L70.5 33.05H74.5H75.52H97.43V41.8H66V33Z" fill="white"/>
</svg>
