<svg width="236" height="67" viewBox="0 0 236 67" fill="none" xmlns="http://www.w3.org/2000/svg">
<rect width="67" height="67" rx="33.5" fill="#5A58F2"/>
<mask id="mask0_2544_5494" style="mask-type:alpha" maskUnits="userSpaceOnUse" x="0" y="0" width="67" height="67">
<circle cx="33.5" cy="33.5" r="33.5" fill="#5A58F2"/>
</mask>
<g mask="url(#mask0_2544_5494)">
<ellipse cx="57.5" cy="37.375" rx="4.5" ry="4.375" fill="white"/>
</g>
<path d="M51 37.5L42 45.7272L42 29.2728L51 37.5Z" fill="white"/>
<path d="M11 8.21391L15 4.21387L20 1.48592V32.0864V39.514H11V8.21391Z" fill="white"/>
<path d="M11 33.1001L15.5 33.1501H19.5H20.52H42.43V41.9001H11V33.1001Z" fill="white"/>
<path d="M84.848 12.94H88.112V26.5H95.624V29.5H84.848V12.94ZM97.0679 23.332C97.0679 22.004 97.3239 20.852 97.8359 19.876C98.3479 18.9 99.0679 18.148 99.9959 17.62C100.924 17.076 102.02 16.804 103.284 16.804C104.548 16.804 105.644 17.076 106.572 17.62C107.5 18.148 108.22 18.9 108.732 19.876C109.244 20.852 109.5 22.004 109.5 23.332C109.5 24.644 109.244 25.796 108.732 26.788C108.22 27.764 107.5 28.524 106.572 29.068C105.644 29.596 104.548 29.86 103.284 29.86C102.02 29.86 100.924 29.596 99.9959 29.068C99.0679 28.524 98.3479 27.764 97.8359 26.788C97.3239 25.796 97.0679 24.644 97.0679 23.332ZM106.284 23.332C106.284 22.148 106.02 21.236 105.492 20.596C104.964 19.94 104.228 19.612 103.284 19.612C102.34 19.612 101.604 19.94 101.076 20.596C100.548 21.236 100.284 22.148 100.284 23.332C100.284 24.5 100.548 25.412 101.076 26.068C101.604 26.724 102.34 27.052 103.284 27.052C104.228 27.052 104.964 26.724 105.492 26.068C106.02 25.412 106.284 24.5 106.284 23.332ZM111.138 23.332C111.138 22.02 111.386 20.876 111.882 19.9C112.378 18.924 113.082 18.164 113.994 17.62C114.922 17.076 116.018 16.804 117.282 16.804C118.962 16.804 120.322 17.236 121.362 18.1C122.402 18.964 122.978 20.164 123.09 21.7H119.898C119.754 21.044 119.482 20.532 119.082 20.164C118.682 19.796 118.074 19.612 117.258 19.612C116.41 19.612 115.714 19.924 115.17 20.548C114.626 21.172 114.354 22.1 114.354 23.332C114.354 24.564 114.618 25.492 115.146 26.116C115.674 26.74 116.378 27.052 117.258 27.052C118.074 27.052 118.682 26.876 119.082 26.524C119.482 26.156 119.746 25.62 119.874 24.916H123.114C122.954 26.484 122.37 27.7 121.362 28.564C120.354 29.428 118.994 29.86 117.282 29.86C116.034 29.86 114.946 29.596 114.018 29.068C113.106 28.524 112.394 27.764 111.882 26.788C111.386 25.796 111.138 24.644 111.138 23.332ZM124.694 26.116C124.694 24.98 125.134 24.076 126.014 23.404C126.894 22.716 128.374 22.3 130.454 22.156L133.022 21.964V21.628C133.022 20.156 132.214 19.42 130.598 19.42C129.862 19.42 129.286 19.588 128.87 19.924C128.47 20.244 128.23 20.66 128.15 21.172H125.126C125.238 19.78 125.806 18.708 126.83 17.956C127.854 17.188 129.134 16.804 130.67 16.804C132.526 16.804 133.886 17.236 134.75 18.1C135.63 18.948 136.07 20.108 136.07 21.58V29.5H133.262L133.19 27.796C132.726 28.5 132.126 29.02 131.39 29.356C130.654 29.692 129.862 29.86 129.014 29.86C127.558 29.86 126.47 29.524 125.75 28.852C125.046 28.164 124.694 27.252 124.694 26.116ZM127.934 26.02C127.934 26.404 128.062 26.724 128.318 26.98C128.59 27.236 129.006 27.364 129.566 27.364C130.622 27.364 131.446 27.06 132.038 26.452C132.63 25.828 132.958 25.1 133.022 24.268L130.742 24.436C129.654 24.516 128.91 24.692 128.51 24.964C128.126 25.236 127.934 25.588 127.934 26.02ZM139.928 25.396V19.876H137.504V17.212C138.368 17.212 139.008 17.148 139.424 17.02C139.84 16.876 140.12 16.588 140.264 16.156C140.424 15.708 140.512 15.036 140.528 14.14H143.048V17.164H146.36V19.876H143.048V24.7C143.048 25.532 143.184 26.124 143.456 26.476C143.728 26.828 144.216 27.004 144.92 27.004H146.216V29.644H144.536C142.936 29.644 141.768 29.3 141.032 28.612C140.296 27.908 139.928 26.836 139.928 25.396ZM148.49 17.164H151.61V29.5H148.49V17.164ZM148.202 13.948C148.202 13.388 148.362 12.948 148.682 12.628C149.018 12.308 149.474 12.148 150.05 12.148C150.626 12.148 151.074 12.308 151.394 12.628C151.73 12.948 151.898 13.388 151.898 13.948C151.898 14.508 151.73 14.948 151.394 15.268C151.074 15.588 150.626 15.748 150.05 15.748C149.474 15.748 149.018 15.588 148.682 15.268C148.362 14.948 148.202 14.508 148.202 13.948ZM153.965 23.332C153.965 22.004 154.221 20.852 154.733 19.876C155.245 18.9 155.965 18.148 156.893 17.62C157.821 17.076 158.917 16.804 160.181 16.804C161.445 16.804 162.541 17.076 163.469 17.62C164.397 18.148 165.117 18.9 165.629 19.876C166.141 20.852 166.397 22.004 166.397 23.332C166.397 24.644 166.141 25.796 165.629 26.788C165.117 27.764 164.397 28.524 163.469 29.068C162.541 29.596 161.445 29.86 160.181 29.86C158.917 29.86 157.821 29.596 156.893 29.068C155.965 28.524 155.245 27.764 154.733 26.788C154.221 25.796 153.965 24.644 153.965 23.332ZM163.181 23.332C163.181 22.148 162.917 21.236 162.389 20.596C161.861 19.94 161.125 19.612 160.181 19.612C159.237 19.612 158.501 19.94 157.973 20.596C157.445 21.236 157.181 22.148 157.181 23.332C157.181 24.5 157.445 25.412 157.973 26.068C158.501 26.724 159.237 27.052 160.181 27.052C161.125 27.052 161.861 26.724 162.389 26.068C162.917 25.412 163.181 24.5 163.181 23.332ZM168.755 17.164H171.707L171.779 19.156C172.163 18.42 172.715 17.844 173.435 17.428C174.155 17.012 174.971 16.804 175.883 16.804C177.259 16.804 178.323 17.228 179.075 18.076C179.827 18.908 180.203 20.084 180.203 21.604V29.5H177.083V22.228C177.083 20.516 176.355 19.66 174.899 19.66C174.339 19.66 173.827 19.812 173.363 20.116C172.899 20.42 172.531 20.828 172.259 21.34C172.003 21.852 171.875 22.436 171.875 23.092V29.5H168.755V17.164ZM188.728 23.428C188.728 22.132 188.952 21.012 189.4 20.068C189.864 19.108 190.504 18.364 191.32 17.836C192.136 17.308 193.096 17.044 194.2 17.044C195.688 17.044 196.88 17.428 197.776 18.196C198.672 18.964 199.184 20.06 199.312 21.484H197.848C197.576 19.42 196.36 18.388 194.2 18.388C192.968 18.388 191.992 18.836 191.272 19.732C190.568 20.628 190.216 21.86 190.216 23.428C190.216 24.996 190.576 26.228 191.296 27.124C192.032 28.02 193.032 28.468 194.296 28.468C196.264 28.468 197.44 27.428 197.824 25.348H199.312C198.832 28.324 197.16 29.812 194.296 29.812C193.16 29.812 192.176 29.556 191.344 29.044C190.512 28.516 189.864 27.772 189.4 26.812C188.952 25.852 188.728 24.724 188.728 23.428ZM201.439 23.428C201.439 22.116 201.671 20.988 202.135 20.044C202.599 19.084 203.247 18.348 204.079 17.836C204.911 17.308 205.879 17.044 206.983 17.044C208.087 17.044 209.055 17.308 209.887 17.836C210.719 18.348 211.367 19.084 211.831 20.044C212.295 20.988 212.527 22.116 212.527 23.428C212.527 24.724 212.295 25.852 211.831 26.812C211.367 27.772 210.719 28.516 209.887 29.044C209.055 29.556 208.087 29.812 206.983 29.812C205.879 29.812 204.911 29.556 204.079 29.044C203.247 28.516 202.599 27.772 202.135 26.812C201.671 25.852 201.439 24.724 201.439 23.428ZM204.031 19.708C203.295 20.588 202.927 21.828 202.927 23.428C202.927 25.028 203.295 26.268 204.031 27.148C204.767 28.028 205.751 28.468 206.983 28.468C208.215 28.468 209.199 28.028 209.935 27.148C210.671 26.268 211.039 25.028 211.039 23.428C211.039 21.828 210.671 20.588 209.935 19.708C209.199 18.828 208.215 18.388 206.983 18.388C205.751 18.388 204.767 18.828 204.031 19.708ZM215.504 17.356H216.776L216.872 19.972C217.192 19.076 217.736 18.364 218.504 17.836C219.272 17.308 220.112 17.044 221.024 17.044C222.08 17.044 222.952 17.3 223.64 17.812C224.328 18.324 224.784 19.052 225.008 19.996C225.344 19.116 225.904 18.404 226.688 17.86C227.472 17.316 228.336 17.044 229.28 17.044C230.608 17.044 231.632 17.436 232.352 18.22C233.088 18.988 233.456 20.076 233.456 21.484V29.5H232.016V21.772C232.016 19.516 231.048 18.388 229.112 18.388C228.328 18.388 227.64 18.588 227.048 18.988C226.456 19.388 225.992 19.932 225.656 20.62C225.336 21.292 225.176 22.052 225.176 22.9V29.5H223.736V21.772C223.736 19.516 222.776 18.388 220.856 18.388C220.088 18.388 219.408 18.588 218.816 18.988C218.224 19.388 217.76 19.932 217.424 20.62C217.104 21.292 216.944 22.052 216.944 22.9V29.5H215.504V17.356Z" fill="#1C1D20"/>
<path d="M182.556 27.844C182.556 27.284 182.716 26.82 183.036 26.452C183.372 26.068 183.876 25.876 184.548 25.876C185.22 25.876 185.716 26.068 186.036 26.452C186.372 26.82 186.54 27.284 186.54 27.844C186.54 28.404 186.372 28.876 186.036 29.26C185.716 29.628 185.22 29.812 184.548 29.812C183.876 29.812 183.372 29.628 183.036 29.26C182.716 28.876 182.556 28.404 182.556 27.844Z" fill="#5755EF"/>
<path d="M84.288 40.84H87.648C88.7867 40.84 89.664 41.1013 90.28 41.624C90.9053 42.1467 91.218 42.8887 91.218 43.85C91.218 44.8393 90.9147 45.5907 90.308 46.104C89.7013 46.608 88.8147 46.86 87.648 46.86H85.17V50.5H84.288V40.84ZM90.308 43.85C90.308 42.394 89.4213 41.666 87.648 41.666H85.17V46.034H87.648C88.572 46.034 89.244 45.8613 89.664 45.516C90.0933 45.1707 90.308 44.6153 90.308 43.85ZM92.1606 46.958C92.1606 46.1927 92.296 45.5347 92.5666 44.984C92.8373 44.424 93.2153 43.9947 93.7006 43.696C94.186 43.388 94.7506 43.234 95.3946 43.234C96.0386 43.234 96.6033 43.388 97.0886 43.696C97.574 43.9947 97.952 44.424 98.2226 44.984C98.4933 45.5347 98.6286 46.1927 98.6286 46.958C98.6286 47.714 98.4933 48.372 98.2226 48.932C97.952 49.492 97.574 49.926 97.0886 50.234C96.6033 50.5327 96.0386 50.682 95.3946 50.682C94.7506 50.682 94.186 50.5327 93.7006 50.234C93.2153 49.926 92.8373 49.492 92.5666 48.932C92.296 48.372 92.1606 47.714 92.1606 46.958ZM93.6726 44.788C93.2433 45.3013 93.0286 46.0247 93.0286 46.958C93.0286 47.8913 93.2433 48.6147 93.6726 49.128C94.102 49.6413 94.676 49.898 95.3946 49.898C96.1133 49.898 96.6873 49.6413 97.1166 49.128C97.546 48.6147 97.7606 47.8913 97.7606 46.958C97.7606 46.0247 97.546 45.3013 97.1166 44.788C96.6873 44.2747 96.1133 44.018 95.3946 44.018C94.676 44.018 94.102 44.2747 93.6726 44.788ZM102.071 49.688L104.115 43.416H104.983L106.957 49.73L108.595 43.416H109.449L107.475 50.5H106.439L104.535 44.382L102.533 50.5H101.497L99.5232 43.416H100.461L102.071 49.688ZM110.353 46.958C110.353 46.1927 110.484 45.5347 110.745 44.984C111.007 44.424 111.375 43.9947 111.851 43.696C112.337 43.388 112.901 43.234 113.545 43.234C114.497 43.234 115.244 43.542 115.785 44.158C116.327 44.7647 116.597 45.6047 116.597 46.678V47.21H111.207C111.245 48.0873 111.464 48.7547 111.865 49.212C112.267 49.6693 112.836 49.898 113.573 49.898C114.675 49.898 115.356 49.4687 115.617 48.61H116.485C116.131 49.9913 115.16 50.682 113.573 50.682C112.565 50.682 111.777 50.3507 111.207 49.688C110.638 49.0253 110.353 48.1153 110.353 46.958ZM111.921 44.662C111.52 45.0913 111.287 45.7027 111.221 46.496H115.729C115.692 45.6933 115.487 45.0773 115.113 44.648C114.74 44.2187 114.213 44.004 113.531 44.004C112.859 44.004 112.323 44.2233 111.921 44.662ZM118.264 43.416H119.006L119.062 45.096C119.23 44.5453 119.505 44.116 119.888 43.808C120.28 43.4907 120.681 43.332 121.092 43.332H121.694V44.144H121.036C120.672 44.144 120.341 44.256 120.042 44.48C119.753 44.6947 119.524 45.0027 119.356 45.404C119.188 45.796 119.104 46.258 119.104 46.79V50.5H118.264V43.416ZM122.298 46.958C122.298 46.1927 122.429 45.5347 122.69 44.984C122.951 44.424 123.32 43.9947 123.796 43.696C124.281 43.388 124.846 43.234 125.49 43.234C126.442 43.234 127.189 43.542 127.73 44.158C128.271 44.7647 128.542 45.6047 128.542 46.678V47.21H123.152C123.189 48.0873 123.409 48.7547 123.81 49.212C124.211 49.6693 124.781 49.898 125.518 49.898C126.619 49.898 127.301 49.4687 127.562 48.61H128.43C128.075 49.9913 127.105 50.682 125.518 50.682C124.51 50.682 123.721 50.3507 123.152 49.688C122.583 49.0253 122.298 48.1153 122.298 46.958ZM123.866 44.662C123.465 45.0913 123.231 45.7027 123.166 46.496H127.674C127.637 45.6933 127.431 45.0773 127.058 44.648C126.685 44.2187 126.157 44.004 125.476 44.004C124.804 44.004 124.267 44.2233 123.866 44.662ZM129.775 46.958C129.775 46.1927 129.901 45.5347 130.153 44.984C130.405 44.424 130.764 43.9947 131.231 43.696C131.707 43.388 132.262 43.234 132.897 43.234C133.457 43.234 133.961 43.3833 134.409 43.682C134.857 43.9807 135.179 44.3727 135.375 44.858V40.49H136.215V50.5H135.473L135.417 48.988C135.249 49.492 134.927 49.9027 134.451 50.22C133.975 50.528 133.438 50.682 132.841 50.682C132.215 50.682 131.669 50.5327 131.203 50.234C130.745 49.926 130.391 49.492 130.139 48.932C129.896 48.372 129.775 47.714 129.775 46.958ZM131.245 44.788C130.843 45.292 130.643 46.0153 130.643 46.958C130.643 47.8913 130.848 48.6147 131.259 49.128C131.669 49.6413 132.253 49.898 133.009 49.898C133.727 49.898 134.301 49.632 134.731 49.1C135.16 48.5587 135.375 47.8447 135.375 46.958C135.375 46.0713 135.16 45.362 134.731 44.83C134.301 44.2887 133.727 44.018 133.009 44.018C132.243 44.018 131.655 44.2747 131.245 44.788ZM141.046 40.49H141.886V44.858C142.082 44.3727 142.409 43.9807 142.866 43.682C143.323 43.3833 143.841 43.234 144.42 43.234C145.055 43.234 145.601 43.388 146.058 43.696C146.515 43.9947 146.865 44.424 147.108 44.984C147.36 45.5347 147.486 46.1927 147.486 46.958C147.486 47.714 147.36 48.372 147.108 48.932C146.856 49.492 146.497 49.926 146.03 50.234C145.563 50.5327 145.008 50.682 144.364 50.682C143.776 50.682 143.249 50.5233 142.782 50.206C142.325 49.8887 142.012 49.478 141.844 48.974L141.788 50.5H141.046V40.49ZM141.886 46.958C141.886 47.8447 142.101 48.5587 142.53 49.1C142.959 49.632 143.533 49.898 144.252 49.898C144.999 49.898 145.577 49.6507 145.988 49.156C146.408 48.6613 146.618 47.9287 146.618 46.958C146.618 45.9873 146.408 45.2547 145.988 44.76C145.568 44.2653 144.989 44.018 144.252 44.018C143.533 44.018 142.959 44.2887 142.53 44.83C142.101 45.362 141.886 46.0713 141.886 46.958ZM148.75 52.628H149.17C149.459 52.628 149.702 52.586 149.898 52.502C150.094 52.418 150.262 52.2687 150.402 52.054C150.551 51.8487 150.7 51.5547 150.85 51.172L151.06 50.64L148.106 43.416H149.072L151.508 49.576L153.902 43.416H154.798L151.62 51.382C151.414 51.8953 151.204 52.2967 150.99 52.586C150.784 52.8753 150.542 53.076 150.262 53.188C149.982 53.3093 149.632 53.37 149.212 53.37H148.75V52.628ZM161.698 46.65L157.974 40.84H159.024L162.174 45.824L165.338 40.84H166.304L162.58 46.65V50.5H161.698V46.65ZM165.772 46.958C165.772 46.1927 165.903 45.5347 166.164 44.984C166.426 44.424 166.794 43.9947 167.27 43.696C167.756 43.388 168.32 43.234 168.964 43.234C169.916 43.234 170.663 43.542 171.204 44.158C171.746 44.7647 172.016 45.6047 172.016 46.678V47.21H166.626C166.664 48.0873 166.883 48.7547 167.284 49.212C167.686 49.6693 168.255 49.898 168.992 49.898C170.094 49.898 170.775 49.4687 171.036 48.61H171.904C171.55 49.9913 170.579 50.682 168.992 50.682C167.984 50.682 167.196 50.3507 166.626 49.688C166.057 49.0253 165.772 48.1153 165.772 46.958ZM167.34 44.662C166.939 45.0913 166.706 45.7027 166.64 46.496H171.148C171.111 45.6933 170.906 45.0773 170.532 44.648C170.159 44.2187 169.632 44.004 168.95 44.004C168.278 44.004 167.742 44.2233 167.34 44.662ZM173.522 50.5H172.542L175.188 46.804L172.794 43.416H173.802L175.748 46.146L177.666 43.416H178.618L176.224 46.734L178.884 50.5H177.862L175.678 47.392L173.522 50.5ZM180.582 48.148V44.172H179.196V43.458C179.663 43.458 180.003 43.4207 180.218 43.346C180.442 43.262 180.587 43.0893 180.652 42.828C180.717 42.5667 180.75 42.1653 180.75 41.624H181.422V43.416H183.774V44.172H181.422V48.036C181.422 48.6893 181.534 49.1513 181.758 49.422C181.982 49.6927 182.365 49.828 182.906 49.828H183.69V50.57H182.766C181.31 50.57 180.582 49.7627 180.582 48.148Z" fill="#6F7074"/>
</svg>
