<svg width="16" height="16" viewBox="0 0 16 16" fill="none" xmlns="http://www.w3.org/2000/svg">
<path d="M7.99961 2.68998L6.77961 6.52248C6.72711 6.68748 6.57461 6.79998 6.39961 6.79998H2.68211L5.83211 9.07498C5.96961 9.17498 6.02961 9.35248 5.97961 9.51498L4.88711 13.115L7.75461 10.885C7.89961 10.7725 8.10211 10.7725 8.24461 10.885L11.1121 13.115L10.0171 9.51748C9.96711 9.35498 10.0271 9.17748 10.1646 9.07748L13.3146 6.80248H9.59961C9.42461 6.80248 9.27211 6.68998 9.21961 6.52498L7.99961 2.68998ZM7.35711 2.06998C7.44711 1.78998 7.70711 1.59998 7.99961 1.59998C8.29211 1.59998 8.55211 1.78998 8.64211 2.06998L9.89211 5.99998H13.7346C14.1021 5.99998 14.3996 6.29748 14.3996 6.66498C14.3996 6.87748 14.2971 7.07998 14.1246 7.20498L10.8646 9.55748L12.1346 13.7325C12.2371 14.065 11.9871 14.4025 11.6396 14.4025C11.5246 14.4025 11.4121 14.365 11.3221 14.2925L7.99961 11.7075L4.67711 14.29C4.58711 14.36 4.47461 14.4 4.35961 14.4C4.01211 14.4 3.76211 14.065 3.86461 13.73L5.13461 9.55498L1.87461 7.20248C1.70211 7.07748 1.59961 6.87748 1.59961 6.66248C1.59961 6.29748 1.89711 5.99998 2.26461 5.99998H6.10711L7.35711 2.06998Z" fill="#1C1D20"/>
</svg>
