<svg width="16" height="16" viewBox="0 0 16 16" fill="none" xmlns="http://www.w3.org/2000/svg">
<path d="M7.99961 2.39998C9.48482 2.39998 10.9092 2.98997 11.9594 4.04018C13.0096 5.09038 13.5996 6.51476 13.5996 7.99998C13.5996 9.48519 13.0096 10.9096 11.9594 11.9598C10.9092 13.01 9.48482 13.6 7.99961 13.6C6.5144 13.6 5.09002 13.01 4.03981 11.9598C2.98961 10.9096 2.39961 9.48519 2.39961 7.99998C2.39961 6.51476 2.98961 5.09038 4.03981 4.04018C5.09002 2.98997 6.5144 2.39998 7.99961 2.39998ZM7.99961 14.4C9.697 14.4 11.3249 13.7257 12.5251 12.5255C13.7253 11.3252 14.3996 9.69736 14.3996 7.99998C14.3996 6.30259 13.7253 4.67473 12.5251 3.47449C11.3249 2.27426 9.697 1.59998 7.99961 1.59998C6.30222 1.59998 4.67436 2.27426 3.47413 3.47449C2.27389 4.67473 1.59961 6.30259 1.59961 7.99998C1.59961 9.69736 2.27389 11.3252 3.47413 12.5255C4.67436 13.7257 6.30222 14.4 7.99961 14.4ZM10.6821 6.68248C10.8371 6.52748 10.8371 6.27248 10.6821 6.11748C10.5271 5.96248 10.2721 5.96248 10.1171 6.11748L7.19961 9.03498L5.88211 7.71748C5.72711 7.56248 5.47211 7.56248 5.31711 7.71748C5.16211 7.87248 5.16211 8.12748 5.31711 8.28248L6.91711 9.88248C7.07211 10.0375 7.32711 10.0375 7.48211 9.88248L10.6821 6.68248Z" fill="#1C1D20"/>
</svg>
