<svg width="16" height="16" viewBox="0 0 16 16" fill="none" xmlns="http://www.w3.org/2000/svg">
<path d="M6.32221 10.9007L5.06213 9.64066C5.52716 8.5731 6.60473 6.19795 7.43978 4.96537C9.2149 2.35271 11.8251 2.2152 13.4927 2.50772C13.7852 4.17532 13.6477 6.78548 11.0325 8.55809C9.79743 9.39565 7.39478 10.4482 6.32221 10.9007ZM4.32459 9.33064C4.19458 9.62816 4.26208 9.97318 4.4921 10.2032L5.75968 11.4708C5.98719 11.6983 6.32721 11.7683 6.62223 11.6433C6.78474 11.5758 6.97975 11.4933 7.19727 11.3983L7.19977 14.0009C7.19977 14.1384 7.27227 14.2685 7.38978 14.341C7.50729 14.4135 7.6548 14.421 7.77981 14.3585L10.3175 13.0909C10.86 12.8209 11.2025 12.2658 11.2025 11.6608V9.40315C11.3025 9.34064 11.395 9.28064 11.485 9.22064C14.5027 7.17301 14.6027 4.12282 14.2677 2.3027C14.2152 2.01268 13.9877 1.78767 13.6977 1.73267C11.8776 1.39765 8.82737 1.49765 6.77974 4.51784C6.71974 4.60785 6.65723 4.70035 6.59723 4.80036H4.34209C3.73705 4.80036 3.18202 5.14288 2.912 5.68541L1.64192 8.22057C1.57942 8.34558 1.58692 8.49309 1.65942 8.6106C1.73193 8.72811 1.86193 8.80061 1.99944 8.80061H4.5621C4.4721 9.00062 4.39209 9.18063 4.32709 9.33064H4.32459ZM7.99982 13.3534V11.0408C8.75737 10.6982 9.63492 10.2832 10.4 9.86568V11.6583C10.4 11.9608 10.23 12.2383 9.95744 12.3733L7.99982 13.3534ZM4.34209 5.60041H6.1297C5.70718 6.36796 5.27965 7.24551 4.92713 8.00056H2.64698L3.62454 6.04294C3.75955 5.77292 4.03707 5.60041 4.33959 5.60041H4.34209ZM11.4 5.20038C11.4 5.35952 11.3368 5.51215 11.2243 5.62467C11.1118 5.7372 10.9591 5.80042 10.8 5.80042C10.6409 5.80042 10.4882 5.7372 10.3757 5.62467C10.2632 5.51215 10.2 5.35952 10.2 5.20038C10.2 5.04124 10.2632 4.88862 10.3757 4.77609C10.4882 4.66356 10.6409 4.60035 10.8 4.60035C10.9591 4.60035 11.1118 4.66356 11.2243 4.77609C11.3368 4.88862 11.4 5.04124 11.4 5.20038ZM10.8 3.8003C10.6161 3.8003 10.4341 3.83651 10.2642 3.90687C10.0943 3.97723 9.93999 4.08036 9.80998 4.21037C9.67997 4.34038 9.57684 4.49473 9.50648 4.66459C9.43612 4.83446 9.39991 5.01652 9.39991 5.20038C9.39991 5.38425 9.43612 5.56631 9.50648 5.73617C9.57684 5.90604 9.67997 6.06039 9.80998 6.1904C9.93999 6.32041 10.0943 6.42354 10.2642 6.4939C10.4341 6.56426 10.6161 6.60047 10.8 6.60047C10.9839 6.60047 11.1659 6.56426 11.3358 6.4939C11.5057 6.42354 11.66 6.32041 11.79 6.1904C11.92 6.06039 12.0231 5.90604 12.0935 5.73617C12.1639 5.56631 12.2001 5.38425 12.2001 5.20038C12.2001 5.01652 12.1639 4.83446 12.0935 4.66459C12.0231 4.49473 11.92 4.34038 11.79 4.21037C11.66 4.08036 11.5057 3.97723 11.3358 3.90687C11.1659 3.83651 10.9839 3.8003 10.8 3.8003Z" fill="white"/>
</svg>
