<svg width="16" height="16" viewBox="0 0 16 16" fill="none" xmlns="http://www.w3.org/2000/svg">
<path d="M1.95516 13.7778C1.75961 13.7778 1.59961 13.6178 1.59961 13.4222C1.59961 13.2267 1.75961 13.0667 1.95516 13.0667H2.31072V12.1422C2.31072 11.0445 2.81739 10.0089 3.68405 9.33558L5.28628 8.08891L3.68405 6.84225C2.81739 6.16891 2.31072 5.13114 2.31072 4.03558V3.11114H1.95516C1.75961 3.11114 1.59961 2.95114 1.59961 2.75558C1.59961 2.56002 1.75961 2.40002 1.95516 2.40002H2.66628H9.06628H9.77739C9.97294 2.40002 10.1329 2.56002 10.1329 2.75558C10.1329 2.95114 9.97294 3.11114 9.77739 3.11114H9.42183V4.03558C9.42183 5.13336 8.91517 6.16891 8.0485 6.84225L6.44628 8.08891L7.61961 9.00225C7.51961 9.23114 7.43961 9.47114 7.38405 9.72002L5.86628 8.54002L4.11961 9.8978C3.42628 10.4356 3.02183 11.2645 3.02183 12.1422V13.0667H8.18183C8.40405 13.3356 8.66405 13.5756 8.95072 13.7778H2.66628H1.95516ZM5.86628 7.6378L7.61294 6.28002C8.30628 5.74002 8.71072 4.91336 8.71072 4.03558V3.11114H3.02183V4.03558C3.02183 4.91336 3.42628 5.74225 4.11961 6.28002L5.86628 7.6378ZM11.1996 13.0667C11.8597 13.0667 12.4928 12.8045 12.9595 12.3377C13.4263 11.871 13.6885 11.2379 13.6885 10.5778C13.6885 9.91771 13.4263 9.28465 12.9595 8.81789C12.4928 8.35114 11.8597 8.08891 11.1996 8.08891C10.5395 8.08891 9.90646 8.35114 9.4397 8.81789C8.97294 9.28465 8.71072 9.91771 8.71072 10.5778C8.71072 11.2379 8.97294 11.871 9.4397 12.3377C9.90646 12.8045 10.5395 13.0667 11.1996 13.0667ZM11.1996 7.3778C12.0483 7.3778 12.8622 7.71494 13.4624 8.31506C14.0625 8.91518 14.3996 9.72911 14.3996 10.5778C14.3996 11.4265 14.0625 12.2404 13.4624 12.8405C12.8622 13.4407 12.0483 13.7778 11.1996 13.7778C10.3509 13.7778 9.53698 13.4407 8.93687 12.8405C8.33675 12.2404 7.99961 11.4265 7.99961 10.5778C7.99961 9.72911 8.33675 8.91518 8.93687 8.31506C9.53698 7.71494 10.3509 7.3778 11.1996 7.3778ZM11.1996 8.80002C11.3952 8.80002 11.5552 8.96002 11.5552 9.15558V10.2222H12.2663C12.4618 10.2222 12.6218 10.3822 12.6218 10.5778C12.6218 10.7734 12.4618 10.9334 12.2663 10.9334H11.1996C11.0041 10.9334 10.8441 10.7734 10.8441 10.5778V9.15558C10.8441 8.96002 11.0041 8.80002 11.1996 8.80002Z" fill="#1C1D20"/>
</svg>
