<svg width="16" height="16" viewBox="0 0 16 16" fill="none" xmlns="http://www.w3.org/2000/svg">
<path d="M1.99961 2.40002C2.21961 2.40002 2.39961 2.58002 2.39961 2.80002V11.6C2.39961 12.2625 2.93711 12.8 3.59961 12.8H13.9996C14.2196 12.8 14.3996 12.98 14.3996 13.2C14.3996 13.42 14.2196 13.6 13.9996 13.6H3.59961C2.49461 13.6 1.59961 12.705 1.59961 11.6V2.80002C1.59961 2.58002 1.77961 2.40002 1.99961 2.40002ZM5.19961 8.00002C5.41961 8.00002 5.59961 8.18002 5.59961 8.40002V10.8C5.59961 11.02 5.41961 11.2 5.19961 11.2C4.97961 11.2 4.79961 11.02 4.79961 10.8V8.40002C4.79961 8.18002 4.97961 8.00002 5.19961 8.00002ZM7.99961 5.20002V10.8C7.99961 11.02 7.81961 11.2 7.59961 11.2C7.37961 11.2 7.19961 11.02 7.19961 10.8V5.20002C7.19961 4.98002 7.37961 4.80002 7.59961 4.80002C7.81961 4.80002 7.99961 4.98002 7.99961 5.20002ZM9.99961 6.40002C10.2196 6.40002 10.3996 6.58002 10.3996 6.80002V10.8C10.3996 11.02 10.2196 11.2 9.99961 11.2C9.77961 11.2 9.59961 11.02 9.59961 10.8V6.80002C9.59961 6.58002 9.77961 6.40002 9.99961 6.40002ZM12.7996 4.40002V10.8C12.7996 11.02 12.6196 11.2 12.3996 11.2C12.1796 11.2 11.9996 11.02 11.9996 10.8V4.40002C11.9996 4.18002 12.1796 4.00002 12.3996 4.00002C12.6196 4.00002 12.7996 4.18002 12.7996 4.40002Z" fill="#1C1D20"/>
</svg>
