<svg version="1.1" id="Layer_1" xmlns:x="ns_extend;" xmlns:i="ns_ai;" xmlns:graph="ns_graphs;" xmlns="http://www.w3.org/2000/svg" xmlns:xlink="http://www.w3.org/1999/xlink" x="0px" y="0px" viewBox="0 0 282 353.2" style="enable-background:new 0 0 282 353.2;" xml:space="preserve">
 <style type="text/css">
  .st0{fill:#FF1A1A;}
 </style>
 <metadata>
  <sfw xmlns="ns_sfw;">
   <slices>
   </slices>
   <sliceSourceBounds bottomLeftOrigin="true" height="353.2" width="282" x="714.1" y="27.3">
   </sliceSourceBounds>
  </sfw>
 </metadata>
 <g>
  <path class="st0" d="M92.4,223l16.3-3.8c0.3-0.1,0.9-0.2,1.6-0.4c4.5-1.2,8.3-4.1,10.7-8.1s3.2-8.7,2.1-13.3c0-0.1,0-0.2-0.1-0.3
		c-0.5-2.2-1.5-4.2-2.8-6.1c-1.8-2.3-4.1-4.2-6.6-5.7c-3-1.7-6.2-3.2-9.4-4.4l-17.8-6.5c-10-3.7-20-7.3-30.1-10.9
		c-6.6-2.3-12.1-4.4-16.9-5.9c-0.9-0.3-1.9-0.6-2.7-0.8c-5.8-1.8-9.9-2.5-13.4-2.6c-2.3-0.1-4.6,0.3-6.8,1.2c-2.2,1-4.2,2.4-5.9,4.2
		c-0.8,0.9-1.6,1.9-2.3,2.9s-1.3,2.1-1.8,3.2c-0.6,1.2-1.1,2.4-1.6,3.6c-3.3,9.8-5,20.1-4.9,30.4c0.1,9.3,0.3,21.3,5.4,29.4
		c1.2,2.1,2.9,3.9,4.9,5.3c3.7,2.5,7.4,2.9,11.2,3.1c5.7,0.4,11.3-1,16.9-2.3L92.4,223L92.4,223z">
  </path>
  <path class="st0" d="M273.9,136.6c-4.4-9.3-10.4-17.8-17.7-25.2c-0.9-0.9-1.9-1.8-3-2.6c-1-0.7-2-1.4-3.1-2.1
		c-1.1-0.6-2.2-1.1-3.3-1.6c-2.3-0.9-4.7-1.3-7.1-1.2c-2.3,0.1-4.6,0.8-6.6,1.9c-3.1,1.5-6.5,4-10.9,8.2c-0.6,0.6-1.4,1.3-2.1,2
		c-3.7,3.5-7.8,7.7-12.7,12.7c-7.5,7.6-15,15.3-22.3,23l-13.2,13.7c-2.4,2.5-4.6,5.2-6.6,8.1c-1.7,2.4-2.9,5.2-3.5,8
		c-0.4,2.2-0.3,4.5,0.2,6.7c0,0.1,0,0.2,0.1,0.3c1,4.5,3.8,8.5,7.7,11s8.6,3.5,13.2,2.6c0.7-0.1,1.3-0.2,1.6-0.3l70.3-16.3
		c5.5-1.3,11.2-2.5,16.1-5.3c3.3-1.9,6.5-3.9,8.7-7.7c1.2-2.1,1.9-4.5,2.1-6.9C282.9,156,277.9,145.1,273.9,136.6z">
  </path>
  <path class="st0" d="M148,166.2c5.1-6.4,5.1-15.9,5.5-23.8c1.5-26.1,3.1-52.1,4.4-78.2c0.5-9.9,1.6-19.6,1-29.6
		c-0.5-8.2-0.5-17.6-5.7-24.4c-9.2-11.9-28.7-10.9-42-9.1C107.1,1.7,103,2.4,99,3.4s-8.1,2-12,3.3c-12.8,4.2-30.7,11.9-33.8,26.6
		c-1.7,8.3,2.3,16.8,5.5,24.4c3.8,9.2,9,17.5,13.8,26.2c12.6,22.9,25.4,45.6,38.2,68.4c3.8,6.8,8,15.4,15.4,18.9
		c0.5,0.2,1,0.4,1.5,0.6c3.3,1.3,6.9,1.5,10.4,0.7c0.2,0,0.4-0.1,0.6-0.1c3.2-0.9,6.1-2.6,8.3-5C147.2,167,147.6,166.6,148,166.2z">
  </path>
  <path class="st0" d="M141.9,236c-2-2.8-4.8-4.9-8.1-6s-6.8-1.1-10.1-0.1c-0.8,0.3-1.5,0.6-2.2,0.9c-1.1,0.6-2.2,1.2-3.2,2
		c-2.9,2.2-5.4,5-7.6,7.8c-0.6,0.7-1.1,1.7-1.8,2.3l-11.3,15.6c-6.4,8.7-12.7,17.5-19,26.3c-4.1,5.7-7.6,10.6-10.4,14.9
		c-0.5,0.8-1.1,1.7-1.6,2.4c-3.4,5.2-5.2,9-6.2,12.3c-0.7,2.2-1,4.6-0.7,6.9c0.3,2.4,1.1,4.8,2.4,6.9c0.7,1.1,1.4,2.1,2.2,3
		c0.8,0.9,1.7,1.8,2.6,2.7c1,0.9,2,1.8,3.1,2.5c7.8,5.4,16.4,9.3,25.4,12.4c7.5,2.5,15.3,4,23.1,4.4c1.3,0.1,2.7,0,4-0.1
		c1.2-0.1,2.5-0.3,3.7-0.5c1.2-0.3,2.4-0.6,3.6-1c2.3-0.9,4.4-2.2,6.1-3.9c1.7-1.7,2.9-3.7,3.7-5.9c1.3-3.3,2.2-7.4,2.7-13.5
		c0-0.9,0.2-1.9,0.3-2.9c0.4-5.1,0.7-11.1,1-18.1c0.6-10.8,1-21.6,1.3-32.4l0.7-19.2c0.2-4.4,0-9.3-1.2-13.7
		C143.9,239.9,143.1,237.9,141.9,236L141.9,236z">
  </path>
  <path class="st0" d="M269.6,266.1c-2.4-2.6-5.7-5.2-11-8.4c-0.8-0.4-1.7-1-2.5-1.5c-4.4-2.6-9.7-5.4-15.9-8.8
		c-9.5-5.2-19-10.3-28.6-15.3l-17-9c-0.9-0.3-1.8-0.9-2.6-1.3c-3.3-1.6-6.7-3-10.3-3.7c-1.2-0.2-2.5-0.4-3.7-0.4
		c-0.8,0-1.6,0-2.4,0.1c-3.4,0.5-6.5,2.1-9,4.5c-2.4,2.4-4.1,5.5-4.6,8.9c-0.3,2.2-0.2,4.3,0.2,6.5c0.8,4.5,2.8,9,4.9,12.9l9.1,17
		c5,9.6,10.1,19.1,15.4,28.6c3.4,6.2,6.2,11.5,8.8,15.9c0.5,0.8,1.1,1.7,1.5,2.5c3.2,5.3,5.8,8.6,8.4,11c1.7,1.6,3.7,2.9,5.9,3.6
		c2.3,0.8,4.8,1,7.2,0.8c1.2-0.1,2.5-0.4,3.7-0.6c1.2-0.3,2.4-0.7,3.5-1.2c1.3-0.5,2.5-1,3.6-1.7c6.9-3.9,13.2-8.6,18.9-14.1
		c6.8-6.7,12.7-13.9,17.4-22.2c0.6-1.2,1.2-2.4,1.7-3.7c0.4-1.2,0.8-2.3,1.1-3.5s0.5-2.5,0.6-3.7c0.2-2.4-0.1-4.9-0.8-7.2
		C272.5,269.8,271.2,267.8,269.6,266.1L269.6,266.1z">
  </path>
 </g>
</svg>