<?xml version="1.0" encoding="UTF-8"?>
<svg id="Yext_Seal" xmlns="http://www.w3.org/2000/svg" version="1.1" viewBox="0 0 720 720">
  <!-- Generator: Adobe Illustrator 29.2.1, SVG Export Plug-In . SVG Version: 2.1.0 Build 116)  -->
  <path id="Circle" d="M360,0C161.2,0,0,161.2,0,360s161.2,360,360,360,360-161.2,360-360S558.8,0,360,0ZM360,691.2c-182.9,0-331.2-148.3-331.2-331.2S177.1,28.8,360,28.8s331.2,148.3,331.2,331.2-148.3,331.2-331.2,331.2Z"/>
  <polygon id="T" points="370.8 399.6 435.6 399.6 435.6 529.2 464.4 529.2 464.4 399.6 529.2 399.6 529.2 370.8 370.8 370.8 370.8 399.6"/>
  <polygon id="X" points="332.4 367.2 270 429.6 207.6 367.2 187.2 387.6 249.6 450 187.2 512.4 207.6 532.8 270 470.4 332.4 532.8 352.8 512.4 290.4 450 352.8 387.6 332.4 367.2"/>
  <path id="E" d="M448.2,349.2c44.7,0,81-36.3,81-81h-28.8c0,28.8-23.4,52.2-52.2,52.2s-16-1.9-22.9-5.3l69.8-69.8,21.1-21.1c-14.4-22.3-39.5-37-68-37-44.7,0-81,36.3-81,81s36.3,81,81,81ZM448.2,216c10.1,0,19.6,2.9,27.6,7.9l-71.9,71.9c-5-8-7.9-17.4-7.9-27.6,0-28.8,23.4-52.2,52.2-52.2Z"/>
  <polygon id="Y" points="270 259.6 209.3 187.2 187.2 205.7 255.6 287.2 255.6 349.2 284.4 349.2 284.4 287.2 352.8 205.7 330.7 187.2 270 259.6"/>
</svg>