<svg width="20" height="20" viewBox="0 0 20 20" fill="none" xmlns="http://www.w3.org/2000/svg">
<path d="M10.0001 0C4.47724 0 0 4.47724 0 10.0001C0 14.9534 3.60522 19.0556 8.33225 19.8499V12.0863H5.91994V9.29254H8.33225V7.2325C8.33225 4.84227 9.79213 3.53973 11.9247 3.53973C12.9461 3.53973 13.8238 3.61583 14.0786 3.64936V6.14779L12.5995 6.1485C11.44 6.1485 11.2165 6.69939 11.2165 7.50807V9.29111H13.9832L13.6223 12.0849H11.2165V19.9167C16.1642 19.3146 20 15.1079 20 9.9972C20 4.47724 15.5228 0 10.0001 0Z" fill="white"/>
</svg>
