<svg width="16" height="16" viewBox="0 0 16 16" fill="none" xmlns="http://www.w3.org/2000/svg">
<path d="M1.59998 2.85753C1.59998 2.6061 1.80569 2.40039 2.05712 2.40039H13.9428C14.1943 2.40039 14.4 2.6061 14.4 2.85753C14.4 3.10896 14.1943 3.31468 13.9428 3.31468H2.05712C1.80569 3.31468 1.59998 3.10896 1.59998 2.85753ZM3.42855 7.42896C3.42855 7.17753 3.63426 6.97182 3.88569 6.97182H12.1143C12.3657 6.97182 12.5714 7.17753 12.5714 7.42896C12.5714 7.68039 12.3657 7.8861 12.1143 7.8861H3.88569C3.63426 7.8861 3.42855 7.68039 3.42855 7.42896ZM9.82855 12.0004C9.82855 12.2518 9.62283 12.4575 9.3714 12.4575H6.62855C6.37712 12.4575 6.1714 12.2518 6.1714 12.0004C6.1714 11.749 6.37712 11.5432 6.62855 11.5432H9.3714C9.62283 11.5432 9.82855 11.749 9.82855 12.0004Z" fill="#1C1D20"/>
</svg>
