<svg width="14" height="14" viewBox="0 0 14 14" fill="none" xmlns="http://www.w3.org/2000/svg">
<path d="M7.206 2.1769C7.08934 2.07385 6.91241 2.07385 6.79381 2.1769L1.50529 6.84323C1.37697 6.956 1.36336 7.15432 1.47807 7.28264C1.59279 7.41097 1.78916 7.42458 1.91749 7.30986L2.64466 6.66824V10.4985C2.64466 11.3579 3.34072 12.054 4.2001 12.054H9.7997C10.6591 12.054 11.3551 11.3579 11.3551 10.4985V6.66824L12.0823 7.30986C12.2106 7.42263 12.407 7.41097 12.5217 7.28264C12.6364 7.15432 12.6228 6.95794 12.4945 6.84323L7.206 2.1769ZM3.26684 10.4985V6.118L6.9999 2.82435L10.733 6.118V10.4985C10.733 11.0138 10.3149 11.4318 9.7997 11.4318H8.55535V8.3209C8.55535 7.97676 8.27731 7.69873 7.93317 7.69873H6.06664C5.72249 7.69873 5.44446 7.97676 5.44446 8.3209V11.4318H4.2001C3.68486 11.4318 3.26684 11.0138 3.26684 10.4985ZM6.06664 11.4318V8.3209H7.93317V11.4318H6.06664Z" fill="#5B5D60"/>
</svg>
