<svg width="20" height="20" viewBox="0 0 20 20" fill="none" xmlns="http://www.w3.org/2000/svg">
<path d="M14.25 2H5.75C3.67893 2 2 3.67893 2 5.75V14.25C2 16.3211 3.67893 18 5.75 18H14.25C16.3211 18 18 16.3211 18 14.25V5.75C18 3.67893 16.3211 2 14.25 2Z" fill="url(#paint0_radial_10_42176)"/>
<path d="M14.25 2H5.75C3.67893 2 2 3.67893 2 5.75V14.25C2 16.3211 3.67893 18 5.75 18H14.25C16.3211 18 18 16.3211 18 14.25V5.75C18 3.67893 16.3211 2 14.25 2Z" fill="url(#paint1_radial_10_42176)"/>
<path d="M10.0006 3.75C8.30319 3.75 8.09013 3.75744 7.4235 3.78775C6.75813 3.81825 6.30394 3.92356 5.90656 4.07812C5.49544 4.23775 5.14675 4.45131 4.79938 4.79881C4.45169 5.14625 4.23813 5.49494 4.078 5.90587C3.923 6.30338 3.81756 6.75775 3.78762 7.42281C3.75781 8.0895 3.75 8.30263 3.75 10.0001C3.75 11.6975 3.7575 11.9099 3.78775 12.5765C3.81838 13.2419 3.92369 13.6961 4.07812 14.0934C4.23787 14.5046 4.45144 14.8533 4.79894 15.2006C5.14625 15.5483 5.49494 15.7624 5.90575 15.922C6.30344 16.0766 6.75769 16.1819 7.42294 16.2124C8.08962 16.2427 8.3025 16.2501 9.99981 16.2501C11.6974 16.2501 11.9097 16.2427 12.5764 16.2124C13.2417 16.1819 13.6964 16.0766 14.0941 15.922C14.5051 15.7624 14.8532 15.5483 15.2005 15.2006C15.5482 14.8533 15.7617 14.5046 15.9219 14.0936C16.0755 13.6961 16.181 13.2417 16.2122 12.5766C16.2422 11.91 16.25 11.6975 16.25 10.0001C16.25 8.30263 16.2422 8.08962 16.2122 7.42294C16.181 6.75756 16.0755 6.30344 15.9219 5.90606C15.7617 5.49494 15.5482 5.14625 15.2005 4.79881C14.8529 4.45119 14.5052 4.23762 14.0938 4.07819C13.6953 3.92356 13.2409 3.81819 12.5755 3.78775C11.9088 3.75744 11.6966 3.75 9.99862 3.75H10.0006ZM9.43988 4.87631C9.60631 4.87606 9.792 4.87631 10.0006 4.87631C11.6694 4.87631 11.8671 4.88231 12.5261 4.91225C13.1355 4.94012 13.4663 5.04194 13.6866 5.1275C13.9783 5.24075 14.1862 5.37619 14.4048 5.595C14.6236 5.81375 14.7589 6.02206 14.8725 6.31375C14.9581 6.53375 15.06 6.8645 15.0878 7.47388C15.1177 8.13275 15.1242 8.33062 15.1242 9.99862C15.1242 11.6666 15.1177 11.8646 15.0878 12.5234C15.0599 13.1327 14.9581 13.4635 14.8725 13.6836C14.7593 13.9753 14.6236 14.1829 14.4048 14.4016C14.1861 14.6203 13.9784 14.7557 13.6866 14.869C13.4665 14.9549 13.1355 15.0565 12.5261 15.0844C11.8673 15.1143 11.6694 15.1208 10.0006 15.1208C8.33169 15.1208 8.13387 15.1143 7.47506 15.0844C6.86569 15.0563 6.53494 14.9544 6.31444 14.8689C6.02281 14.7556 5.81444 14.6202 5.59569 14.4014C5.37694 14.1827 5.24156 13.9749 5.128 13.6831C5.04244 13.463 4.9405 13.1322 4.91275 12.5229C4.88281 11.864 4.87681 11.6661 4.87681 9.99706C4.87681 8.32806 4.88281 8.13119 4.91275 7.47231C4.94062 6.86294 5.04244 6.53219 5.128 6.31187C5.24131 6.02019 5.37694 5.81188 5.59575 5.59313C5.8145 5.37438 6.02281 5.23894 6.3145 5.12544C6.53481 5.0395 6.86569 4.93794 7.47506 4.90994C8.05162 4.88387 8.27506 4.87606 9.43988 4.87475V4.87631ZM13.3368 5.91406C12.9228 5.91406 12.5868 6.24969 12.5868 6.66381C12.5868 7.07788 12.9228 7.41381 13.3368 7.41381C13.7509 7.41381 14.0868 7.07788 14.0868 6.66381C14.0868 6.24975 13.7509 5.91381 13.3368 5.91381V5.91406ZM10.0006 6.79038C8.22806 6.79038 6.79094 8.2275 6.79094 10.0001C6.79094 11.7726 8.22806 13.2091 10.0006 13.2091C11.7731 13.2091 13.2098 11.7726 13.2098 10.0001C13.2098 8.22756 11.773 6.79038 10.0004 6.79038H10.0006ZM10.0006 7.91669C11.1511 7.91669 12.0839 8.84938 12.0839 10.0001C12.0839 11.1506 11.1511 12.0834 10.0006 12.0834C8.84994 12.0834 7.91725 11.1506 7.91725 10.0001C7.91725 8.84938 8.84994 7.91669 10.0006 7.91669Z" fill="white"/>
<defs>
<radialGradient id="paint0_radial_10_42176" cx="0" cy="0" r="1" gradientUnits="userSpaceOnUse" gradientTransform="translate(6.25 19.2323) rotate(-90) scale(15.8572 14.7484)">
<stop stop-color="#FFDD55"/>
<stop offset="0.1" stop-color="#FFDD55"/>
<stop offset="0.5" stop-color="#FF543E"/>
<stop offset="1" stop-color="#C837AB"/>
</radialGradient>
<radialGradient id="paint1_radial_10_42176" cx="0" cy="0" r="1" gradientUnits="userSpaceOnUse" gradientTransform="translate(-0.680062 3.15256) rotate(78.681) scale(7.08825 29.218)">
<stop stop-color="#3771C8"/>
<stop offset="0.128" stop-color="#3771C8"/>
<stop offset="1" stop-color="#6600FF" stop-opacity="0"/>
</radialGradient>
</defs>
</svg>
