<svg width="20" height="20" viewBox="0 0 20 20" fill="none" xmlns="http://www.w3.org/2000/svg">
<path d="M4 4C1.79063 4 0 5.79063 0 8C0 10.2094 1.79063 12 4 12H5C5.275 12 5.5 11.775 5.5 11.5C5.5 11.225 5.275 11 5 11H4C2.34375 11 1 9.65625 1 8C1 6.34375 2.34375 5 4 5H9.50313C11.1563 5 12.5 6.34062 12.5 7.99687C12.5 9.56875 11.2844 10.8719 9.71875 10.9844L9.46562 11.0031C9.19062 11.0219 8.98438 11.2625 9.00313 11.5375C9.02188 11.8125 9.2625 12.0188 9.5375 12L9.79062 11.9812C11.8812 11.8312 13.5 10.0906 13.5 7.99687C13.5 5.7875 11.7125 4 9.50313 4H4ZM16 16C18.2094 16 20 14.2094 20 12C20 9.79063 18.2094 8 16 8H15C14.725 8 14.5 8.225 14.5 8.5C14.5 8.775 14.725 9 15 9H16C17.6562 9 19 10.3438 19 12C19 13.6562 17.6562 15 16 15H10.4969C8.84375 15 7.5 13.6594 7.5 12.0031C7.5 10.4313 8.71563 9.12812 10.2812 9.01562L10.5344 8.99687C10.8094 8.97812 11.0156 8.7375 10.9969 8.4625C10.9781 8.1875 10.7375 7.98125 10.4625 8L10.2094 8.01875C8.11875 8.16875 6.5 9.90938 6.5 12.0031C6.5 14.2125 8.2875 16 10.4969 16H16Z" fill="#5C5D60"/>
</svg>
