<svg width="20" height="20" viewBox="0 0 20 20" fill="none" xmlns="http://www.w3.org/2000/svg">
<path d="M15 8C15 5.2375 12.7625 3 10 3C7.2375 3 5 5.2375 5 8C5 8.4875 5.16875 9.15625 5.51875 9.98125C5.85937 10.7906 6.3375 11.6687 6.88125 12.5469C7.94687 14.275 9.20625 15.9281 10.0031 16.9219C10.7969 15.9281 12.0594 14.275 13.125 12.5469C13.6656 11.6687 14.1469 10.7875 14.4875 9.98125C14.8313 9.15625 15 8.4875 15 8ZM16 8C16 10.7313 12.3437 15.5938 10.7406 17.6C10.3562 18.0781 9.64375 18.0781 9.25938 17.6C7.65625 15.5938 4 10.7313 4 8C4 4.6875 6.6875 2 10 2C13.3125 2 16 4.6875 16 8ZM8.5 8C8.5 8.39782 8.65804 8.77936 8.93934 9.06066C9.22064 9.34196 9.60218 9.5 10 9.5C10.3978 9.5 10.7794 9.34196 11.0607 9.06066C11.342 8.77936 11.5 8.39782 11.5 8C11.5 7.60218 11.342 7.22064 11.0607 6.93934C10.7794 6.65804 10.3978 6.5 10 6.5C9.60218 6.5 9.22064 6.65804 8.93934 6.93934C8.65804 7.22064 8.5 7.60218 8.5 8ZM10 10.5C9.33696 10.5 8.70107 10.2366 8.23223 9.76777C7.76339 9.29893 7.5 8.66304 7.5 8C7.5 7.33696 7.76339 6.70107 8.23223 6.23223C8.70107 5.76339 9.33696 5.5 10 5.5C10.663 5.5 11.2989 5.76339 11.7678 6.23223C12.2366 6.70107 12.5 7.33696 12.5 8C12.5 8.66304 12.2366 9.29893 11.7678 9.76777C11.2989 10.2366 10.663 10.5 10 10.5Z" fill="#5C5D60"/>
</svg>
