<svg width="48" height="48" viewBox="0 0 48 48" fill="none" xmlns="http://www.w3.org/2000/svg">
<g clip-path="url(#clip0_60_305)">
<mask id="mask0_60_305" style="mask-type:luminance" maskUnits="userSpaceOnUse" x="0" y="0" width="48" height="48">
<path d="M48 0H0V48H48V0Z" fill="white"/>
</mask>
<g mask="url(#mask0_60_305)">
<path d="M24 0C10.7453 0 0 10.7453 0 24C0 37.2547 10.7453 48 24 48C37.2547 48 48 37.2547 48 24C48 10.7453 37.2547 0 24 0ZM24 46.08C11.8054 46.08 1.92 36.1946 1.92 24C1.92 11.8054 11.8054 1.92 24 1.92C36.1946 1.92 46.08 11.8054 46.08 24C46.08 36.1946 36.1946 46.08 24 46.08Z" fill="black"/>
<path d="M24.72 25.2819L28.5932 30L30 28.7935L25.6382 23.4796L25.6382 19.44L23.8017 19.44L23.8017 23.4796L19.44 28.7935L20.8467 30L24.72 25.2819Z" fill="black"/>
</g>
</g>
<defs>
<clipPath id="clip0_60_305">
<rect width="48" height="48" fill="white"/>
</clipPath>
</defs>
</svg>
