<svg width="48" height="48" viewBox="0 0 48 48" fill="none" xmlns="http://www.w3.org/2000/svg">
<g clip-path="url(#clip0_49_256)">
<path d="M24 0C10.7453 0 0 10.7453 0 24C0 37.2547 10.7453 48 24 48C37.2547 48 48 37.2547 48 24C48 10.7453 37.2547 0 24 0ZM24 46.08C11.8054 46.08 1.92 36.1946 1.92 24C1.92 11.8054 11.8054 1.92 24 1.92C36.1946 1.92 46.08 11.8054 46.08 24C46.08 36.1946 36.1946 46.08 24 46.08Z" fill="black"/>
<path d="M24.96 26.7054H28.8872V34.56H30.6327V26.7054H34.56V24.96H24.96V26.7054Z" fill="black"/>
<path d="M22.7009 24L18.7199 28.3437L14.7389 24L13.4399 25.4171L17.4216 29.76L13.4399 34.1029L14.7389 35.52L18.7199 31.1763L22.7009 35.52L23.9999 34.1029L20.0182 29.76L23.9999 25.4171L22.7009 24Z" fill="black"/>
<path d="M29.76 23.04C32.4106 23.04 34.56 20.6756 34.56 17.7596H32.8533C32.8533 19.6391 31.4684 21.1625 29.76 21.1625C29.2723 21.1625 28.8113 21.038 28.4011 20.817L33.7884 14.8906C32.9327 13.4402 31.4488 12.48 29.76 12.48C27.1087 12.48 24.96 14.8443 24.96 17.7602C24.96 20.6761 27.1087 23.04 29.76 23.04ZM29.76 14.3567C30.3596 14.3567 30.9191 14.5451 31.3931 14.8705L27.1336 19.5562C26.8379 19.0348 26.6673 18.4193 26.6673 17.7596C26.6666 15.8802 28.0515 14.3567 29.76 14.3567Z" fill="black"/>
<path d="M18.7199 17.1981L14.8467 12.48L13.4399 13.6865L17.8017 19.0004V23.04H19.6382V19.0004L23.9999 13.6865L22.5932 12.48L18.7199 17.1981Z" fill="black"/>
</g>
<defs>
<clipPath id="clip0_49_256">
<rect width="48" height="48" fill="white"/>
</clipPath>
</defs>
</svg>
