<svg width="48" height="48" viewBox="0 0 48 48" fill="none" xmlns="http://www.w3.org/2000/svg">
<g clip-path="url(#clip0_1_1314)">
<path fill-rule="evenodd" clip-rule="evenodd" d="M24 48C37.2547 48 48 37.2547 48 24C48 10.7453 37.2547 0 24 0C10.7453 0 0 10.7453 0 24C0 37.2547 10.7453 48 24 48ZM24 46.08C11.8053 46.08 1.92 36.1947 1.92 24C1.92 11.8053 11.8053 1.92 24 1.92C36.1947 1.92 46.08 11.8053 46.08 24C46.08 36.1947 36.1947 46.08 24 46.08ZM28.0893 29.48L29.56 28.246L25 22.8113V18.68H23.08V22.8113L18.52 28.246L19.9907 29.48L24.04 24.6547L28.0893 29.48Z" fill="black"/>
</g>
<defs>
<clipPath id="clip0_1_1314">
<rect width="48" height="48" fill="white"/>
</clipPath>
</defs>
</svg>
