<svg width="20" height="20" viewBox="0 0 20 20" fill="none" xmlns="http://www.w3.org/2000/svg">
<path d="M13.7437 10.6C13.2312 10.3813 12.6375 10.525 12.2844 10.9563L11.2469 12.225C9.80937 11.3906 8.60938 10.1906 7.775 8.75314L9.04063 7.71876C9.47188 7.36564 9.61875 6.77189 9.39687 6.25939L7.89687 2.75939C7.6625 2.20939 7.07188 1.90314 6.4875 2.02814L2.9875 2.77814C2.4125 2.90001 2 3.40939 2 4.00001C2 11.3969 7.73438 17.4531 15 17.9656C15.1406 17.975 15.2844 17.9844 15.4281 17.9906C15.4281 17.9906 15.4281 17.9906 15.4312 17.9906C15.6219 17.9969 15.8094 18.0031 16.0031 18.0031C16.5938 18.0031 17.1031 17.5906 17.225 17.0156L17.975 13.5156C18.1 12.9313 17.7937 12.3406 17.2437 12.1063L13.7437 10.6063V10.6ZM15.9906 17C8.81563 16.9938 3 11.1781 3 4.00001C3 3.88126 3.08125 3.78126 3.19687 3.75626L6.69688 3.00626C6.8125 2.98126 6.93125 3.04376 6.97813 3.15314L8.47813 6.65314C8.52188 6.75626 8.49375 6.87501 8.40625 6.94376L7.1375 7.98126C6.75937 8.29064 6.65937 8.83126 6.90625 9.25626C7.82812 10.8469 9.15313 12.1719 10.7406 13.0906C11.1656 13.3375 11.7063 13.2375 12.0156 12.8594L13.0531 11.5906C13.125 11.5031 13.2437 11.475 13.3438 11.5188L16.8438 13.0188C16.9531 13.0656 17.0156 13.1844 16.9906 13.3L16.2406 16.8C16.2156 16.9156 16.1125 16.9969 15.9969 16.9969C15.9937 16.9969 15.9906 16.9969 15.9875 16.9969L15.9906 17Z" fill="#5C5D60"/>
</svg>
