<svg width="16" height="16" viewBox="0 0 16 16" fill="none" xmlns="http://www.w3.org/2000/svg">
<path d="M11.1996 6.79998C11.1996 6.22216 11.0858 5.65 10.8647 5.11617C10.6436 4.58234 10.3195 4.09728 9.91088 3.68871C9.5023 3.28013 9.01725 2.95603 8.48342 2.73491C7.94958 2.51378 7.37743 2.39998 6.79961 2.39998C6.22179 2.39998 5.64964 2.51378 5.1158 2.73491C4.58197 2.95603 4.09692 3.28013 3.68834 3.68871C3.27976 4.09728 2.95566 4.58234 2.73454 5.11617C2.51342 5.65 2.39961 6.22216 2.39961 6.79998C2.39961 7.37779 2.51342 7.94995 2.73454 8.48378C2.95566 9.01762 3.27976 9.50267 3.68834 9.91125C4.09692 10.3198 4.58197 10.6439 5.1158 10.865C5.64964 11.0862 6.22179 11.2 6.79961 11.2C7.37743 11.2 7.94958 11.0862 8.48342 10.865C9.01725 10.6439 9.5023 10.3198 9.91088 9.91125C10.3195 9.50267 10.6436 9.01762 10.8647 8.48378C11.0858 7.94995 11.1996 7.37779 11.1996 6.79998ZM10.1821 10.75C9.27461 11.53 8.09211 12 6.79961 12C3.92711 12 1.59961 9.67248 1.59961 6.79998C1.59961 3.92748 3.92711 1.59998 6.79961 1.59998C9.67211 1.59998 11.9996 3.92748 11.9996 6.79998C11.9996 8.09248 11.5296 9.27498 10.7496 10.1825L14.2821 13.7175C14.4371 13.8725 14.4371 14.1275 14.2821 14.2825C14.1271 14.4375 13.8721 14.4375 13.7171 14.2825L10.1821 10.75Z" fill="white"/>
</svg>
