<svg width="98" height="18" viewBox="0 0 98 18" fill="none" xmlns="http://www.w3.org/2000/svg">
<path d="M9 14.2386L14.562 17.625L13.086 11.2425L18 6.94816L11.529 6.39434L9 0.375L6.471 6.39434L0 6.94816L4.914 11.2425L3.438 17.625L9 14.2386Z" fill="#FFC107"/>
<path d="M29 14.2386L34.562 17.625L33.086 11.2425L38 6.94816L31.529 6.39434L29 0.375L26.471 6.39434L20 6.94816L24.914 11.2425L23.438 17.625L29 14.2386Z" fill="#FFC107"/>
<path d="M49 14.2386L54.562 17.625L53.086 11.2425L58 6.94816L51.529 6.39434L49 0.375L46.471 6.39434L40 6.94816L44.914 11.2425L43.438 17.625L49 14.2386Z" fill="#FFC107"/>
<path d="M69 14.2386L74.562 17.625L73.086 11.2425L78 6.94816L71.529 6.39434L69 0.375L66.471 6.39434L60 6.94816L64.914 11.2425L63.438 17.625L69 14.2386Z" fill="#FFC107"/>
<path d="M98 6.94816L91.529 6.38526L89 0.375L86.471 6.39434L80 6.94816L84.914 11.2425L83.438 17.625L89 14.2386L94.562 17.625L93.095 11.2425L98 6.94816ZM89 12.5408V4.09737L90.539 7.76526L94.481 8.11026L91.493 10.725L92.393 14.6108L89 12.5408Z" fill="#FFC107"/>
</svg>
