<svg width="20" height="20" viewBox="0 0 20 20" fill="none" xmlns="http://www.w3.org/2000/svg">
<path d="M10.7151 2.52188C10.6151 2.2125 10.3276 2 9.9995 2C9.67138 2 9.38388 2.2125 9.28388 2.52188L7.70263 7.5H2.7495C2.42763 7.5 2.14325 7.70312 2.04013 8.00625C1.937 8.30937 2.037 8.64375 2.29013 8.84062L6.37763 12.0219L4.78388 17.0219C4.68388 17.3344 4.7995 17.6781 5.06825 17.8656C5.337 18.0531 5.6995 18.0438 5.95888 17.8438L9.9995 14.7L14.0401 17.8406C14.2995 18.0438 14.6589 18.0531 14.9307 17.8625C15.2026 17.6719 15.3151 17.3344 15.2151 17.0188L13.6214 12.0219L17.7089 8.84062C17.962 8.64375 18.062 8.30937 17.9589 8.00625C17.8558 7.70312 17.5714 7.5 17.2495 7.5H12.2964L10.7151 2.52188Z" fill="#FFC107"/>
</svg>
