<svg width="20" height="20" viewBox="0 0 20 20" fill="none" xmlns="http://www.w3.org/2000/svg">
<path d="M3.17042 9.22003V3.75198C3.17042 3.43012 3.43376 3.16677 3.75563 3.16677H9.22368C9.53457 3.16677 9.83083 3.29113 10.0503 3.51058L16.4876 9.94789C16.9448 10.4051 16.9448 11.1476 16.4876 11.6048L11.6047 16.4839C11.1476 16.9411 10.4051 16.9411 9.94787 16.4839L3.51057 10.0466C3.29112 9.82719 3.16676 9.53092 3.16676 9.22003H3.17042ZM2 9.22003C2 9.84182 2.24506 10.438 2.68396 10.8769L9.12126 17.3142C10.0357 18.2286 11.517 18.2286 12.4314 17.3142L17.3142 12.4314C18.2286 11.517 18.2286 10.0357 17.3142 9.12128L10.8769 2.68398C10.438 2.24507 9.8418 2.00001 9.22002 2.00001H3.75563C2.78637 1.99636 2 2.78273 2 3.75198V9.22003ZM6.09646 6.97063C6.32928 6.97063 6.55255 6.87815 6.71717 6.71353C6.88179 6.54891 6.97428 6.32563 6.97428 6.09282C6.97428 5.86001 6.88179 5.63673 6.71717 5.47211C6.55255 5.30749 6.32928 5.21501 6.09646 5.21501C5.86365 5.21501 5.64038 5.30749 5.47576 5.47211C5.31113 5.63673 5.21865 5.86001 5.21865 6.09282C5.21865 6.32563 5.31113 6.54891 5.47576 6.71353C5.64038 6.87815 5.86365 6.97063 6.09646 6.97063Z" fill="#767676"/>
</svg>
