<svg width="15" height="16" viewBox="0 0 15 16" fill="none" xmlns="http://www.w3.org/2000/svg">
<path d="M7.10939 1.08125C7.35939 0.975 7.64064 0.975 7.89064 1.08125L13.4125 3.425C13.7656 3.575 14.0031 3.90937 14 4.2875C13.9844 7.225 12.7688 12.4062 7.89064 14.7406C7.64376 14.8594 7.35314 14.8594 7.10626 14.7406C2.22814 12.4031 1.01564 7.22188 1.00001 4.28438C0.996889 3.90625 1.23439 3.57188 1.58751 3.42188L7.10939 1.07812V1.08125ZM8.28126 0.159375C7.78126 -0.053125 7.21876 -0.053125 6.71876 0.159375L1.19689 2.50313C0.509389 2.79375 -0.00311079 3.47188 1.4214e-05 4.29063C0.0156392 7.39062 1.29064 13.0625 6.67501 15.6406C7.19689 15.8906 7.80314 15.8906 8.32501 15.6406C13.7094 13.0625 14.9844 7.39062 15 4.29063C15.0031 3.47188 14.4906 2.79375 13.8031 2.50313L8.28126 0.159375ZM10.8531 6.26875C11.0469 6.075 11.0469 5.75625 10.8531 5.5625C10.6594 5.36875 10.3406 5.36875 10.1469 5.5625L6.50001 9.20937L4.85314 7.5625C4.65939 7.36875 4.34064 7.36875 4.14689 7.5625C3.95314 7.75625 3.95314 8.075 4.14689 8.26875L6.14689 10.2687C6.34064 10.4625 6.65939 10.4625 6.85314 10.2687L10.8531 6.26875Z" fill="#3C3E41"/>
</svg>
