<svg width="28" height="28" viewBox="0 0 28 28" fill="none" xmlns="http://www.w3.org/2000/svg">
<path d="M14 4.20078C16.5991 4.20078 19.0918 5.23328 20.9296 7.07113C22.7675 8.90899 23.8 11.4017 23.8 14.0008C23.8 16.5999 22.7675 19.0926 20.9296 20.9304C19.0918 22.7683 16.5991 23.8008 14 23.8008C11.4009 23.8008 8.9082 22.7683 7.07034 20.9304C5.23248 19.0926 4.19999 16.5999 4.19999 14.0008C4.19999 11.4017 5.23248 8.90899 7.07034 7.07113C8.9082 5.23328 11.4009 4.20078 14 4.20078ZM14 25.2008C16.9704 25.2008 19.8192 24.0208 21.9196 21.9204C24.02 19.82 25.2 16.9712 25.2 14.0008C25.2 11.0304 24.02 8.18159 21.9196 6.08119C19.8192 3.98078 16.9704 2.80078 14 2.80078C11.0296 2.80078 8.1808 3.98078 6.08039 6.08119C3.97998 8.18159 2.79999 11.0304 2.79999 14.0008C2.79999 16.9712 3.97998 19.82 6.08039 21.9204C8.1808 24.0208 11.0296 25.2008 14 25.2008ZM18.6944 11.6952C18.9656 11.4239 18.9656 10.9777 18.6944 10.7064C18.4231 10.4352 17.9769 10.4352 17.7056 10.7064L12.6 15.812L10.2944 13.5064C10.0231 13.2352 9.57686 13.2352 9.30561 13.5064C9.03436 13.7777 9.03436 14.2239 9.30561 14.4952L12.1056 17.2952C12.3769 17.5664 12.8231 17.5664 13.0944 17.2952L18.6944 11.6952Z" fill="black"/>
</svg>
