<svg width="111" height="111" viewBox="0 0 111 111" fill="none" xmlns="http://www.w3.org/2000/svg">
<path d="M55.5 11.1001C61.7611 11.1001 67.2937 14.2393 70.6064 19.0088C76.3298 17.9682 82.4695 19.6679 86.8922 24.0906C91.3148 28.5132 93.0145 34.6529 91.9739 40.3763C96.7608 43.7063 99.9 49.239 99.9 55.5001C99.9 61.7612 96.7608 67.2939 91.9912 70.6065C93.0319 76.3299 91.3322 82.4696 86.9095 86.8923C82.4869 91.3149 76.3472 93.0146 70.6237 91.974C67.2937 96.7609 61.7611 99.9001 55.5 99.9001C49.2389 99.9001 43.7062 96.7609 40.3936 91.9914C34.6701 93.032 28.5304 91.3323 24.1078 86.9096C19.6851 82.487 17.9854 76.3473 19.0261 70.6239C14.2392 67.2939 11.1 61.7612 11.1 55.5001C11.1 49.239 14.2392 43.7063 19.0087 40.3937C17.9681 34.6703 19.6678 28.5306 24.0904 24.1079C28.5131 19.6853 34.6528 17.9856 40.3762 19.0262C43.7062 14.2393 49.2389 11.1001 55.5 11.1001ZM55.5 16.6501C50.5917 16.6501 46.3078 19.4078 44.1572 23.4835L43.0819 25.5128L40.8965 24.8363C36.4912 23.4835 31.5136 24.5588 28.0275 28.0276C24.5414 31.4963 23.4834 36.4913 24.8362 40.8967L25.5126 43.082L23.4834 44.1573C19.4076 46.3079 16.65 50.5918 16.65 55.5001C16.65 60.4084 19.4076 64.6923 23.4834 66.8429L25.5126 67.9182L24.8362 70.1035C23.4834 74.5089 24.5587 79.4865 28.0275 82.9726C31.4962 86.4587 36.4912 87.5167 40.8965 86.1638L43.0819 85.4874L44.1572 87.5167C46.3078 91.5924 50.5917 94.3501 55.5 94.3501C60.4083 94.3501 64.6922 91.5924 66.8428 87.5167L67.9181 85.4874L70.1034 86.1638C74.5087 87.5167 79.4864 86.4413 82.9725 82.9726C86.4586 79.5038 87.5165 74.5262 86.1637 70.1209L85.4873 67.9182L87.5165 66.8429C91.5923 64.6923 94.35 60.4084 94.35 55.5001C94.35 50.5918 91.5923 46.3079 87.5165 44.1573L85.4873 43.082L86.1637 40.8793C87.5165 36.474 86.4412 31.4963 82.9725 28.0276C79.5037 24.5588 74.5087 23.4835 70.1034 24.8363L67.9181 25.5128L66.8428 23.4835C64.6922 19.4078 60.4083 16.6501 55.5 16.6501ZM73.2426 41.6424L71.6123 43.8798L53.2973 69.0629L51.3548 71.7339L49.0654 69.3578L39.6304 59.5932L37.7053 57.5987L41.6944 53.7484C42.1106 54.182 45.1284 57.3038 50.7651 63.1313L67.1376 40.6192L68.7679 38.3818L73.26 41.6424H73.2426Z" fill="#6F42C1"/>
</svg>
