<svg width="89" height="89" viewBox="0 0 89 89" fill="none" xmlns="http://www.w3.org/2000/svg">
<path d="M44.4 0C50.6611 0 56.1938 3.13922 59.5064 7.90875C65.2298 6.86812 71.3695 8.56781 75.7922 12.9905C80.2148 17.4131 81.9145 23.5528 80.8739 29.2763C85.6608 32.6063 88.8 38.1389 88.8 44.4C88.8 50.6611 85.6608 56.1938 80.8913 59.5064C81.9319 65.2298 80.2322 71.3695 75.8095 75.7922C71.3869 80.2148 65.2472 81.9145 59.5238 80.8739C56.1938 85.6608 50.6611 88.8 44.4 88.8C38.1389 88.8 32.6063 85.6608 29.2936 80.8913C23.5702 81.9319 17.4305 80.2322 13.0078 75.8095C8.58516 71.3869 6.88547 65.2472 7.92609 59.5238C3.13922 56.1938 0 50.6611 0 44.4C0 38.1389 3.13922 32.6063 7.90875 29.2936C6.86812 23.5702 8.56781 17.4305 12.9905 13.0078C17.4131 8.58516 23.5528 6.88547 29.2763 7.92609C32.6063 3.13922 38.1389 0 44.4 0ZM44.4 5.55C39.4917 5.55 35.2078 8.30766 33.0572 12.3834L31.9819 14.4127L29.7966 13.7362C25.3913 12.3834 20.4136 13.4588 16.9275 16.9275C13.4414 20.3963 12.3834 25.3913 13.7362 29.7966L14.4127 31.9819L12.3834 33.0572C8.30766 35.2078 5.55 39.4917 5.55 44.4C5.55 49.3083 8.30766 53.5922 12.3834 55.7428L14.4127 56.8181L13.7362 59.0034C12.3834 63.4088 13.4588 68.3864 16.9275 71.8725C20.3963 75.3586 25.3913 76.4166 29.7966 75.0638L31.9819 74.3873L33.0572 76.4166C35.2078 80.4923 39.4917 83.25 44.4 83.25C49.3083 83.25 53.5922 80.4923 55.7428 76.4166L56.8181 74.3873L59.0034 75.0638C63.4088 76.4166 68.3864 75.3413 71.8725 71.8725C75.3586 68.4038 76.4166 63.4261 75.0638 59.0208L74.3873 56.8181L76.4166 55.7428C80.4923 53.5922 83.25 49.3083 83.25 44.4C83.25 39.4917 80.4923 35.2078 76.4166 33.0572L74.3873 31.9819L75.0638 29.7792C76.4166 25.3739 75.3413 20.3963 71.8725 16.9275C68.4038 13.4588 63.4088 12.3834 59.0034 13.7362L56.8181 14.4127L55.7428 12.3834C53.5922 8.30766 49.3083 5.55 44.4 5.55ZM62.1427 30.5423L60.5123 32.7797L42.1973 57.9628L40.2548 60.6338L37.9655 58.2577L28.5305 48.4931L26.6053 46.4986L30.5944 42.6483C31.0106 43.0819 34.0284 46.2038 39.6652 52.0313L56.0377 29.5191L57.668 27.2817L62.16 30.5423H62.1427Z" fill="black"/>
</svg>
