<svg width="111" height="111" viewBox="0 0 111 111" fill="none" xmlns="http://www.w3.org/2000/svg">
<g clip-path="url(#clip0_174_2987)">
<mask id="mask0_174_2987" style="mask-type:luminance" maskUnits="userSpaceOnUse" x="0" y="0" width="111" height="111">
<path d="M111 0H0V111H111V0Z" fill="white"/>
</mask>
<g mask="url(#mask0_174_2987)">
<path d="M55.5 6.9375C68.3796 6.9375 80.7316 12.0539 89.8389 21.1611C98.9461 30.2684 104.062 42.6204 104.062 55.5C104.062 68.3796 98.9461 80.7316 89.8389 89.8389C80.7316 98.9461 68.3796 104.062 55.5 104.062C42.6204 104.062 30.2684 98.9461 21.1611 89.8389C12.0539 80.7316 6.9375 68.3796 6.9375 55.5C6.9375 42.6204 12.0539 30.2684 21.1611 21.1611C30.2684 12.0539 42.6204 6.9375 55.5 6.9375ZM55.5 111C70.2195 111 84.3362 105.153 94.7444 94.7444C105.153 84.3362 111 70.2195 111 55.5C111 40.7805 105.153 26.6638 94.7444 16.2556C84.3362 5.84731 70.2195 0 55.5 0C40.7805 0 26.6638 5.84731 16.2556 16.2556C5.84731 26.6638 0 40.7805 0 55.5C0 70.2195 5.84731 84.3362 16.2556 94.7444C26.6638 105.153 40.7805 111 55.5 111ZM55.5 27.75C53.5922 27.75 52.0312 29.3109 52.0312 31.2188V58.9688C52.0312 60.8766 53.5922 62.4375 55.5 62.4375C57.4078 62.4375 58.9688 60.8766 58.9688 58.9688V31.2188C58.9688 29.3109 57.4078 27.75 55.5 27.75ZM60.7031 76.3125C60.7031 74.9325 60.1549 73.6091 59.1792 72.6333C58.2034 71.6576 56.88 71.1094 55.5 71.1094C54.12 71.1094 52.7966 71.6576 51.8208 72.6333C50.8451 73.6091 50.2969 74.9325 50.2969 76.3125C50.2969 77.6925 50.8451 79.0159 51.8208 79.9917C52.7966 80.9674 54.12 81.5156 55.5 81.5156C56.88 81.5156 58.2034 80.9674 59.1792 79.9917C60.1549 79.0159 60.7031 77.6925 60.7031 76.3125Z" fill="#3C3E41"/>
</g>
</g>
<defs>
<clipPath id="clip0_174_2987">
<rect width="111" height="111" fill="white"/>
</clipPath>
</defs>
</svg>
