<svg width="20" height="16" viewBox="0 0 20 16" fill="none" xmlns="http://www.w3.org/2000/svg">
<path fill-rule="evenodd" clip-rule="evenodd" d="M17.8252 0.474072C18.6819 0.729433 19.3574 1.47694 19.5879 2.42525C20.0164 4.15738 19.9999 7.76789 19.9999 7.76789C19.9999 7.76789 19.9999 11.36 19.5881 13.0923C19.3574 14.0404 18.682 14.7881 17.8252 15.0433C16.2602 15.4993 9.99996 15.4993 9.99996 15.4993C9.99996 15.4993 3.75609 15.4993 2.17467 15.0252C1.3179 14.7699 0.642545 14.0222 0.411833 13.0741C0 11.36 0 7.74965 0 7.74965C0 7.74965 0 4.15738 0.411833 2.42525C0.642392 1.47711 1.33438 0.711193 2.17452 0.456001C3.73961 0 9.99981 0 9.99981 0C9.99981 0 16.2602 0 17.8252 0.474072ZM13.2124 7.74967L8.00657 11.0684V4.43098L13.2124 7.74967Z" fill="white"/>
</svg>
