<svg width="342" height="274" viewBox="0 0 342 274" fill="none" xmlns="http://www.w3.org/2000/svg">
<path d="M186.048 87.6799C191.337 87.6799 195.624 91.9734 195.624 97.2698C195.624 102.566 191.337 106.86 186.048 106.86H273.6C278.888 106.86 283.176 111.153 283.176 116.449C283.176 121.746 278.888 126.04 273.6 126.04H303.696C308.985 126.041 313.272 130.334 313.272 135.63C313.272 140.926 308.985 145.22 303.696 145.22H277.704C272.416 145.22 268.128 149.513 268.128 154.81C268.128 160.106 272.416 164.4 277.704 164.4H285.912C291.201 164.4 295.488 168.693 295.488 173.99C295.488 179.286 291.201 183.58 285.912 183.58H214.776C214.071 183.58 213.385 183.504 212.724 183.36C212.063 183.504 211.376 183.58 210.672 183.58H86.1837C80.8952 183.58 76.6076 179.286 76.6076 173.99C76.6078 168.693 80.8953 164.4 86.1837 164.4H32.8322C27.5435 164.4 23.256 160.106 23.256 154.81C23.2561 149.513 27.5435 145.22 32.8322 145.22H87.5519C92.8405 145.22 97.128 140.926 97.1281 135.63C97.1281 130.334 92.8406 126.04 87.5519 126.04H53.3517C48.0632 126.04 43.7755 121.746 43.7755 116.449C43.7758 111.153 48.0633 106.86 53.3517 106.86H108.072C102.784 106.86 98.4962 102.566 98.4962 97.2698C98.4963 91.9734 102.784 87.6799 108.072 87.6799H186.048ZM309.168 164.4C314.457 164.4 318.744 168.693 318.744 173.99C318.744 179.286 314.457 183.58 309.168 183.58C303.879 183.58 299.592 179.286 299.592 173.99C299.592 168.693 303.88 164.4 309.168 164.4Z" fill="#A29FF8" fill-opacity="0.2"/>
<path d="M235.98 61.6499V69.8699" stroke="#A3CFBB" stroke-width="2.5" stroke-linecap="round" stroke-linejoin="round"/>
<path d="M235.98 80.8301V89.0501" stroke="#A3CFBB" stroke-width="2.5" stroke-linecap="round" stroke-linejoin="round"/>
<path d="M222.3 75.3499H230.508" stroke="#A3CFBB" stroke-width="2.5" stroke-linecap="round" stroke-linejoin="round"/>
<path d="M241.452 75.3499H249.66" stroke="#A3CFBB" stroke-width="2.5" stroke-linecap="round" stroke-linejoin="round"/>
<path d="M122.436 202.76V208.24" stroke="#A3CFBB" stroke-width="2.5" stroke-linecap="round" stroke-linejoin="round"/>
<path d="M122.436 219.2V224.68" stroke="#A3CFBB" stroke-width="2.5" stroke-linecap="round" stroke-linejoin="round"/>
<path d="M111.492 213.72H116.964" stroke="#A3CFBB" stroke-width="2.5" stroke-linecap="round" stroke-linejoin="round"/>
<path d="M127.908 213.72H133.38" stroke="#A3CFBB" stroke-width="2.5" stroke-linecap="round" stroke-linejoin="round"/>
<path fill-rule="evenodd" clip-rule="evenodd" d="M219.853 179.643C221.756 177.31 223.466 174.87 224.983 172.344C228.321 166.79 230.726 160.822 232.197 154.67C233.683 148.447 234.214 142.035 233.783 135.671C233.408 130.116 232.301 124.598 230.461 119.272C228.635 113.988 226.086 108.893 222.813 104.141C220.863 101.309 218.656 98.5983 216.19 96.0419C212.571 92.2886 208.6 89.0799 204.382 86.4178C199.849 83.5573 195.03 81.3278 190.051 79.7317C183.816 77.7328 177.33 76.7273 170.844 76.72C165.797 76.7143 160.749 77.3129 155.819 78.5181C150.268 79.8748 144.865 82.0004 139.778 84.8978C135.306 87.4449 131.078 90.5885 127.208 94.3309C122.344 99.0338 118.404 104.335 115.392 110.009C112.444 115.564 110.384 121.475 109.216 127.531C108.014 133.771 107.758 140.163 108.454 146.477C109.355 154.661 111.854 162.712 115.958 170.125C118.584 174.868 121.867 179.35 125.81 183.438C132.069 189.928 139.376 194.79 147.203 198.014C156.721 201.933 167.006 203.43 177.108 202.486C185.586 201.693 193.934 199.181 201.59 194.938" fill="#F7F9FE"/>
<path d="M219.853 179.643C221.756 177.31 223.466 174.87 224.983 172.344C228.321 166.79 230.726 160.822 232.197 154.67C233.683 148.447 234.214 142.035 233.783 135.671C233.408 130.116 232.301 124.598 230.461 119.272C228.635 113.988 226.086 108.893 222.813 104.141C220.863 101.309 218.656 98.5983 216.19 96.0419C212.571 92.2886 208.6 89.0799 204.382 86.4178C199.849 83.5573 195.03 81.3278 190.051 79.7317C183.816 77.7328 177.33 76.7273 170.844 76.72C165.797 76.7143 160.749 77.3129 155.819 78.5181C150.268 79.8748 144.865 82.0004 139.778 84.8978C135.306 87.4449 131.078 90.5885 127.208 94.3309C122.344 99.0338 118.404 104.335 115.392 110.009C112.444 115.564 110.384 121.475 109.216 127.531C108.014 133.771 107.758 140.163 108.454 146.477C109.355 154.661 111.854 162.712 115.958 170.125C118.584 174.868 121.867 179.35 125.81 183.438C132.069 189.928 139.376 194.79 147.203 198.014C156.721 201.933 167.006 203.43 177.108 202.486C185.586 201.693 193.934 199.181 201.59 194.938" stroke="#5A58F2" stroke-width="2.5" stroke-linecap="round" stroke-linejoin="round"/>
<path fill-rule="evenodd" clip-rule="evenodd" d="M206.16 192.318C210.135 189.756 213.67 186.56 215.969 183.979L206.16 192.318Z" fill="#1C1D20" fill-opacity="0.06"/>
<path d="M206.16 192.318C210.135 189.756 213.67 186.56 215.969 183.979" stroke="#5A58F2" stroke-width="2.5" stroke-linecap="round"/>
<path d="M228.456 143.325C228.065 143.332 227.673 143.336 227.28 143.336C192.733 143.336 164.445 116.363 162.075 82.2C134.577 86.5437 113.544 110.494 113.544 139.388C113.544 171.361 139.297 197.28 171.065 197.28C201.519 197.28 226.445 173.462 228.456 143.325Z" fill="#1C1D20" fill-opacity="0.04"/>
<path fill-rule="evenodd" clip-rule="evenodd" d="M149.144 137.511C147.47 135.963 144.875 136.082 143.346 137.776C141.817 139.47 141.935 142.098 143.608 143.646L162.923 161.508C165.266 163.675 168.9 163.508 171.04 161.136C171.13 161.036 171.13 161.036 171.216 160.932L198.78 127.371C200.229 125.607 199.991 122.987 198.248 121.52C196.505 120.053 193.917 120.294 192.468 122.059L166.554 153.611L149.144 137.511Z" fill="#1C1D20" fill-opacity="0.06" stroke="#A3CFBB" stroke-width="2.5" stroke-linecap="round"/>
<path fill-rule="evenodd" clip-rule="evenodd" d="M151.607 88.2458C148.939 89.2481 146.333 90.4662 143.816 91.9003C139.903 94.1289 136.205 96.8794 132.819 100.154C131.431 101.496 130.129 102.894 128.913 104.341M125.152 109.378C124.185 110.841 123.295 112.34 122.483 113.871C121.883 115.002 121.325 116.149 120.809 117.311" fill="#1C1D20" fill-opacity="0.06"/>
<path d="M152.046 89.417C152.692 89.1743 153.019 88.4532 152.776 87.8063C152.534 87.1595 151.814 86.8319 151.168 87.0746L151.607 88.2458L152.046 89.417ZM143.816 91.9003L144.433 92.9876L143.816 91.9003ZM132.819 100.154L131.951 99.254L132.819 100.154ZM127.958 103.535C127.514 104.064 127.581 104.853 128.109 105.298C128.637 105.743 129.425 105.675 129.869 105.146L128.913 104.341L127.958 103.535ZM126.193 110.068C126.574 109.492 126.416 108.716 125.841 108.335C125.266 107.953 124.491 108.111 124.11 108.687L125.152 109.378L126.193 110.068ZM122.483 113.871L123.586 114.458V114.458L122.483 113.871ZM119.667 116.803C119.387 117.434 119.671 118.173 120.301 118.454C120.932 118.735 121.67 118.45 121.95 117.819L120.809 117.311L119.667 116.803ZM151.607 88.2458L151.168 87.0746C148.439 88.0999 145.773 89.3459 143.198 90.813L143.816 91.9003L144.433 92.9876C146.893 91.5864 149.439 90.3964 152.046 89.417L151.607 88.2458ZM143.816 91.9003L143.198 90.813C139.196 93.0929 135.413 95.9063 131.951 99.254L132.819 100.154L133.687 101.054C136.996 97.8526 140.611 95.1649 144.433 92.9876L143.816 91.9003ZM132.819 100.154L131.951 99.254C130.532 100.626 129.201 102.056 127.958 103.535L128.913 104.341L129.869 105.146C131.057 103.732 132.33 102.366 133.687 101.054L132.819 100.154ZM125.152 109.378L124.11 108.687C123.121 110.184 122.211 111.718 121.38 113.284L122.483 113.871L123.586 114.458C124.379 112.963 125.249 111.497 126.193 110.068L125.152 109.378ZM122.483 113.871L121.38 113.284C120.766 114.44 120.195 115.614 119.667 116.803L120.809 117.311L121.95 117.819C122.454 116.684 122.999 115.563 123.586 114.458L122.483 113.871Z" fill="#5A58F2"/>
</svg>
