<svg width="300" height="224" viewBox="0 0 300 224" fill="none" xmlns="http://www.w3.org/2000/svg">
<path fill-rule="evenodd" clip-rule="evenodd" d="M232 65C235.866 65 239 68.134 239 72C239 75.866 235.866 79 232 79H192C195.866 79 199 82.134 199 86C199 89.866 195.866 93 192 93H214C217.866 93 221 96.134 221 100C221 103.866 217.866 107 214 107H203.826C198.952 107 195 110.134 195 114C195 116.577 197 118.911 201 121C204.866 121 208 124.134 208 128C208 131.866 204.866 135 201 135H118C114.134 135 111 131.866 111 128C111 124.134 114.134 121 118 121H79C75.134 121 72 117.866 72 114C72 110.134 75.134 107 79 107H119C122.866 107 126 103.866 126 100C126 96.134 122.866 93 119 93H94C90.134 93 87 89.866 87 86C87 82.134 90.134 79 94 79H134C130.134 79 127 75.866 127 72C127 68.134 130.134 65 134 65H232ZM232 93C235.866 93 239 96.134 239 100C239 103.866 235.866 107 232 107C228.134 107 225 103.866 225 100C225 96.134 228.134 93 232 93Z" fill="#A29FF8" fill-opacity="0.2"/>
<path d="M145.5 133C164.002 133 179 118.002 179 99.5C179 80.9985 164.002 66 145.5 66C126.998 66 112 80.9985 112 99.5C112 118.002 126.998 133 145.5 133Z" fill="#F7F9FE" stroke="#5A58F2" stroke-width="2.5"/>
<path fill-rule="evenodd" clip-rule="evenodd" d="M140.132 125.494C141.891 125.819 143.68 125.987 145.5 126C160.136 126 172 114.136 172 99.5C172 84.8645 160.136 73 145.5 73C141.74 73 138.164 73.7829 134.924 75.1946C129.294 77.6479 124.682 81.9999 121.896 87.4419C120.045 91.0589 119 95.1575 119 99.5C119 103.44 119.86 107.179 121.402 110.54C122.503 112.94 123.952 115.146 125.684 117.096" fill="#1C1D20" fill-opacity="0.06"/>
<path d="M140.132 125.494C141.891 125.819 143.68 125.987 145.5 126C160.136 126 172 114.136 172 99.5C172 84.8645 160.136 73 145.5 73C141.74 73 138.164 73.7829 134.924 75.1946C129.294 77.6479 124.682 81.9999 121.896 87.4419C120.045 91.0589 119 95.1575 119 99.5C119 103.44 119.86 107.179 121.402 110.54C122.503 112.94 123.952 115.146 125.684 117.096" stroke="#5A58F2" stroke-width="2.5" stroke-linecap="round"/>
<path d="M128.797 120.075C130.946 121.821 133.372 123.237 136.001 124.247" stroke="#5A58F2" stroke-width="2.5" stroke-linecap="round"/>
<path d="M173 126L179 132" stroke="#5A58F2" stroke-width="2.5"/>
<path fill-rule="evenodd" clip-rule="evenodd" d="M178.03 131.03C176.138 132.923 176.138 135.992 178.03 137.884L189.116 148.97C191.008 150.862 194.077 150.862 195.97 148.97C197.862 147.077 197.862 144.008 195.97 142.116L184.884 131.03C182.992 129.138 179.923 129.138 178.03 131.03Z" fill="#1C1D20" fill-opacity="0.04" stroke="#5A58F2" stroke-width="2.5"/>
<path d="M183 133L194 144" stroke="#1C1D20" stroke-opacity="0.06" stroke-width="2.5" stroke-linecap="round"/>
<path fill-rule="evenodd" clip-rule="evenodd" d="M139 88C139 99.598 148.402 109 160 109C162.278 109 164.472 108.637 166.526 107.966C163.173 116.287 155.023 122.161 145.5 122.161C132.985 122.161 122.839 112.015 122.839 99.5C122.839 88.1596 131.17 78.7648 142.045 77.1011C140.113 80.2793 139 84.0097 139 88Z" fill="#1C1D20" fill-opacity="0.04"/>
<path d="M146 81C144.727 81 143.482 81.1253 142.279 81.3642M138.645 82.4761C131.804 85.3508 127 92.1144 127 100" stroke="#5A58F2" stroke-width="2.5" stroke-linecap="round"/>
<path d="M199.176 99.7773H191M205.5 92H188.324H205.5ZM212.5 92H210.279H212.5Z" stroke="#5A58F2" stroke-width="2.5" stroke-linecap="round" stroke-linejoin="round"/>
<path d="M109.176 121.777H101M104.5 113H87.3242H104.5ZM81.5 113H77.2788H81.5Z" stroke="#5A58F2" stroke-width="2.5" stroke-linecap="round" stroke-linejoin="round"/>
</svg>
